M48
;DRILL file {PCBnew (2010-00-09 BZR 23xx)-stable} date Пнд 20 Июн 2011 14:17:03
;FORMAT={2:3/ absolute / inch / suppress trailing zeros}
R,T
VER,1
FMAT,2
INCH,LZ
TCST,OFF
ICI,OFF
ATC,ON
T1C0.016
T2C0.031
T3C0.039
T4C0.118
%
M47
G05
M72
T1
X028Y-04725
X02825Y-03525
X02825Y-03675
X02825Y-03825
X02825Y-03975
X02825Y-0415
X029Y-04075
X0295Y-0355
X0295Y-03675
X0295Y-03855
X0295Y-04025
X0295Y-0425
X0295Y-0445
X03Y-037
X03025Y-03425
X0305Y-039
X03075Y-03525
X0315Y-03875
X032Y-03725
X03225Y-0387
X03225Y-0393
X0325Y-03725
X0325Y-0412
X0325Y-0425
X0347Y-038
X03475Y-0395
X0361Y-038
X03625Y-038
X03625Y-04
X03675Y-0365
X03825Y-04
X03825Y-0415
X03925Y-0405
X0395Y-0355
X04125Y-03625
X04125Y-038
X04175Y-034
X04225Y-0362
X04225Y-03675
X04225Y-03875
X04275Y-035
X043Y-039
X043Y-0435
X04375Y-03875
X04425Y-03875
X0445Y-03725
X0445Y-03925
X0445Y-041
X045Y-0435
X0465Y-0395
X0472Y-038
X04725Y-0395
X04825Y-038
X0485Y-03325
X0485Y-03625
X04925Y-0355
T2
X03825Y-03625
X03825Y-03825
T3
X029Y-046
X029Y-047
X03Y-046
X03Y-047
X031Y-046
X031Y-047
X032Y-046
X032Y-047
X03275Y-03175
X033Y-046
X033Y-047
X034Y-046
X034Y-047
X035Y-046
X035Y-047
X036Y-046
X036Y-047
X037Y-046
X037Y-047
X038Y-046
X038Y-047
X039Y-046
X039Y-047
X04Y-046
X04Y-047
X041Y-046
X041Y-047
X042Y-046
X042Y-047
X043Y-046
X043Y-047
X044Y-046
X044Y-047
X04425Y-03175
X045Y-046
X045Y-047
X046Y-046
X046Y-047
X047Y-046
X047Y-047
X048Y-046
X048Y-047
T4
X03066Y-03175
X03275Y-02966
X03484Y-03175
X04216Y-03175
X04425Y-02966
X04634Y-03175
T0
M30
