G04 (created by PCBNEW-RS274X (2010-00-09 BZR 23xx)-stable) date Пнд 20 Июн 2011 14:16:42*
G01*
G70*
G90*
%MOIN*%
G04 Gerber Fmt 3.4, Leading zero omitted, Abs format*
%FSLAX34Y34*%
G04 APERTURE LIST*
%ADD10C,0.006000*%
%ADD11C,0.015000*%
%ADD12R,0.060000X0.060000*%
%ADD13C,0.060000*%
%ADD14C,0.078700*%
%ADD15R,0.045000X0.025000*%
%ADD16R,0.025000X0.045000*%
%ADD17R,0.014000X0.063000*%
%ADD18C,0.157500*%
%ADD19C,0.035400*%
%ADD20C,0.007900*%
%ADD21C,0.023600*%
%ADD22C,0.010000*%
G04 APERTURE END LIST*
G54D10*
G54D11*
X27000Y-48250D02*
X27000Y-48000D01*
X50000Y-48250D02*
X27000Y-48250D01*
X50000Y-28500D02*
X50000Y-48250D01*
X27000Y-28500D02*
X50000Y-28500D01*
X27000Y-48250D02*
X27000Y-28500D01*
G54D12*
X29000Y-47000D03*
G54D13*
X29000Y-46000D03*
X30000Y-47000D03*
X30000Y-46000D03*
X31000Y-47000D03*
X31000Y-46000D03*
X32000Y-47000D03*
X32000Y-46000D03*
X33000Y-47000D03*
X33000Y-46000D03*
X34000Y-47000D03*
X34000Y-46000D03*
X35000Y-47000D03*
X35000Y-46000D03*
X36000Y-47000D03*
X36000Y-46000D03*
X37000Y-47000D03*
X37000Y-46000D03*
X38000Y-47000D03*
X38000Y-46000D03*
X39000Y-47000D03*
X39000Y-46000D03*
X40000Y-47000D03*
X40000Y-46000D03*
X41000Y-47000D03*
X41000Y-46000D03*
X42000Y-47000D03*
X42000Y-46000D03*
X43000Y-47000D03*
X43000Y-46000D03*
X44000Y-47000D03*
X44000Y-46000D03*
X45000Y-47000D03*
X45000Y-46000D03*
X46000Y-47000D03*
X46000Y-46000D03*
X47000Y-47000D03*
X47000Y-46000D03*
X48000Y-47000D03*
X48000Y-46000D03*
G54D14*
X38250Y-36250D03*
X38250Y-38250D03*
G54D15*
X40250Y-36800D03*
X40250Y-36200D03*
X43500Y-36800D03*
X43500Y-36200D03*
G54D16*
X45300Y-34750D03*
X44700Y-34750D03*
G54D15*
X46500Y-35050D03*
X46500Y-34450D03*
X29500Y-37950D03*
X29500Y-38550D03*
X42250Y-36200D03*
X42250Y-36800D03*
X41250Y-36200D03*
X41250Y-36800D03*
X31500Y-36550D03*
X31500Y-35950D03*
G54D16*
X33300Y-34750D03*
X32700Y-34750D03*
G54D15*
X34500Y-35050D03*
X34500Y-34450D03*
X47250Y-39550D03*
X47250Y-38950D03*
X34750Y-39550D03*
X34750Y-38950D03*
G54D16*
X47800Y-38000D03*
X47200Y-38000D03*
G54D15*
X44500Y-36200D03*
X44500Y-36800D03*
X45500Y-36200D03*
X45500Y-36800D03*
X46500Y-36200D03*
X46500Y-36800D03*
X32500Y-41800D03*
X32500Y-41200D03*
G54D16*
X35300Y-38000D03*
X34700Y-38000D03*
G54D15*
X32500Y-35950D03*
X32500Y-36550D03*
X33500Y-35950D03*
X33500Y-36550D03*
X34500Y-35950D03*
X34500Y-36550D03*
X44500Y-41800D03*
X44500Y-41200D03*
G54D17*
X33750Y-37955D03*
X33500Y-37955D03*
X33250Y-37955D03*
X33000Y-37955D03*
X32750Y-37955D03*
X32500Y-37955D03*
X32250Y-37955D03*
X32000Y-37955D03*
X31750Y-37955D03*
X31500Y-37955D03*
X31250Y-37955D03*
X31000Y-37955D03*
X30750Y-37955D03*
X30500Y-37955D03*
X30500Y-40045D03*
X30750Y-40045D03*
X31000Y-40045D03*
X31250Y-40045D03*
X31500Y-40045D03*
X31750Y-40045D03*
X32000Y-40045D03*
X32250Y-40045D03*
X32500Y-40045D03*
X32750Y-40045D03*
X33000Y-40045D03*
X33250Y-40045D03*
X33500Y-40045D03*
X33750Y-40045D03*
X46000Y-37955D03*
X45750Y-37955D03*
X45500Y-37955D03*
X45250Y-37955D03*
X45000Y-37955D03*
X44750Y-37955D03*
X44500Y-37955D03*
X44250Y-37955D03*
X44000Y-37955D03*
X43750Y-37955D03*
X43500Y-37955D03*
X43250Y-37955D03*
X43000Y-37955D03*
X42750Y-37955D03*
X42750Y-40045D03*
X43000Y-40045D03*
X43250Y-40045D03*
X43500Y-40045D03*
X43750Y-40045D03*
X44000Y-40045D03*
X44250Y-40045D03*
X44500Y-40045D03*
X44750Y-40045D03*
X45000Y-40045D03*
X45250Y-40045D03*
X45500Y-40045D03*
X45750Y-40045D03*
X46000Y-40045D03*
G54D18*
X32750Y-29663D03*
X34837Y-31750D03*
X30663Y-31750D03*
G54D14*
X32750Y-31750D03*
G54D18*
X44250Y-29663D03*
X46337Y-31750D03*
X42163Y-31750D03*
G54D14*
X44250Y-31750D03*
G54D19*
X39250Y-40500D03*
X41250Y-38000D03*
X42250Y-36200D03*
X41250Y-36250D03*
X29500Y-38550D03*
X44500Y-41000D03*
X32500Y-41200D03*
X34750Y-39500D03*
X32250Y-39300D03*
X31500Y-38750D03*
X29000Y-40750D03*
X48500Y-33250D03*
X48500Y-36250D03*
X44500Y-37250D03*
X41750Y-34000D03*
X30250Y-34250D03*
X42750Y-35000D03*
X30750Y-35250D03*
X42250Y-36750D03*
X42250Y-38750D03*
X28000Y-47250D03*
X39500Y-35500D03*
X49250Y-35500D03*
X30000Y-37000D03*
X29500Y-36750D03*
X29500Y-35500D03*
X28250Y-35250D03*
X28250Y-36750D03*
X28250Y-38250D03*
X28250Y-39750D03*
X28250Y-41500D03*
X29500Y-42500D03*
X29500Y-44500D03*
X29500Y-40250D03*
X46500Y-39500D03*
X32500Y-42500D03*
X38250Y-41500D03*
X38250Y-40000D03*
X43000Y-39000D03*
X44250Y-38750D03*
X45000Y-43500D03*
X43000Y-43500D03*
X48250Y-38000D03*
X36250Y-40000D03*
X36750Y-36500D03*
X36250Y-38000D03*
X36100Y-38000D03*
X32250Y-38700D03*
X30500Y-39000D03*
X47200Y-38000D03*
X34700Y-38000D03*
X32500Y-37250D03*
X32000Y-37250D03*
X47250Y-39500D03*
X44500Y-39250D03*
X43750Y-38750D03*
G54D20*
X29000Y-46000D02*
X29000Y-42000D01*
X30500Y-40500D02*
X30500Y-40045D01*
X29000Y-42000D02*
X30500Y-40500D01*
X38000Y-46000D02*
X38000Y-45250D01*
X42750Y-40500D02*
X42750Y-40045D01*
X42750Y-40500D02*
X42750Y-40500D01*
X38000Y-45250D02*
X42750Y-40500D01*
X42750Y-40045D02*
X42750Y-40250D01*
X42750Y-40250D02*
X42750Y-40045D01*
X30000Y-46000D02*
X30000Y-41250D01*
X30750Y-40500D02*
X30750Y-40045D01*
X30000Y-41250D02*
X30750Y-40500D01*
X39000Y-46000D02*
X39000Y-44750D01*
X43000Y-40750D02*
X43000Y-40045D01*
X39000Y-44750D02*
X43000Y-40750D01*
X31000Y-47000D02*
X30500Y-46500D01*
X31000Y-40500D02*
X31000Y-40045D01*
X30500Y-41000D02*
X31000Y-40500D01*
X30500Y-46500D02*
X30500Y-41000D01*
X40000Y-47000D02*
X39500Y-46500D01*
X43250Y-41000D02*
X43250Y-40045D01*
X39500Y-44750D02*
X43250Y-41000D01*
X39500Y-46500D02*
X39500Y-44750D01*
X31000Y-46000D02*
X31000Y-40750D01*
X31250Y-40500D02*
X31250Y-40045D01*
X31000Y-40750D02*
X31250Y-40500D01*
X40000Y-46000D02*
X40000Y-45000D01*
X43500Y-41500D02*
X43500Y-40045D01*
X40000Y-45000D02*
X43500Y-41500D01*
X32000Y-47000D02*
X31500Y-46500D01*
X31500Y-46500D02*
X31500Y-40045D01*
X41000Y-47000D02*
X40500Y-46500D01*
X43750Y-41750D02*
X43750Y-40045D01*
X40500Y-45000D02*
X43750Y-41750D01*
X40500Y-46500D02*
X40500Y-45000D01*
X32000Y-46000D02*
X32000Y-43000D01*
X31750Y-42750D02*
X31750Y-40045D01*
X32000Y-43000D02*
X31750Y-42750D01*
X41000Y-46000D02*
X41000Y-45000D01*
X44000Y-42000D02*
X44000Y-40045D01*
X41000Y-45000D02*
X44000Y-42000D01*
X33000Y-40045D02*
X33000Y-44750D01*
X32500Y-46500D02*
X33000Y-47000D01*
X32500Y-45250D02*
X32500Y-46500D01*
X33000Y-44750D02*
X32500Y-45250D01*
X41500Y-45500D02*
X41500Y-46500D01*
X41500Y-46500D02*
X42000Y-47000D01*
X45250Y-40045D02*
X45250Y-41750D01*
X41500Y-45500D02*
X45250Y-41750D01*
X33000Y-46000D02*
X33000Y-45750D01*
X33250Y-40750D02*
X33250Y-40045D01*
X33500Y-41000D02*
X33250Y-40750D01*
X33500Y-45250D02*
X33500Y-41000D01*
X33000Y-45750D02*
X33500Y-45250D01*
X42000Y-46000D02*
X45500Y-42500D01*
X45500Y-42500D02*
X45500Y-40045D01*
X35000Y-47000D02*
X34500Y-46500D01*
X33500Y-40750D02*
X33500Y-40045D01*
X33750Y-41000D02*
X33500Y-40750D01*
X33750Y-44000D02*
X33750Y-41000D01*
X34500Y-44750D02*
X33750Y-44000D01*
X34500Y-46500D02*
X34500Y-44750D01*
X44000Y-47000D02*
X43500Y-46500D01*
X45750Y-43250D02*
X45750Y-40045D01*
X43500Y-45500D02*
X45750Y-43250D01*
X43500Y-46500D02*
X43500Y-45500D01*
X35000Y-46000D02*
X35000Y-44500D01*
X33750Y-40750D02*
X33750Y-40045D01*
X34000Y-41000D02*
X33750Y-40750D01*
X34000Y-43500D02*
X34000Y-41000D01*
X35000Y-44500D02*
X34000Y-43500D01*
X44000Y-46000D02*
X46000Y-44000D01*
X46000Y-44000D02*
X46000Y-40045D01*
X41250Y-38500D02*
X41250Y-38000D01*
X41250Y-38500D02*
X39250Y-40500D01*
X40250Y-36200D02*
X41250Y-36200D01*
X41250Y-36200D02*
X41250Y-36250D01*
X45000Y-40500D02*
X45000Y-40045D01*
X44500Y-41000D02*
X45000Y-40500D01*
X45000Y-40045D02*
X45000Y-40000D01*
X45000Y-40000D02*
X45000Y-40045D01*
X32500Y-41000D02*
X32750Y-40750D01*
X32750Y-40045D02*
X32750Y-40750D01*
X32500Y-41200D02*
X32500Y-41000D01*
X34750Y-39500D02*
X34750Y-39550D01*
X31500Y-37955D02*
X31500Y-37500D01*
X31050Y-35950D02*
X31500Y-35950D01*
X31000Y-36000D02*
X31050Y-35950D01*
X31000Y-37000D02*
X31000Y-36000D01*
X31500Y-37500D02*
X31000Y-37000D01*
X31500Y-37955D02*
X31500Y-38750D01*
X32250Y-39300D02*
X32050Y-39300D01*
X32050Y-39300D02*
X31500Y-38750D01*
X32250Y-40045D02*
X32250Y-39300D01*
X44500Y-37955D02*
X44500Y-37250D01*
X29000Y-40750D02*
X29000Y-41500D01*
X48500Y-36250D02*
X48500Y-33250D01*
X32000Y-40045D02*
X32000Y-39500D01*
X28250Y-46250D02*
X29000Y-47000D01*
X28250Y-42250D02*
X28250Y-46250D01*
X30000Y-40500D02*
X29000Y-41500D01*
X29000Y-41500D02*
X28250Y-42250D01*
X30000Y-39500D02*
X30000Y-40500D01*
X30250Y-39500D02*
X30000Y-39500D01*
X32000Y-39500D02*
X30250Y-39500D01*
X30000Y-47000D02*
X30000Y-47250D01*
X30000Y-47250D02*
X30500Y-47750D01*
X30500Y-47750D02*
X37500Y-47750D01*
X37500Y-47750D02*
X37500Y-44500D01*
X37500Y-44500D02*
X42500Y-39500D01*
X42500Y-39500D02*
X44250Y-39500D01*
X44250Y-39500D02*
X44250Y-40045D01*
X30750Y-37955D02*
X30750Y-37250D01*
X41750Y-34000D02*
X41750Y-37250D01*
X30250Y-36750D02*
X30250Y-34250D01*
X30750Y-37250D02*
X30250Y-36750D01*
X37000Y-47000D02*
X36500Y-46500D01*
X43000Y-38500D02*
X43000Y-37955D01*
X36500Y-45000D02*
X43000Y-38500D01*
X36500Y-46500D02*
X36500Y-45000D01*
X43000Y-37955D02*
X43000Y-37500D01*
X41300Y-36800D02*
X41250Y-36800D01*
X41750Y-37250D02*
X41300Y-36800D01*
X42750Y-37250D02*
X41750Y-37250D01*
X43000Y-37500D02*
X42750Y-37250D01*
X31000Y-37955D02*
X31000Y-37250D01*
X42750Y-36750D02*
X42800Y-36800D01*
X42750Y-35000D02*
X42750Y-36750D01*
X30750Y-35500D02*
X30750Y-35250D01*
X30750Y-37000D02*
X30750Y-35500D01*
X31000Y-37250D02*
X30750Y-37000D01*
X36000Y-46000D02*
X36000Y-44750D01*
X42250Y-36750D02*
X42250Y-36800D01*
X42000Y-38750D02*
X42250Y-38750D01*
X36000Y-44750D02*
X42000Y-38750D01*
X43250Y-37955D02*
X43250Y-37250D01*
X42800Y-36800D02*
X42250Y-36800D01*
X43250Y-37250D02*
X42800Y-36800D01*
X27750Y-39700D02*
X29500Y-37950D01*
X27750Y-47000D02*
X27750Y-39700D01*
X28000Y-47250D02*
X27750Y-47000D01*
X30500Y-37955D02*
X30500Y-37500D01*
X29500Y-37500D02*
X29500Y-37950D01*
X30500Y-37500D02*
X29500Y-37500D01*
X45000Y-47000D02*
X45500Y-46500D01*
X39550Y-36800D02*
X40250Y-36800D01*
X39500Y-36750D02*
X39550Y-36800D01*
X39500Y-35500D02*
X39500Y-36750D01*
X49250Y-41500D02*
X49250Y-35500D01*
X45500Y-45250D02*
X49250Y-41500D01*
X45500Y-46500D02*
X45500Y-45250D01*
X42750Y-37955D02*
X42750Y-37500D01*
X40250Y-37000D02*
X40250Y-36800D01*
X40750Y-37500D02*
X40250Y-37000D01*
X42750Y-37500D02*
X40750Y-37500D01*
G54D21*
X29750Y-37000D02*
X30000Y-37000D01*
X29500Y-36750D02*
X29750Y-37000D01*
X28500Y-35500D02*
X29500Y-35500D01*
X28250Y-35250D02*
X28500Y-35500D01*
X28250Y-38250D02*
X28250Y-36750D01*
X28250Y-41500D02*
X28250Y-39750D01*
X29500Y-44500D02*
X29500Y-42500D01*
G54D20*
X29500Y-39000D02*
X30500Y-39000D01*
X29500Y-40250D02*
X29500Y-39000D01*
X44750Y-40045D02*
X44750Y-39500D01*
X44750Y-39500D02*
X46500Y-39500D01*
X43500Y-37955D02*
X43500Y-38500D01*
X43500Y-38500D02*
X43000Y-39000D01*
X32500Y-40045D02*
X32500Y-40750D01*
X32000Y-42500D02*
X32500Y-42500D01*
X32000Y-40750D02*
X32000Y-42500D01*
X32500Y-40750D02*
X32000Y-40750D01*
X32500Y-42500D02*
X32500Y-41800D01*
G54D21*
X38250Y-41500D02*
X38250Y-40000D01*
G54D20*
X44250Y-38750D02*
X43750Y-39250D01*
X43000Y-39250D02*
X43000Y-39000D01*
X43750Y-39250D02*
X43000Y-39250D01*
X44250Y-37955D02*
X44250Y-38750D01*
X43000Y-45500D02*
X43000Y-46000D01*
X45000Y-43500D02*
X43000Y-45500D01*
X44500Y-41800D02*
X44500Y-42000D01*
X44500Y-42000D02*
X43000Y-43500D01*
X47800Y-38000D02*
X48250Y-38000D01*
X45250Y-37955D02*
X45250Y-38500D01*
X47000Y-37000D02*
X47800Y-37000D01*
X46500Y-37500D02*
X47000Y-37000D01*
X46500Y-38500D02*
X46500Y-37500D01*
X45250Y-38500D02*
X46500Y-38500D01*
X46337Y-31750D02*
X46337Y-32837D01*
X47800Y-34300D02*
X47800Y-37000D01*
X47800Y-37000D02*
X47800Y-38000D01*
X46337Y-32837D02*
X47800Y-34300D01*
X33000Y-37955D02*
X33000Y-38500D01*
X34500Y-37000D02*
X36000Y-37000D01*
X34250Y-37250D02*
X34500Y-37000D01*
X34250Y-38500D02*
X34250Y-37250D01*
X33000Y-38500D02*
X34250Y-38500D01*
X36750Y-40000D02*
X36250Y-40000D01*
X36750Y-36500D02*
X36750Y-40000D01*
X35300Y-38000D02*
X36250Y-38000D01*
X35250Y-32163D02*
X34837Y-31750D01*
X35250Y-36250D02*
X35250Y-32163D01*
X36000Y-37000D02*
X35250Y-36250D01*
X36000Y-37900D02*
X36000Y-37000D01*
X36100Y-38000D02*
X36000Y-37900D01*
X32500Y-40045D02*
X32500Y-39750D01*
X32250Y-38700D02*
X32050Y-38500D01*
X32450Y-38700D02*
X32250Y-38700D01*
X32750Y-39000D02*
X32450Y-38700D01*
X32750Y-39500D02*
X32750Y-39000D01*
X32500Y-39500D02*
X32750Y-39500D01*
X32500Y-39750D02*
X32500Y-39500D01*
X32000Y-37955D02*
X32000Y-38500D01*
X32000Y-37955D02*
X32050Y-38005D01*
X31250Y-38500D02*
X31250Y-37955D01*
X30500Y-39000D02*
X31000Y-38500D01*
X31000Y-38500D02*
X31250Y-38500D01*
X44700Y-34750D02*
X44700Y-36000D01*
X44700Y-36000D02*
X44500Y-36200D01*
X44500Y-36200D02*
X45500Y-36200D01*
X43500Y-36200D02*
X44500Y-36200D01*
X44700Y-34750D02*
X44700Y-34287D01*
X44700Y-34287D02*
X42163Y-31750D01*
X42163Y-31750D02*
X44250Y-29663D01*
X44250Y-29663D02*
X46337Y-31750D01*
X30663Y-31750D02*
X32750Y-29663D01*
X32750Y-29663D02*
X34837Y-31750D01*
X32500Y-35950D02*
X33500Y-35950D01*
X32500Y-35950D02*
X32500Y-34950D01*
X32500Y-34950D02*
X32700Y-34750D01*
X30663Y-31750D02*
X30663Y-32713D01*
X30663Y-32713D02*
X32700Y-34750D01*
X43500Y-36800D02*
X43550Y-36800D01*
X44000Y-37250D02*
X44000Y-37955D01*
X43550Y-36800D02*
X44000Y-37250D01*
X46000Y-37955D02*
X46000Y-37250D01*
X46450Y-36800D02*
X46500Y-36800D01*
X46000Y-37250D02*
X46450Y-36800D01*
X45750Y-37955D02*
X45750Y-37250D01*
X45500Y-37000D02*
X45500Y-36800D01*
X45750Y-37250D02*
X45500Y-37000D01*
X45500Y-37955D02*
X45500Y-37500D01*
X44950Y-37250D02*
X44500Y-36800D01*
X45250Y-37250D02*
X44950Y-37250D01*
X45500Y-37500D02*
X45250Y-37250D01*
X45000Y-37955D02*
X45000Y-39000D01*
X47250Y-39000D02*
X47250Y-38950D01*
X45000Y-39000D02*
X47250Y-39000D01*
X47250Y-38050D02*
X47200Y-38000D01*
X47250Y-38950D02*
X47250Y-38050D01*
X34700Y-38000D02*
X34700Y-38550D01*
X32750Y-38750D02*
X32750Y-37955D01*
X34500Y-38750D02*
X32750Y-38750D01*
X34700Y-38550D02*
X34500Y-38750D01*
X34750Y-38050D02*
X34700Y-38000D01*
X34750Y-38950D02*
X34750Y-38050D01*
X33750Y-37955D02*
X33750Y-37250D01*
X34450Y-36550D02*
X34500Y-36550D01*
X33750Y-37250D02*
X34450Y-36550D01*
X33500Y-37955D02*
X33500Y-36550D01*
X33250Y-37955D02*
X33250Y-37250D01*
X32550Y-36550D02*
X32500Y-36550D01*
X33250Y-37250D02*
X32550Y-36550D01*
X32500Y-37955D02*
X32500Y-37250D01*
X31750Y-37955D02*
X31750Y-37500D01*
X31500Y-37250D02*
X31500Y-36550D01*
X31750Y-37500D02*
X31500Y-37250D01*
X44250Y-31750D02*
X44250Y-32200D01*
X44250Y-32200D02*
X46500Y-34450D01*
X46500Y-35050D02*
X46500Y-36200D01*
X45300Y-34750D02*
X45500Y-34750D01*
X45800Y-35050D02*
X46500Y-35050D01*
X45500Y-34750D02*
X45800Y-35050D01*
X32250Y-37955D02*
X32250Y-37500D01*
X32250Y-37500D02*
X32000Y-37250D01*
X34500Y-34450D02*
X34500Y-34000D01*
X32750Y-32250D02*
X32750Y-31750D01*
X34500Y-34000D02*
X32750Y-32250D01*
X34500Y-35050D02*
X34500Y-35950D01*
X33300Y-34750D02*
X33300Y-34800D01*
X33550Y-35050D02*
X34500Y-35050D01*
X33300Y-34800D02*
X33550Y-35050D01*
X47250Y-39500D02*
X47250Y-39550D01*
X44500Y-40045D02*
X44500Y-39250D01*
X43750Y-37955D02*
X43750Y-38500D01*
X43750Y-38500D02*
X43750Y-38750D01*
G54D10*
G36*
X36950Y-38950D02*
X36950Y-28800D01*
X33319Y-28800D01*
X33403Y-28940D01*
X32750Y-29592D01*
X32097Y-28940D01*
X32180Y-28800D01*
X29300Y-28800D01*
X29300Y-32985D01*
X29919Y-33976D01*
X29940Y-33955D01*
X29940Y-32403D01*
X29797Y-32318D01*
X29649Y-31961D01*
X29645Y-31557D01*
X29797Y-31182D01*
X29940Y-31097D01*
X30592Y-31750D01*
X29940Y-32403D01*
X29940Y-33955D01*
X30009Y-33888D01*
X30166Y-33823D01*
X30336Y-33823D01*
X30470Y-33879D01*
X30470Y-32768D01*
X30095Y-32616D01*
X30010Y-32473D01*
X30663Y-31821D01*
X30663Y-31679D01*
X30010Y-31027D01*
X30095Y-30884D01*
X30452Y-30736D01*
X30856Y-30732D01*
X31231Y-30884D01*
X31316Y-31027D01*
X30663Y-31679D01*
X30663Y-31821D01*
X31316Y-32473D01*
X31231Y-32616D01*
X30874Y-32764D01*
X30470Y-32768D01*
X30470Y-33879D01*
X30493Y-33889D01*
X30612Y-34009D01*
X30677Y-34166D01*
X30677Y-34336D01*
X30611Y-34493D01*
X30539Y-34564D01*
X30539Y-34875D01*
X30666Y-34823D01*
X30836Y-34823D01*
X30993Y-34889D01*
X31112Y-35009D01*
X31177Y-35166D01*
X31177Y-35336D01*
X31111Y-35493D01*
X31039Y-35564D01*
X31039Y-35663D01*
X31050Y-35661D01*
X31087Y-35661D01*
X31134Y-35614D01*
X31226Y-35576D01*
X31386Y-35576D01*
X31386Y-32403D01*
X30734Y-31750D01*
X31386Y-31097D01*
X31529Y-31182D01*
X31677Y-31539D01*
X31681Y-31943D01*
X31529Y-32318D01*
X31386Y-32403D01*
X31386Y-35576D01*
X31775Y-35576D01*
X31866Y-35614D01*
X31936Y-35684D01*
X31974Y-35776D01*
X31974Y-36125D01*
X31936Y-36216D01*
X31901Y-36249D01*
X31936Y-36284D01*
X31974Y-36376D01*
X31974Y-36725D01*
X31936Y-36816D01*
X31928Y-36823D01*
X32071Y-36823D01*
X32064Y-36816D01*
X32026Y-36724D01*
X32026Y-36375D01*
X32064Y-36284D01*
X32097Y-36249D01*
X32064Y-36216D01*
X32026Y-36124D01*
X32025Y-36062D01*
X32087Y-36000D01*
X32087Y-35900D01*
X32025Y-35838D01*
X32026Y-35776D01*
X32027Y-35773D01*
X32027Y-30316D01*
X31884Y-30231D01*
X31736Y-29874D01*
X31732Y-29470D01*
X31884Y-29095D01*
X32027Y-29010D01*
X32679Y-29663D01*
X32027Y-30316D01*
X32027Y-35773D01*
X32064Y-35684D01*
X32134Y-35614D01*
X32225Y-35576D01*
X32324Y-35576D01*
X32388Y-35575D01*
X32450Y-35637D01*
X32450Y-35900D01*
X32087Y-35900D01*
X32087Y-36000D01*
X32450Y-36000D01*
X32550Y-36000D01*
X32550Y-35900D01*
X32550Y-35637D01*
X32588Y-35598D01*
X32588Y-35225D01*
X32526Y-35224D01*
X32434Y-35186D01*
X32364Y-35116D01*
X32326Y-35025D01*
X32326Y-34926D01*
X32325Y-34862D01*
X32387Y-34800D01*
X32387Y-34700D01*
X32325Y-34638D01*
X32326Y-34574D01*
X32326Y-34475D01*
X32364Y-34384D01*
X32434Y-34314D01*
X32526Y-34276D01*
X32588Y-34275D01*
X32650Y-34337D01*
X32650Y-34700D01*
X32387Y-34700D01*
X32387Y-34800D01*
X32650Y-34800D01*
X32650Y-35163D01*
X32588Y-35225D01*
X32588Y-35598D01*
X32612Y-35575D01*
X32676Y-35576D01*
X32775Y-35576D01*
X32866Y-35614D01*
X32936Y-35684D01*
X32974Y-35776D01*
X32975Y-35838D01*
X32913Y-35900D01*
X32550Y-35900D01*
X32550Y-36000D01*
X32913Y-36000D01*
X32975Y-36062D01*
X32974Y-36124D01*
X32936Y-36216D01*
X32901Y-36249D01*
X32936Y-36284D01*
X32974Y-36376D01*
X32974Y-36565D01*
X33026Y-36617D01*
X33026Y-36375D01*
X33064Y-36284D01*
X33097Y-36249D01*
X33064Y-36216D01*
X33026Y-36124D01*
X33025Y-36062D01*
X33087Y-36000D01*
X33087Y-35900D01*
X33025Y-35838D01*
X33026Y-35776D01*
X33064Y-35684D01*
X33134Y-35614D01*
X33225Y-35576D01*
X33324Y-35576D01*
X33388Y-35575D01*
X33450Y-35637D01*
X33450Y-35900D01*
X33087Y-35900D01*
X33087Y-36000D01*
X33450Y-36000D01*
X33550Y-36000D01*
X33550Y-35900D01*
X33550Y-35637D01*
X33612Y-35575D01*
X33676Y-35576D01*
X33775Y-35576D01*
X33866Y-35614D01*
X33936Y-35684D01*
X33974Y-35776D01*
X33975Y-35838D01*
X33913Y-35900D01*
X33550Y-35900D01*
X33550Y-36000D01*
X33913Y-36000D01*
X33975Y-36062D01*
X33974Y-36124D01*
X33936Y-36216D01*
X33901Y-36249D01*
X33936Y-36284D01*
X33974Y-36376D01*
X33974Y-36617D01*
X34026Y-36565D01*
X34026Y-36375D01*
X34064Y-36284D01*
X34097Y-36249D01*
X34064Y-36216D01*
X34026Y-36124D01*
X34026Y-35775D01*
X34064Y-35684D01*
X34134Y-35614D01*
X34211Y-35582D01*
X34211Y-35418D01*
X34134Y-35386D01*
X34087Y-35339D01*
X33550Y-35339D01*
X33439Y-35317D01*
X33345Y-35254D01*
X33315Y-35224D01*
X33125Y-35224D01*
X33034Y-35186D01*
X32999Y-35151D01*
X32966Y-35186D01*
X32874Y-35224D01*
X32812Y-35225D01*
X32750Y-35163D01*
X32750Y-34800D01*
X32750Y-34700D01*
X32750Y-34337D01*
X32812Y-34275D01*
X32874Y-34276D01*
X32966Y-34314D01*
X32999Y-34347D01*
X33034Y-34314D01*
X33126Y-34276D01*
X33475Y-34276D01*
X33566Y-34314D01*
X33636Y-34384D01*
X33674Y-34476D01*
X33674Y-34761D01*
X34086Y-34761D01*
X34097Y-34749D01*
X34064Y-34716D01*
X34026Y-34624D01*
X34026Y-34275D01*
X34064Y-34184D01*
X34134Y-34114D01*
X34184Y-34093D01*
X32546Y-32454D01*
X32483Y-32361D01*
X32477Y-32332D01*
X32385Y-32294D01*
X32205Y-32113D01*
X32107Y-31877D01*
X32107Y-31621D01*
X32206Y-31385D01*
X32387Y-31205D01*
X32557Y-31134D01*
X32557Y-30681D01*
X32182Y-30529D01*
X32097Y-30386D01*
X32750Y-29734D01*
X33403Y-30386D01*
X33318Y-30529D01*
X32961Y-30677D01*
X32557Y-30681D01*
X32557Y-31134D01*
X32623Y-31107D01*
X32879Y-31107D01*
X33115Y-31206D01*
X33295Y-31387D01*
X33393Y-31623D01*
X33393Y-31879D01*
X33294Y-32115D01*
X33158Y-32250D01*
X33473Y-32564D01*
X33473Y-30316D01*
X32821Y-29663D01*
X33473Y-29010D01*
X33616Y-29095D01*
X33764Y-29452D01*
X33768Y-29856D01*
X33616Y-30231D01*
X33473Y-30316D01*
X33473Y-32564D01*
X34114Y-33205D01*
X34114Y-32403D01*
X33971Y-32318D01*
X33823Y-31961D01*
X33819Y-31557D01*
X33971Y-31182D01*
X34114Y-31097D01*
X34766Y-31750D01*
X34114Y-32403D01*
X34114Y-33205D01*
X34644Y-33735D01*
X34644Y-32768D01*
X34269Y-32616D01*
X34184Y-32473D01*
X34837Y-31821D01*
X34837Y-31679D01*
X34184Y-31027D01*
X34269Y-30884D01*
X34626Y-30736D01*
X35030Y-30732D01*
X35405Y-30884D01*
X35490Y-31027D01*
X34837Y-31679D01*
X34837Y-31821D01*
X35490Y-32473D01*
X35405Y-32616D01*
X35048Y-32764D01*
X34644Y-32768D01*
X34644Y-33735D01*
X34704Y-33795D01*
X34767Y-33889D01*
X34789Y-34000D01*
X34789Y-34081D01*
X34866Y-34114D01*
X34936Y-34184D01*
X34974Y-34276D01*
X34974Y-34625D01*
X34936Y-34716D01*
X34901Y-34749D01*
X34936Y-34784D01*
X34974Y-34876D01*
X34974Y-35225D01*
X34936Y-35316D01*
X34866Y-35386D01*
X34789Y-35417D01*
X34789Y-35581D01*
X34866Y-35614D01*
X34936Y-35684D01*
X34974Y-35776D01*
X34974Y-36125D01*
X34936Y-36216D01*
X34901Y-36249D01*
X34936Y-36284D01*
X34974Y-36376D01*
X34974Y-36725D01*
X34936Y-36816D01*
X34866Y-36886D01*
X34774Y-36924D01*
X34484Y-36924D01*
X34039Y-37369D01*
X34039Y-37518D01*
X34069Y-37591D01*
X34069Y-38320D01*
X34031Y-38411D01*
X33980Y-38460D01*
X34380Y-38460D01*
X34411Y-38430D01*
X34411Y-38413D01*
X34364Y-38366D01*
X34326Y-38274D01*
X34326Y-38212D01*
X34273Y-38084D01*
X34273Y-37914D01*
X34326Y-37787D01*
X34326Y-37725D01*
X34364Y-37634D01*
X34434Y-37564D01*
X34526Y-37526D01*
X34875Y-37526D01*
X34966Y-37564D01*
X34999Y-37597D01*
X35034Y-37564D01*
X35126Y-37526D01*
X35188Y-37525D01*
X35250Y-37587D01*
X35250Y-37950D01*
X35250Y-38050D01*
X35250Y-38413D01*
X35188Y-38475D01*
X35126Y-38474D01*
X35039Y-38438D01*
X35039Y-38581D01*
X35116Y-38614D01*
X35186Y-38684D01*
X35224Y-38776D01*
X35224Y-38950D01*
X35412Y-38950D01*
X35412Y-38475D01*
X35350Y-38413D01*
X35350Y-38050D01*
X35350Y-37950D01*
X35350Y-37587D01*
X35412Y-37525D01*
X35474Y-37526D01*
X35560Y-37561D01*
X35560Y-32403D01*
X34908Y-31750D01*
X35560Y-31097D01*
X35703Y-31182D01*
X35851Y-31539D01*
X35855Y-31943D01*
X35703Y-32318D01*
X35560Y-32403D01*
X35560Y-37561D01*
X35566Y-37564D01*
X35636Y-37634D01*
X35674Y-37725D01*
X35674Y-37824D01*
X35675Y-37888D01*
X35613Y-37950D01*
X35350Y-37950D01*
X35350Y-38050D01*
X35613Y-38050D01*
X35675Y-38112D01*
X35674Y-38176D01*
X35674Y-38275D01*
X35636Y-38366D01*
X35566Y-38436D01*
X35474Y-38474D01*
X35412Y-38475D01*
X35412Y-38950D01*
X36950Y-38950D01*
X36950Y-38950D01*
G37*
G54D22*
X36950Y-38950D02*
X36950Y-28800D01*
X33319Y-28800D01*
X33403Y-28940D01*
X32750Y-29592D01*
X32097Y-28940D01*
X32180Y-28800D01*
X29300Y-28800D01*
X29300Y-32985D01*
X29919Y-33976D01*
X29940Y-33955D01*
X29940Y-32403D01*
X29797Y-32318D01*
X29649Y-31961D01*
X29645Y-31557D01*
X29797Y-31182D01*
X29940Y-31097D01*
X30592Y-31750D01*
X29940Y-32403D01*
X29940Y-33955D01*
X30009Y-33888D01*
X30166Y-33823D01*
X30336Y-33823D01*
X30470Y-33879D01*
X30470Y-32768D01*
X30095Y-32616D01*
X30010Y-32473D01*
X30663Y-31821D01*
X30663Y-31679D01*
X30010Y-31027D01*
X30095Y-30884D01*
X30452Y-30736D01*
X30856Y-30732D01*
X31231Y-30884D01*
X31316Y-31027D01*
X30663Y-31679D01*
X30663Y-31821D01*
X31316Y-32473D01*
X31231Y-32616D01*
X30874Y-32764D01*
X30470Y-32768D01*
X30470Y-33879D01*
X30493Y-33889D01*
X30612Y-34009D01*
X30677Y-34166D01*
X30677Y-34336D01*
X30611Y-34493D01*
X30539Y-34564D01*
X30539Y-34875D01*
X30666Y-34823D01*
X30836Y-34823D01*
X30993Y-34889D01*
X31112Y-35009D01*
X31177Y-35166D01*
X31177Y-35336D01*
X31111Y-35493D01*
X31039Y-35564D01*
X31039Y-35663D01*
X31050Y-35661D01*
X31087Y-35661D01*
X31134Y-35614D01*
X31226Y-35576D01*
X31386Y-35576D01*
X31386Y-32403D01*
X30734Y-31750D01*
X31386Y-31097D01*
X31529Y-31182D01*
X31677Y-31539D01*
X31681Y-31943D01*
X31529Y-32318D01*
X31386Y-32403D01*
X31386Y-35576D01*
X31775Y-35576D01*
X31866Y-35614D01*
X31936Y-35684D01*
X31974Y-35776D01*
X31974Y-36125D01*
X31936Y-36216D01*
X31901Y-36249D01*
X31936Y-36284D01*
X31974Y-36376D01*
X31974Y-36725D01*
X31936Y-36816D01*
X31928Y-36823D01*
X32071Y-36823D01*
X32064Y-36816D01*
X32026Y-36724D01*
X32026Y-36375D01*
X32064Y-36284D01*
X32097Y-36249D01*
X32064Y-36216D01*
X32026Y-36124D01*
X32025Y-36062D01*
X32087Y-36000D01*
X32087Y-35900D01*
X32025Y-35838D01*
X32026Y-35776D01*
X32027Y-35773D01*
X32027Y-30316D01*
X31884Y-30231D01*
X31736Y-29874D01*
X31732Y-29470D01*
X31884Y-29095D01*
X32027Y-29010D01*
X32679Y-29663D01*
X32027Y-30316D01*
X32027Y-35773D01*
X32064Y-35684D01*
X32134Y-35614D01*
X32225Y-35576D01*
X32324Y-35576D01*
X32388Y-35575D01*
X32450Y-35637D01*
X32450Y-35900D01*
X32087Y-35900D01*
X32087Y-36000D01*
X32450Y-36000D01*
X32550Y-36000D01*
X32550Y-35900D01*
X32550Y-35637D01*
X32588Y-35598D01*
X32588Y-35225D01*
X32526Y-35224D01*
X32434Y-35186D01*
X32364Y-35116D01*
X32326Y-35025D01*
X32326Y-34926D01*
X32325Y-34862D01*
X32387Y-34800D01*
X32387Y-34700D01*
X32325Y-34638D01*
X32326Y-34574D01*
X32326Y-34475D01*
X32364Y-34384D01*
X32434Y-34314D01*
X32526Y-34276D01*
X32588Y-34275D01*
X32650Y-34337D01*
X32650Y-34700D01*
X32387Y-34700D01*
X32387Y-34800D01*
X32650Y-34800D01*
X32650Y-35163D01*
X32588Y-35225D01*
X32588Y-35598D01*
X32612Y-35575D01*
X32676Y-35576D01*
X32775Y-35576D01*
X32866Y-35614D01*
X32936Y-35684D01*
X32974Y-35776D01*
X32975Y-35838D01*
X32913Y-35900D01*
X32550Y-35900D01*
X32550Y-36000D01*
X32913Y-36000D01*
X32975Y-36062D01*
X32974Y-36124D01*
X32936Y-36216D01*
X32901Y-36249D01*
X32936Y-36284D01*
X32974Y-36376D01*
X32974Y-36565D01*
X33026Y-36617D01*
X33026Y-36375D01*
X33064Y-36284D01*
X33097Y-36249D01*
X33064Y-36216D01*
X33026Y-36124D01*
X33025Y-36062D01*
X33087Y-36000D01*
X33087Y-35900D01*
X33025Y-35838D01*
X33026Y-35776D01*
X33064Y-35684D01*
X33134Y-35614D01*
X33225Y-35576D01*
X33324Y-35576D01*
X33388Y-35575D01*
X33450Y-35637D01*
X33450Y-35900D01*
X33087Y-35900D01*
X33087Y-36000D01*
X33450Y-36000D01*
X33550Y-36000D01*
X33550Y-35900D01*
X33550Y-35637D01*
X33612Y-35575D01*
X33676Y-35576D01*
X33775Y-35576D01*
X33866Y-35614D01*
X33936Y-35684D01*
X33974Y-35776D01*
X33975Y-35838D01*
X33913Y-35900D01*
X33550Y-35900D01*
X33550Y-36000D01*
X33913Y-36000D01*
X33975Y-36062D01*
X33974Y-36124D01*
X33936Y-36216D01*
X33901Y-36249D01*
X33936Y-36284D01*
X33974Y-36376D01*
X33974Y-36617D01*
X34026Y-36565D01*
X34026Y-36375D01*
X34064Y-36284D01*
X34097Y-36249D01*
X34064Y-36216D01*
X34026Y-36124D01*
X34026Y-35775D01*
X34064Y-35684D01*
X34134Y-35614D01*
X34211Y-35582D01*
X34211Y-35418D01*
X34134Y-35386D01*
X34087Y-35339D01*
X33550Y-35339D01*
X33439Y-35317D01*
X33345Y-35254D01*
X33315Y-35224D01*
X33125Y-35224D01*
X33034Y-35186D01*
X32999Y-35151D01*
X32966Y-35186D01*
X32874Y-35224D01*
X32812Y-35225D01*
X32750Y-35163D01*
X32750Y-34800D01*
X32750Y-34700D01*
X32750Y-34337D01*
X32812Y-34275D01*
X32874Y-34276D01*
X32966Y-34314D01*
X32999Y-34347D01*
X33034Y-34314D01*
X33126Y-34276D01*
X33475Y-34276D01*
X33566Y-34314D01*
X33636Y-34384D01*
X33674Y-34476D01*
X33674Y-34761D01*
X34086Y-34761D01*
X34097Y-34749D01*
X34064Y-34716D01*
X34026Y-34624D01*
X34026Y-34275D01*
X34064Y-34184D01*
X34134Y-34114D01*
X34184Y-34093D01*
X32546Y-32454D01*
X32483Y-32361D01*
X32477Y-32332D01*
X32385Y-32294D01*
X32205Y-32113D01*
X32107Y-31877D01*
X32107Y-31621D01*
X32206Y-31385D01*
X32387Y-31205D01*
X32557Y-31134D01*
X32557Y-30681D01*
X32182Y-30529D01*
X32097Y-30386D01*
X32750Y-29734D01*
X33403Y-30386D01*
X33318Y-30529D01*
X32961Y-30677D01*
X32557Y-30681D01*
X32557Y-31134D01*
X32623Y-31107D01*
X32879Y-31107D01*
X33115Y-31206D01*
X33295Y-31387D01*
X33393Y-31623D01*
X33393Y-31879D01*
X33294Y-32115D01*
X33158Y-32250D01*
X33473Y-32564D01*
X33473Y-30316D01*
X32821Y-29663D01*
X33473Y-29010D01*
X33616Y-29095D01*
X33764Y-29452D01*
X33768Y-29856D01*
X33616Y-30231D01*
X33473Y-30316D01*
X33473Y-32564D01*
X34114Y-33205D01*
X34114Y-32403D01*
X33971Y-32318D01*
X33823Y-31961D01*
X33819Y-31557D01*
X33971Y-31182D01*
X34114Y-31097D01*
X34766Y-31750D01*
X34114Y-32403D01*
X34114Y-33205D01*
X34644Y-33735D01*
X34644Y-32768D01*
X34269Y-32616D01*
X34184Y-32473D01*
X34837Y-31821D01*
X34837Y-31679D01*
X34184Y-31027D01*
X34269Y-30884D01*
X34626Y-30736D01*
X35030Y-30732D01*
X35405Y-30884D01*
X35490Y-31027D01*
X34837Y-31679D01*
X34837Y-31821D01*
X35490Y-32473D01*
X35405Y-32616D01*
X35048Y-32764D01*
X34644Y-32768D01*
X34644Y-33735D01*
X34704Y-33795D01*
X34767Y-33889D01*
X34789Y-34000D01*
X34789Y-34081D01*
X34866Y-34114D01*
X34936Y-34184D01*
X34974Y-34276D01*
X34974Y-34625D01*
X34936Y-34716D01*
X34901Y-34749D01*
X34936Y-34784D01*
X34974Y-34876D01*
X34974Y-35225D01*
X34936Y-35316D01*
X34866Y-35386D01*
X34789Y-35417D01*
X34789Y-35581D01*
X34866Y-35614D01*
X34936Y-35684D01*
X34974Y-35776D01*
X34974Y-36125D01*
X34936Y-36216D01*
X34901Y-36249D01*
X34936Y-36284D01*
X34974Y-36376D01*
X34974Y-36725D01*
X34936Y-36816D01*
X34866Y-36886D01*
X34774Y-36924D01*
X34484Y-36924D01*
X34039Y-37369D01*
X34039Y-37518D01*
X34069Y-37591D01*
X34069Y-38320D01*
X34031Y-38411D01*
X33980Y-38460D01*
X34380Y-38460D01*
X34411Y-38430D01*
X34411Y-38413D01*
X34364Y-38366D01*
X34326Y-38274D01*
X34326Y-38212D01*
X34273Y-38084D01*
X34273Y-37914D01*
X34326Y-37787D01*
X34326Y-37725D01*
X34364Y-37634D01*
X34434Y-37564D01*
X34526Y-37526D01*
X34875Y-37526D01*
X34966Y-37564D01*
X34999Y-37597D01*
X35034Y-37564D01*
X35126Y-37526D01*
X35188Y-37525D01*
X35250Y-37587D01*
X35250Y-37950D01*
X35250Y-38050D01*
X35250Y-38413D01*
X35188Y-38475D01*
X35126Y-38474D01*
X35039Y-38438D01*
X35039Y-38581D01*
X35116Y-38614D01*
X35186Y-38684D01*
X35224Y-38776D01*
X35224Y-38950D01*
X35412Y-38950D01*
X35412Y-38475D01*
X35350Y-38413D01*
X35350Y-38050D01*
X35350Y-37950D01*
X35350Y-37587D01*
X35412Y-37525D01*
X35474Y-37526D01*
X35560Y-37561D01*
X35560Y-32403D01*
X34908Y-31750D01*
X35560Y-31097D01*
X35703Y-31182D01*
X35851Y-31539D01*
X35855Y-31943D01*
X35703Y-32318D01*
X35560Y-32403D01*
X35560Y-37561D01*
X35566Y-37564D01*
X35636Y-37634D01*
X35674Y-37725D01*
X35674Y-37824D01*
X35675Y-37888D01*
X35613Y-37950D01*
X35350Y-37950D01*
X35350Y-38050D01*
X35613Y-38050D01*
X35675Y-38112D01*
X35674Y-38176D01*
X35674Y-38275D01*
X35636Y-38366D01*
X35566Y-38436D01*
X35474Y-38474D01*
X35412Y-38475D01*
X35412Y-38950D01*
X36950Y-38950D01*
G54D10*
G36*
X27300Y-47950D02*
X30291Y-47949D01*
X29891Y-47549D01*
X29689Y-47465D01*
X29549Y-47325D01*
X29549Y-47350D01*
X29511Y-47441D01*
X29441Y-47511D01*
X29349Y-47549D01*
X28650Y-47549D01*
X28559Y-47511D01*
X28489Y-47441D01*
X28451Y-47349D01*
X28451Y-46859D01*
X28046Y-46454D01*
X28039Y-46443D01*
X28039Y-46823D01*
X28086Y-46823D01*
X28243Y-46889D01*
X28362Y-47009D01*
X28427Y-47166D01*
X28427Y-47336D01*
X28361Y-47493D01*
X28241Y-47612D01*
X28084Y-47677D01*
X27914Y-47677D01*
X27757Y-47611D01*
X27638Y-47491D01*
X27573Y-47334D01*
X27573Y-47231D01*
X27546Y-47204D01*
X27483Y-47111D01*
X27461Y-47000D01*
X27461Y-39700D01*
X27483Y-39589D01*
X27546Y-39496D01*
X29026Y-38015D01*
X29026Y-37775D01*
X29064Y-37684D01*
X29134Y-37614D01*
X29211Y-37582D01*
X29211Y-37500D01*
X29233Y-37389D01*
X29296Y-37296D01*
X29389Y-37233D01*
X29500Y-37211D01*
X30302Y-37211D01*
X30046Y-36954D01*
X29983Y-36861D01*
X29961Y-36750D01*
X29961Y-35063D01*
X28700Y-33014D01*
X28700Y-28800D01*
X27300Y-28800D01*
X27300Y-47950D01*
X27300Y-47950D01*
G37*
G54D22*
X27300Y-47950D02*
X30291Y-47949D01*
X29891Y-47549D01*
X29689Y-47465D01*
X29549Y-47325D01*
X29549Y-47350D01*
X29511Y-47441D01*
X29441Y-47511D01*
X29349Y-47549D01*
X28650Y-47549D01*
X28559Y-47511D01*
X28489Y-47441D01*
X28451Y-47349D01*
X28451Y-46859D01*
X28046Y-46454D01*
X28039Y-46443D01*
X28039Y-46823D01*
X28086Y-46823D01*
X28243Y-46889D01*
X28362Y-47009D01*
X28427Y-47166D01*
X28427Y-47336D01*
X28361Y-47493D01*
X28241Y-47612D01*
X28084Y-47677D01*
X27914Y-47677D01*
X27757Y-47611D01*
X27638Y-47491D01*
X27573Y-47334D01*
X27573Y-47231D01*
X27546Y-47204D01*
X27483Y-47111D01*
X27461Y-47000D01*
X27461Y-39700D01*
X27483Y-39589D01*
X27546Y-39496D01*
X29026Y-38015D01*
X29026Y-37775D01*
X29064Y-37684D01*
X29134Y-37614D01*
X29211Y-37582D01*
X29211Y-37500D01*
X29233Y-37389D01*
X29296Y-37296D01*
X29389Y-37233D01*
X29500Y-37211D01*
X30302Y-37211D01*
X30046Y-36954D01*
X29983Y-36861D01*
X29961Y-36750D01*
X29961Y-35063D01*
X28700Y-33014D01*
X28700Y-28800D01*
X27300Y-28800D01*
X27300Y-47950D01*
G54D10*
G36*
X42500Y-46773D02*
X42535Y-46689D01*
X42689Y-46535D01*
X42784Y-46495D01*
X42719Y-46472D01*
X42692Y-46378D01*
X43000Y-46071D01*
X43071Y-46000D01*
X43211Y-46140D01*
X43211Y-46140D01*
X43071Y-46000D01*
X43000Y-45929D01*
X43211Y-45718D01*
X43211Y-45718D01*
X43000Y-45929D01*
X42928Y-45999D01*
X42622Y-46308D01*
X42528Y-46281D01*
X42502Y-46219D01*
X42465Y-46311D01*
X42311Y-46465D01*
X42226Y-46500D01*
X42311Y-46535D01*
X42465Y-46689D01*
X42500Y-46773D01*
X42500Y-46773D01*
G37*
G54D22*
X42500Y-46773D02*
X42535Y-46689D01*
X42689Y-46535D01*
X42784Y-46495D01*
X42719Y-46472D01*
X42692Y-46378D01*
X43000Y-46071D01*
X43071Y-46000D01*
X43211Y-46140D01*
X43211Y-46140D01*
X43071Y-46000D01*
X43000Y-45929D01*
X43211Y-45718D01*
X43211Y-45718D01*
X43000Y-45929D01*
X42928Y-45999D01*
X42622Y-46308D01*
X42528Y-46281D01*
X42502Y-46219D01*
X42465Y-46311D01*
X42311Y-46465D01*
X42226Y-46500D01*
X42311Y-46535D01*
X42465Y-46689D01*
X42500Y-46773D01*
G54D10*
G36*
X33500Y-46773D02*
X33535Y-46689D01*
X33689Y-46535D01*
X33784Y-46495D01*
X33719Y-46472D01*
X33692Y-46378D01*
X34000Y-46071D01*
X34211Y-46281D01*
X34211Y-46140D01*
X34071Y-46000D01*
X34211Y-45859D01*
X34211Y-45718D01*
X34000Y-45929D01*
X33692Y-45622D01*
X33719Y-45528D01*
X33866Y-45468D01*
X34079Y-45457D01*
X34211Y-45503D01*
X34211Y-44869D01*
X33789Y-44447D01*
X33789Y-45250D01*
X33767Y-45361D01*
X33704Y-45454D01*
X33466Y-45691D01*
X33504Y-45784D01*
X33528Y-45719D01*
X33622Y-45692D01*
X33929Y-46000D01*
X33622Y-46308D01*
X33528Y-46281D01*
X33502Y-46219D01*
X33465Y-46311D01*
X33311Y-46465D01*
X33226Y-46500D01*
X33311Y-46535D01*
X33465Y-46689D01*
X33500Y-46773D01*
X33500Y-46773D01*
G37*
G54D22*
X33500Y-46773D02*
X33535Y-46689D01*
X33689Y-46535D01*
X33784Y-46495D01*
X33719Y-46472D01*
X33692Y-46378D01*
X34000Y-46071D01*
X34211Y-46281D01*
X34211Y-46140D01*
X34071Y-46000D01*
X34211Y-45859D01*
X34211Y-45718D01*
X34000Y-45929D01*
X33692Y-45622D01*
X33719Y-45528D01*
X33866Y-45468D01*
X34079Y-45457D01*
X34211Y-45503D01*
X34211Y-44869D01*
X33789Y-44447D01*
X33789Y-45250D01*
X33767Y-45361D01*
X33704Y-45454D01*
X33466Y-45691D01*
X33504Y-45784D01*
X33528Y-45719D01*
X33622Y-45692D01*
X33929Y-46000D01*
X33622Y-46308D01*
X33528Y-46281D01*
X33502Y-46219D01*
X33465Y-46311D01*
X33311Y-46465D01*
X33226Y-46500D01*
X33311Y-46535D01*
X33465Y-46689D01*
X33500Y-46773D01*
G54D10*
G36*
X35500Y-45773D02*
X35535Y-45689D01*
X35689Y-45535D01*
X35711Y-45525D01*
X35711Y-44750D01*
X35733Y-44639D01*
X35796Y-44546D01*
X38121Y-42220D01*
X38121Y-38893D01*
X37885Y-38794D01*
X37705Y-38613D01*
X37607Y-38377D01*
X37607Y-38121D01*
X37706Y-37885D01*
X37887Y-37705D01*
X38121Y-37607D01*
X38121Y-36893D01*
X37885Y-36794D01*
X37705Y-36613D01*
X37607Y-36377D01*
X37607Y-36121D01*
X37706Y-35885D01*
X37887Y-35705D01*
X38123Y-35607D01*
X38379Y-35607D01*
X38615Y-35706D01*
X38795Y-35887D01*
X38893Y-36123D01*
X38893Y-36379D01*
X38794Y-36615D01*
X38613Y-36795D01*
X38377Y-36893D01*
X38121Y-36893D01*
X38121Y-37607D01*
X38379Y-37607D01*
X38615Y-37706D01*
X38795Y-37887D01*
X38893Y-38123D01*
X38893Y-38379D01*
X38794Y-38615D01*
X38613Y-38795D01*
X38377Y-38893D01*
X38121Y-38893D01*
X38121Y-42220D01*
X39471Y-40870D01*
X39334Y-40927D01*
X39164Y-40927D01*
X39007Y-40861D01*
X38888Y-40741D01*
X38823Y-40584D01*
X38823Y-40414D01*
X38889Y-40257D01*
X39009Y-40138D01*
X39166Y-40073D01*
X39268Y-40072D01*
X40961Y-38380D01*
X40961Y-38314D01*
X40888Y-38241D01*
X40823Y-38084D01*
X40823Y-37914D01*
X40875Y-37789D01*
X40750Y-37789D01*
X40639Y-37767D01*
X40545Y-37703D01*
X40046Y-37204D01*
X40025Y-37174D01*
X39975Y-37174D01*
X39884Y-37136D01*
X39837Y-37089D01*
X39550Y-37089D01*
X39439Y-37067D01*
X39345Y-37004D01*
X39296Y-36954D01*
X39233Y-36861D01*
X39211Y-36750D01*
X39211Y-35814D01*
X39138Y-35741D01*
X39073Y-35584D01*
X39073Y-35414D01*
X39139Y-35257D01*
X39259Y-35138D01*
X39416Y-35073D01*
X39586Y-35073D01*
X39743Y-35139D01*
X39862Y-35259D01*
X39927Y-35416D01*
X39927Y-35586D01*
X39861Y-35743D01*
X39789Y-35814D01*
X39789Y-35993D01*
X39814Y-35934D01*
X39884Y-35864D01*
X39976Y-35826D01*
X40525Y-35826D01*
X40616Y-35864D01*
X40662Y-35911D01*
X40837Y-35911D01*
X40884Y-35864D01*
X40976Y-35826D01*
X41158Y-35826D01*
X41166Y-35823D01*
X41336Y-35823D01*
X41343Y-35826D01*
X41461Y-35826D01*
X41461Y-35281D01*
X40200Y-33516D01*
X40200Y-28800D01*
X37550Y-28800D01*
X37550Y-39550D01*
X35224Y-39550D01*
X35224Y-39725D01*
X35186Y-39816D01*
X35116Y-39886D01*
X35024Y-39924D01*
X34841Y-39924D01*
X34834Y-39927D01*
X34664Y-39927D01*
X34656Y-39924D01*
X34475Y-39924D01*
X34384Y-39886D01*
X34314Y-39816D01*
X34276Y-39724D01*
X34276Y-39550D01*
X33991Y-39550D01*
X34031Y-39589D01*
X34069Y-39681D01*
X34069Y-40410D01*
X34039Y-40481D01*
X34039Y-40630D01*
X34204Y-40795D01*
X34267Y-40889D01*
X34289Y-41000D01*
X34289Y-43380D01*
X35204Y-44295D01*
X35235Y-44342D01*
X35267Y-44389D01*
X35289Y-44500D01*
X35289Y-45525D01*
X35311Y-45535D01*
X35465Y-45689D01*
X35500Y-45773D01*
X35500Y-45773D01*
G37*
G54D22*
X35500Y-45773D02*
X35535Y-45689D01*
X35689Y-45535D01*
X35711Y-45525D01*
X35711Y-44750D01*
X35733Y-44639D01*
X35796Y-44546D01*
X38121Y-42220D01*
X38121Y-38893D01*
X37885Y-38794D01*
X37705Y-38613D01*
X37607Y-38377D01*
X37607Y-38121D01*
X37706Y-37885D01*
X37887Y-37705D01*
X38121Y-37607D01*
X38121Y-36893D01*
X37885Y-36794D01*
X37705Y-36613D01*
X37607Y-36377D01*
X37607Y-36121D01*
X37706Y-35885D01*
X37887Y-35705D01*
X38123Y-35607D01*
X38379Y-35607D01*
X38615Y-35706D01*
X38795Y-35887D01*
X38893Y-36123D01*
X38893Y-36379D01*
X38794Y-36615D01*
X38613Y-36795D01*
X38377Y-36893D01*
X38121Y-36893D01*
X38121Y-37607D01*
X38379Y-37607D01*
X38615Y-37706D01*
X38795Y-37887D01*
X38893Y-38123D01*
X38893Y-38379D01*
X38794Y-38615D01*
X38613Y-38795D01*
X38377Y-38893D01*
X38121Y-38893D01*
X38121Y-42220D01*
X39471Y-40870D01*
X39334Y-40927D01*
X39164Y-40927D01*
X39007Y-40861D01*
X38888Y-40741D01*
X38823Y-40584D01*
X38823Y-40414D01*
X38889Y-40257D01*
X39009Y-40138D01*
X39166Y-40073D01*
X39268Y-40072D01*
X40961Y-38380D01*
X40961Y-38314D01*
X40888Y-38241D01*
X40823Y-38084D01*
X40823Y-37914D01*
X40875Y-37789D01*
X40750Y-37789D01*
X40639Y-37767D01*
X40545Y-37703D01*
X40046Y-37204D01*
X40025Y-37174D01*
X39975Y-37174D01*
X39884Y-37136D01*
X39837Y-37089D01*
X39550Y-37089D01*
X39439Y-37067D01*
X39345Y-37004D01*
X39296Y-36954D01*
X39233Y-36861D01*
X39211Y-36750D01*
X39211Y-35814D01*
X39138Y-35741D01*
X39073Y-35584D01*
X39073Y-35414D01*
X39139Y-35257D01*
X39259Y-35138D01*
X39416Y-35073D01*
X39586Y-35073D01*
X39743Y-35139D01*
X39862Y-35259D01*
X39927Y-35416D01*
X39927Y-35586D01*
X39861Y-35743D01*
X39789Y-35814D01*
X39789Y-35993D01*
X39814Y-35934D01*
X39884Y-35864D01*
X39976Y-35826D01*
X40525Y-35826D01*
X40616Y-35864D01*
X40662Y-35911D01*
X40837Y-35911D01*
X40884Y-35864D01*
X40976Y-35826D01*
X41158Y-35826D01*
X41166Y-35823D01*
X41336Y-35823D01*
X41343Y-35826D01*
X41461Y-35826D01*
X41461Y-35281D01*
X40200Y-33516D01*
X40200Y-28800D01*
X37550Y-28800D01*
X37550Y-39550D01*
X35224Y-39550D01*
X35224Y-39725D01*
X35186Y-39816D01*
X35116Y-39886D01*
X35024Y-39924D01*
X34841Y-39924D01*
X34834Y-39927D01*
X34664Y-39927D01*
X34656Y-39924D01*
X34475Y-39924D01*
X34384Y-39886D01*
X34314Y-39816D01*
X34276Y-39724D01*
X34276Y-39550D01*
X33991Y-39550D01*
X34031Y-39589D01*
X34069Y-39681D01*
X34069Y-40410D01*
X34039Y-40481D01*
X34039Y-40630D01*
X34204Y-40795D01*
X34267Y-40889D01*
X34289Y-41000D01*
X34289Y-43380D01*
X35204Y-44295D01*
X35235Y-44342D01*
X35267Y-44389D01*
X35289Y-44500D01*
X35289Y-45525D01*
X35311Y-45535D01*
X35465Y-45689D01*
X35500Y-45773D01*
G54D10*
G36*
X29500Y-45773D02*
X29535Y-45689D01*
X29689Y-45535D01*
X29711Y-45525D01*
X29711Y-41697D01*
X29289Y-42119D01*
X29289Y-45525D01*
X29311Y-45535D01*
X29465Y-45689D01*
X29500Y-45773D01*
X29500Y-45773D01*
G37*
G54D22*
X29500Y-45773D02*
X29535Y-45689D01*
X29689Y-45535D01*
X29711Y-45525D01*
X29711Y-41697D01*
X29289Y-42119D01*
X29289Y-45525D01*
X29311Y-45535D01*
X29465Y-45689D01*
X29500Y-45773D01*
G54D10*
G36*
X43211Y-45503D02*
X43211Y-45500D01*
X43233Y-45389D01*
X43296Y-45296D01*
X45461Y-43130D01*
X45461Y-42947D01*
X42943Y-45464D01*
X43079Y-45457D01*
X43211Y-45503D01*
X43211Y-45503D01*
G37*
G54D22*
X43211Y-45503D02*
X43211Y-45500D01*
X43233Y-45389D01*
X43296Y-45296D01*
X45461Y-43130D01*
X45461Y-42947D01*
X42943Y-45464D01*
X43079Y-45457D01*
X43211Y-45503D01*
G54D10*
G36*
X41289Y-45306D02*
X41296Y-45296D01*
X44466Y-42124D01*
X44450Y-42125D01*
X44450Y-42113D01*
X44388Y-42175D01*
X44324Y-42174D01*
X44225Y-42174D01*
X44224Y-42173D01*
X44204Y-42205D01*
X41289Y-45119D01*
X41289Y-45306D01*
X41289Y-45306D01*
G37*
G54D22*
X41289Y-45306D02*
X41296Y-45296D01*
X44466Y-42124D01*
X44450Y-42125D01*
X44450Y-42113D01*
X44388Y-42175D01*
X44324Y-42174D01*
X44225Y-42174D01*
X44224Y-42173D01*
X44204Y-42205D01*
X41289Y-45119D01*
X41289Y-45306D01*
G54D10*
G36*
X32289Y-45056D02*
X32296Y-45046D01*
X32711Y-44631D01*
X32711Y-42174D01*
X32676Y-42174D01*
X32612Y-42175D01*
X32550Y-42113D01*
X32550Y-41850D01*
X32711Y-41850D01*
X32711Y-41750D01*
X32550Y-41750D01*
X32550Y-41627D01*
X32450Y-41627D01*
X32450Y-41750D01*
X32087Y-41750D01*
X32039Y-41702D01*
X32039Y-41898D01*
X32087Y-41850D01*
X32450Y-41850D01*
X32450Y-42113D01*
X32388Y-42175D01*
X32324Y-42174D01*
X32225Y-42174D01*
X32134Y-42136D01*
X32064Y-42066D01*
X32039Y-42005D01*
X32039Y-42630D01*
X32204Y-42795D01*
X32267Y-42889D01*
X32289Y-43000D01*
X32289Y-45056D01*
X32289Y-45056D01*
G37*
G54D22*
X32289Y-45056D02*
X32296Y-45046D01*
X32711Y-44631D01*
X32711Y-42174D01*
X32676Y-42174D01*
X32612Y-42175D01*
X32550Y-42113D01*
X32550Y-41850D01*
X32711Y-41850D01*
X32711Y-41750D01*
X32550Y-41750D01*
X32550Y-41627D01*
X32450Y-41627D01*
X32450Y-41750D01*
X32087Y-41750D01*
X32039Y-41702D01*
X32039Y-41898D01*
X32087Y-41850D01*
X32450Y-41850D01*
X32450Y-42113D01*
X32388Y-42175D01*
X32324Y-42174D01*
X32225Y-42174D01*
X32134Y-42136D01*
X32064Y-42066D01*
X32039Y-42005D01*
X32039Y-42630D01*
X32204Y-42795D01*
X32267Y-42889D01*
X32289Y-43000D01*
X32289Y-45056D01*
G54D10*
G36*
X46275Y-44065D02*
X48961Y-41380D01*
X48961Y-38800D01*
X47724Y-38800D01*
X47724Y-39125D01*
X47686Y-39216D01*
X47651Y-39249D01*
X47686Y-39284D01*
X47724Y-39376D01*
X47724Y-39725D01*
X47686Y-39816D01*
X47616Y-39886D01*
X47524Y-39924D01*
X47341Y-39924D01*
X47334Y-39927D01*
X47164Y-39927D01*
X47156Y-39924D01*
X46975Y-39924D01*
X46884Y-39886D01*
X46814Y-39816D01*
X46776Y-39724D01*
X46776Y-39375D01*
X46811Y-39289D01*
X45000Y-39289D01*
X44927Y-39274D01*
X44927Y-39336D01*
X44865Y-39480D01*
X44869Y-39481D01*
X44874Y-39483D01*
X44881Y-39481D01*
X45120Y-39481D01*
X45125Y-39483D01*
X45131Y-39481D01*
X45370Y-39481D01*
X45375Y-39483D01*
X45381Y-39481D01*
X45620Y-39481D01*
X45625Y-39483D01*
X45631Y-39481D01*
X45870Y-39481D01*
X45875Y-39483D01*
X45881Y-39481D01*
X46120Y-39481D01*
X46211Y-39519D01*
X46281Y-39589D01*
X46319Y-39681D01*
X46319Y-40410D01*
X46289Y-40481D01*
X46289Y-44000D01*
X46275Y-44065D01*
X46275Y-44065D01*
G37*
G54D22*
X46275Y-44065D02*
X48961Y-41380D01*
X48961Y-38800D01*
X47724Y-38800D01*
X47724Y-39125D01*
X47686Y-39216D01*
X47651Y-39249D01*
X47686Y-39284D01*
X47724Y-39376D01*
X47724Y-39725D01*
X47686Y-39816D01*
X47616Y-39886D01*
X47524Y-39924D01*
X47341Y-39924D01*
X47334Y-39927D01*
X47164Y-39927D01*
X47156Y-39924D01*
X46975Y-39924D01*
X46884Y-39886D01*
X46814Y-39816D01*
X46776Y-39724D01*
X46776Y-39375D01*
X46811Y-39289D01*
X45000Y-39289D01*
X44927Y-39274D01*
X44927Y-39336D01*
X44865Y-39480D01*
X44869Y-39481D01*
X44874Y-39483D01*
X44881Y-39481D01*
X45120Y-39481D01*
X45125Y-39483D01*
X45131Y-39481D01*
X45370Y-39481D01*
X45375Y-39483D01*
X45381Y-39481D01*
X45620Y-39481D01*
X45625Y-39483D01*
X45631Y-39481D01*
X45870Y-39481D01*
X45875Y-39483D01*
X45881Y-39481D01*
X46120Y-39481D01*
X46211Y-39519D01*
X46281Y-39589D01*
X46319Y-39681D01*
X46319Y-40410D01*
X46289Y-40481D01*
X46289Y-44000D01*
X46275Y-44065D01*
G54D10*
G36*
X28039Y-42056D02*
X28046Y-42046D01*
X28711Y-41380D01*
X28711Y-41064D01*
X28638Y-40991D01*
X28573Y-40834D01*
X28573Y-40664D01*
X28639Y-40507D01*
X28759Y-40388D01*
X28916Y-40323D01*
X29086Y-40323D01*
X29243Y-40389D01*
X29362Y-40509D01*
X29426Y-40664D01*
X29711Y-40380D01*
X29711Y-39500D01*
X29733Y-39389D01*
X29796Y-39296D01*
X29889Y-39233D01*
X30000Y-39211D01*
X31552Y-39211D01*
X31518Y-39177D01*
X31414Y-39177D01*
X31257Y-39111D01*
X31138Y-38991D01*
X31073Y-38834D01*
X31073Y-38664D01*
X31133Y-38519D01*
X31131Y-38519D01*
X31124Y-38516D01*
X31119Y-38519D01*
X30880Y-38519D01*
X30874Y-38516D01*
X30869Y-38519D01*
X30630Y-38519D01*
X30624Y-38516D01*
X30619Y-38519D01*
X30380Y-38519D01*
X30289Y-38481D01*
X30219Y-38411D01*
X30181Y-38319D01*
X30181Y-37789D01*
X29974Y-37789D01*
X29974Y-38125D01*
X29936Y-38216D01*
X29901Y-38249D01*
X29936Y-38284D01*
X29974Y-38376D01*
X29974Y-38725D01*
X29936Y-38816D01*
X29866Y-38886D01*
X29774Y-38924D01*
X29712Y-38924D01*
X29584Y-38977D01*
X29414Y-38977D01*
X29287Y-38924D01*
X29225Y-38924D01*
X29134Y-38886D01*
X29064Y-38816D01*
X29057Y-38800D01*
X28039Y-39819D01*
X28039Y-42056D01*
X28039Y-42056D01*
G37*
G54D22*
X28039Y-42056D02*
X28046Y-42046D01*
X28711Y-41380D01*
X28711Y-41064D01*
X28638Y-40991D01*
X28573Y-40834D01*
X28573Y-40664D01*
X28639Y-40507D01*
X28759Y-40388D01*
X28916Y-40323D01*
X29086Y-40323D01*
X29243Y-40389D01*
X29362Y-40509D01*
X29426Y-40664D01*
X29711Y-40380D01*
X29711Y-39500D01*
X29733Y-39389D01*
X29796Y-39296D01*
X29889Y-39233D01*
X30000Y-39211D01*
X31552Y-39211D01*
X31518Y-39177D01*
X31414Y-39177D01*
X31257Y-39111D01*
X31138Y-38991D01*
X31073Y-38834D01*
X31073Y-38664D01*
X31133Y-38519D01*
X31131Y-38519D01*
X31124Y-38516D01*
X31119Y-38519D01*
X30880Y-38519D01*
X30874Y-38516D01*
X30869Y-38519D01*
X30630Y-38519D01*
X30624Y-38516D01*
X30619Y-38519D01*
X30380Y-38519D01*
X30289Y-38481D01*
X30219Y-38411D01*
X30181Y-38319D01*
X30181Y-37789D01*
X29974Y-37789D01*
X29974Y-38125D01*
X29936Y-38216D01*
X29901Y-38249D01*
X29936Y-38284D01*
X29974Y-38376D01*
X29974Y-38725D01*
X29936Y-38816D01*
X29866Y-38886D01*
X29774Y-38924D01*
X29712Y-38924D01*
X29584Y-38977D01*
X29414Y-38977D01*
X29287Y-38924D01*
X29225Y-38924D01*
X29134Y-38886D01*
X29064Y-38816D01*
X29057Y-38800D01*
X28039Y-39819D01*
X28039Y-42056D01*
G54D10*
G36*
X44550Y-41850D02*
X44550Y-41750D01*
X44450Y-41750D01*
X44450Y-41850D01*
X44550Y-41850D01*
X44550Y-41850D01*
G37*
G54D22*
X44550Y-41850D02*
X44550Y-41750D01*
X44450Y-41750D01*
X44450Y-41850D01*
X44550Y-41850D01*
G54D10*
G36*
X44073Y-39211D02*
X44073Y-39164D01*
X44139Y-39007D01*
X44259Y-38888D01*
X44416Y-38823D01*
X44586Y-38823D01*
X44711Y-38875D01*
X44711Y-38800D01*
X44177Y-38800D01*
X44177Y-38836D01*
X44111Y-38993D01*
X43991Y-39112D01*
X43834Y-39177D01*
X43664Y-39177D01*
X43507Y-39111D01*
X43388Y-38991D01*
X43323Y-38834D01*
X43323Y-38664D01*
X43383Y-38519D01*
X43381Y-38519D01*
X43374Y-38516D01*
X43369Y-38519D01*
X43285Y-38519D01*
X43267Y-38611D01*
X43204Y-38705D01*
X42697Y-39210D01*
X44073Y-39211D01*
X44073Y-39211D01*
G37*
G54D22*
X44073Y-39211D02*
X44073Y-39164D01*
X44139Y-39007D01*
X44259Y-38888D01*
X44416Y-38823D01*
X44586Y-38823D01*
X44711Y-38875D01*
X44711Y-38800D01*
X44177Y-38800D01*
X44177Y-38836D01*
X44111Y-38993D01*
X43991Y-39112D01*
X43834Y-39177D01*
X43664Y-39177D01*
X43507Y-39111D01*
X43388Y-38991D01*
X43323Y-38834D01*
X43323Y-38664D01*
X43383Y-38519D01*
X43381Y-38519D01*
X43374Y-38516D01*
X43369Y-38519D01*
X43285Y-38519D01*
X43267Y-38611D01*
X43204Y-38705D01*
X42697Y-39210D01*
X44073Y-39211D01*
G54D10*
G36*
X32070Y-38912D02*
X32166Y-38873D01*
X32305Y-38873D01*
X32072Y-38495D01*
X32039Y-38481D01*
X31999Y-38441D01*
X31961Y-38481D01*
X31928Y-38494D01*
X31903Y-38520D01*
X31881Y-38519D01*
X31875Y-38516D01*
X31869Y-38519D01*
X31866Y-38519D01*
X31927Y-38666D01*
X31927Y-38768D01*
X32070Y-38912D01*
X32070Y-38912D01*
G37*
G54D22*
X32070Y-38912D02*
X32166Y-38873D01*
X32305Y-38873D01*
X32072Y-38495D01*
X32039Y-38481D01*
X31999Y-38441D01*
X31961Y-38481D01*
X31928Y-38494D01*
X31903Y-38520D01*
X31881Y-38519D01*
X31875Y-38516D01*
X31869Y-38519D01*
X31866Y-38519D01*
X31927Y-38666D01*
X31927Y-38768D01*
X32070Y-38912D01*
G54D10*
G36*
X49700Y-38200D02*
X49700Y-28800D01*
X44819Y-28800D01*
X44903Y-28940D01*
X44250Y-29592D01*
X43597Y-28940D01*
X43680Y-28800D01*
X40800Y-28800D01*
X40800Y-33233D01*
X41323Y-33930D01*
X41323Y-33914D01*
X41389Y-33757D01*
X41440Y-33706D01*
X41440Y-32403D01*
X41297Y-32318D01*
X41149Y-31961D01*
X41145Y-31557D01*
X41297Y-31182D01*
X41440Y-31097D01*
X42092Y-31750D01*
X41440Y-32403D01*
X41440Y-33706D01*
X41509Y-33638D01*
X41666Y-33573D01*
X41836Y-33573D01*
X41970Y-33629D01*
X41970Y-32768D01*
X41595Y-32616D01*
X41510Y-32473D01*
X42163Y-31821D01*
X42163Y-31679D01*
X41510Y-31027D01*
X41595Y-30884D01*
X41952Y-30736D01*
X42356Y-30732D01*
X42731Y-30884D01*
X42816Y-31027D01*
X42163Y-31679D01*
X42163Y-31821D01*
X42816Y-32473D01*
X42731Y-32616D01*
X42374Y-32764D01*
X41970Y-32768D01*
X41970Y-33629D01*
X41993Y-33639D01*
X42112Y-33759D01*
X42177Y-33916D01*
X42177Y-34086D01*
X42111Y-34243D01*
X42039Y-34314D01*
X42039Y-34885D01*
X42461Y-35447D01*
X42461Y-35314D01*
X42388Y-35241D01*
X42323Y-35084D01*
X42323Y-34914D01*
X42389Y-34757D01*
X42509Y-34638D01*
X42666Y-34573D01*
X42836Y-34573D01*
X42886Y-34594D01*
X42886Y-32403D01*
X42234Y-31750D01*
X42886Y-31097D01*
X43029Y-31182D01*
X43177Y-31539D01*
X43181Y-31943D01*
X43029Y-32318D01*
X42886Y-32403D01*
X42886Y-34594D01*
X42993Y-34639D01*
X43112Y-34759D01*
X43177Y-34916D01*
X43177Y-35086D01*
X43111Y-35243D01*
X43039Y-35314D01*
X43039Y-35994D01*
X43064Y-35934D01*
X43134Y-35864D01*
X43225Y-35826D01*
X43324Y-35826D01*
X43388Y-35825D01*
X43450Y-35887D01*
X43450Y-36150D01*
X43450Y-36250D01*
X43527Y-36250D01*
X43527Y-30316D01*
X43384Y-30231D01*
X43236Y-29874D01*
X43232Y-29470D01*
X43384Y-29095D01*
X43527Y-29010D01*
X44179Y-29663D01*
X43527Y-30316D01*
X43527Y-36250D01*
X43550Y-36250D01*
X43550Y-36150D01*
X43550Y-35887D01*
X43612Y-35825D01*
X43676Y-35826D01*
X43775Y-35826D01*
X43866Y-35864D01*
X43936Y-35934D01*
X43974Y-36026D01*
X43975Y-36088D01*
X43913Y-36150D01*
X43550Y-36150D01*
X43550Y-36250D01*
X43913Y-36250D01*
X43975Y-36312D01*
X43974Y-36374D01*
X43936Y-36466D01*
X43901Y-36499D01*
X43936Y-36534D01*
X43974Y-36626D01*
X43974Y-36815D01*
X44026Y-36867D01*
X44026Y-36625D01*
X44064Y-36534D01*
X44097Y-36499D01*
X44064Y-36466D01*
X44026Y-36374D01*
X44025Y-36312D01*
X44087Y-36250D01*
X44087Y-36150D01*
X44025Y-36088D01*
X44026Y-36026D01*
X44064Y-35934D01*
X44134Y-35864D01*
X44225Y-35826D01*
X44324Y-35826D01*
X44388Y-35825D01*
X44450Y-35887D01*
X44450Y-36150D01*
X44087Y-36150D01*
X44087Y-36250D01*
X44450Y-36250D01*
X44550Y-36250D01*
X44550Y-36150D01*
X44550Y-35887D01*
X44588Y-35849D01*
X44588Y-35225D01*
X44526Y-35224D01*
X44434Y-35186D01*
X44364Y-35116D01*
X44326Y-35025D01*
X44326Y-34926D01*
X44325Y-34862D01*
X44387Y-34800D01*
X44387Y-34700D01*
X44325Y-34638D01*
X44326Y-34574D01*
X44326Y-34475D01*
X44364Y-34384D01*
X44434Y-34314D01*
X44526Y-34276D01*
X44588Y-34275D01*
X44650Y-34337D01*
X44650Y-34700D01*
X44387Y-34700D01*
X44387Y-34800D01*
X44650Y-34800D01*
X44650Y-35163D01*
X44588Y-35225D01*
X44588Y-35849D01*
X44612Y-35825D01*
X44676Y-35826D01*
X44775Y-35826D01*
X44866Y-35864D01*
X44936Y-35934D01*
X44974Y-36026D01*
X44975Y-36088D01*
X44913Y-36150D01*
X44550Y-36150D01*
X44550Y-36250D01*
X44913Y-36250D01*
X44975Y-36312D01*
X44974Y-36374D01*
X44936Y-36466D01*
X44901Y-36499D01*
X44936Y-36534D01*
X44974Y-36626D01*
X44974Y-36865D01*
X45026Y-36917D01*
X45026Y-36625D01*
X45064Y-36534D01*
X45097Y-36499D01*
X45064Y-36466D01*
X45026Y-36374D01*
X45025Y-36312D01*
X45087Y-36250D01*
X45087Y-36150D01*
X45025Y-36088D01*
X45026Y-36026D01*
X45064Y-35934D01*
X45134Y-35864D01*
X45225Y-35826D01*
X45324Y-35826D01*
X45388Y-35825D01*
X45450Y-35887D01*
X45450Y-36150D01*
X45087Y-36150D01*
X45087Y-36250D01*
X45450Y-36250D01*
X45550Y-36250D01*
X45550Y-36150D01*
X45550Y-35887D01*
X45612Y-35825D01*
X45676Y-35826D01*
X45775Y-35826D01*
X45866Y-35864D01*
X45936Y-35934D01*
X45974Y-36026D01*
X45975Y-36088D01*
X45913Y-36150D01*
X45550Y-36150D01*
X45550Y-36250D01*
X45913Y-36250D01*
X45975Y-36312D01*
X45974Y-36374D01*
X45936Y-36466D01*
X45901Y-36499D01*
X45936Y-36534D01*
X45974Y-36626D01*
X45974Y-36867D01*
X46026Y-36815D01*
X46026Y-36625D01*
X46064Y-36534D01*
X46097Y-36499D01*
X46064Y-36466D01*
X46026Y-36374D01*
X46026Y-36025D01*
X46064Y-35934D01*
X46134Y-35864D01*
X46211Y-35832D01*
X46211Y-35418D01*
X46134Y-35386D01*
X46087Y-35339D01*
X45800Y-35339D01*
X45689Y-35317D01*
X45642Y-35285D01*
X45595Y-35254D01*
X45538Y-35197D01*
X45474Y-35224D01*
X45125Y-35224D01*
X45034Y-35186D01*
X44999Y-35151D01*
X44966Y-35186D01*
X44874Y-35224D01*
X44812Y-35225D01*
X44750Y-35163D01*
X44750Y-34800D01*
X44750Y-34700D01*
X44750Y-34337D01*
X44812Y-34275D01*
X44874Y-34276D01*
X44966Y-34314D01*
X44999Y-34347D01*
X45034Y-34314D01*
X45126Y-34276D01*
X45475Y-34276D01*
X45566Y-34314D01*
X45636Y-34384D01*
X45674Y-34476D01*
X45674Y-34525D01*
X45704Y-34546D01*
X45919Y-34761D01*
X46086Y-34761D01*
X46097Y-34749D01*
X46064Y-34716D01*
X46026Y-34624D01*
X46026Y-34384D01*
X44046Y-32404D01*
X44005Y-32344D01*
X43885Y-32294D01*
X43705Y-32113D01*
X43607Y-31877D01*
X43607Y-31621D01*
X43706Y-31385D01*
X43887Y-31205D01*
X44057Y-31134D01*
X44057Y-30681D01*
X43682Y-30529D01*
X43597Y-30386D01*
X44250Y-29734D01*
X44903Y-30386D01*
X44818Y-30529D01*
X44461Y-30677D01*
X44057Y-30681D01*
X44057Y-31134D01*
X44123Y-31107D01*
X44379Y-31107D01*
X44615Y-31206D01*
X44795Y-31387D01*
X44893Y-31623D01*
X44893Y-31879D01*
X44794Y-32115D01*
X44683Y-32225D01*
X44973Y-32514D01*
X44973Y-30316D01*
X44321Y-29663D01*
X44973Y-29010D01*
X45116Y-29095D01*
X45264Y-29452D01*
X45268Y-29856D01*
X45116Y-30231D01*
X44973Y-30316D01*
X44973Y-32514D01*
X45614Y-33155D01*
X45614Y-32403D01*
X45471Y-32318D01*
X45323Y-31961D01*
X45319Y-31557D01*
X45471Y-31182D01*
X45614Y-31097D01*
X46266Y-31750D01*
X45614Y-32403D01*
X45614Y-33155D01*
X46144Y-33685D01*
X46144Y-32768D01*
X45769Y-32616D01*
X45684Y-32473D01*
X46337Y-31821D01*
X46337Y-31679D01*
X45684Y-31027D01*
X45769Y-30884D01*
X46126Y-30736D01*
X46530Y-30732D01*
X46905Y-30884D01*
X46990Y-31027D01*
X46337Y-31679D01*
X46337Y-31821D01*
X46990Y-32473D01*
X46905Y-32616D01*
X46548Y-32764D01*
X46144Y-32768D01*
X46144Y-33685D01*
X46534Y-34076D01*
X46775Y-34076D01*
X46866Y-34114D01*
X46936Y-34184D01*
X46974Y-34276D01*
X46974Y-34625D01*
X46936Y-34716D01*
X46901Y-34749D01*
X46936Y-34784D01*
X46974Y-34876D01*
X46974Y-35225D01*
X46936Y-35316D01*
X46866Y-35386D01*
X46789Y-35417D01*
X46789Y-35831D01*
X46866Y-35864D01*
X46936Y-35934D01*
X46974Y-36026D01*
X46974Y-36375D01*
X46936Y-36466D01*
X46901Y-36499D01*
X46936Y-36534D01*
X46974Y-36626D01*
X46974Y-36975D01*
X46936Y-37066D01*
X46866Y-37136D01*
X46774Y-37174D01*
X46484Y-37174D01*
X46289Y-37369D01*
X46289Y-37518D01*
X46319Y-37591D01*
X46319Y-38200D01*
X46821Y-38200D01*
X46773Y-38084D01*
X46773Y-37914D01*
X46826Y-37787D01*
X46826Y-37725D01*
X46864Y-37634D01*
X46934Y-37564D01*
X47026Y-37526D01*
X47060Y-37526D01*
X47060Y-32403D01*
X46408Y-31750D01*
X47060Y-31097D01*
X47203Y-31182D01*
X47351Y-31539D01*
X47355Y-31943D01*
X47203Y-32318D01*
X47060Y-32403D01*
X47060Y-37526D01*
X47375Y-37526D01*
X47466Y-37564D01*
X47500Y-37598D01*
X47534Y-37564D01*
X47626Y-37526D01*
X47688Y-37525D01*
X47750Y-37587D01*
X47750Y-37950D01*
X47750Y-38050D01*
X47850Y-38050D01*
X47850Y-37950D01*
X47850Y-37587D01*
X47912Y-37525D01*
X47974Y-37526D01*
X48066Y-37564D01*
X48136Y-37634D01*
X48174Y-37725D01*
X48174Y-37824D01*
X48175Y-37888D01*
X48113Y-37950D01*
X47850Y-37950D01*
X47850Y-38050D01*
X48113Y-38050D01*
X48175Y-38112D01*
X48174Y-38176D01*
X48174Y-38200D01*
X48414Y-38200D01*
X48414Y-36677D01*
X48257Y-36611D01*
X48138Y-36491D01*
X48073Y-36334D01*
X48073Y-36164D01*
X48139Y-36007D01*
X48211Y-35935D01*
X48211Y-33564D01*
X48138Y-33491D01*
X48073Y-33334D01*
X48073Y-33164D01*
X48139Y-33007D01*
X48259Y-32888D01*
X48416Y-32823D01*
X48586Y-32823D01*
X48743Y-32889D01*
X48862Y-33009D01*
X48927Y-33166D01*
X48927Y-33336D01*
X48861Y-33493D01*
X48789Y-33564D01*
X48789Y-35935D01*
X48862Y-36009D01*
X48927Y-36166D01*
X48927Y-36336D01*
X48861Y-36493D01*
X48741Y-36612D01*
X48584Y-36677D01*
X48414Y-36677D01*
X48414Y-38200D01*
X48961Y-38200D01*
X48961Y-35814D01*
X48888Y-35741D01*
X48823Y-35584D01*
X48823Y-35414D01*
X48889Y-35257D01*
X49009Y-35138D01*
X49166Y-35073D01*
X49336Y-35073D01*
X49493Y-35139D01*
X49612Y-35259D01*
X49677Y-35416D01*
X49677Y-35586D01*
X49611Y-35743D01*
X49539Y-35814D01*
X49539Y-38200D01*
X49700Y-38200D01*
X49700Y-38200D01*
G37*
G54D22*
X49700Y-38200D02*
X49700Y-28800D01*
X44819Y-28800D01*
X44903Y-28940D01*
X44250Y-29592D01*
X43597Y-28940D01*
X43680Y-28800D01*
X40800Y-28800D01*
X40800Y-33233D01*
X41323Y-33930D01*
X41323Y-33914D01*
X41389Y-33757D01*
X41440Y-33706D01*
X41440Y-32403D01*
X41297Y-32318D01*
X41149Y-31961D01*
X41145Y-31557D01*
X41297Y-31182D01*
X41440Y-31097D01*
X42092Y-31750D01*
X41440Y-32403D01*
X41440Y-33706D01*
X41509Y-33638D01*
X41666Y-33573D01*
X41836Y-33573D01*
X41970Y-33629D01*
X41970Y-32768D01*
X41595Y-32616D01*
X41510Y-32473D01*
X42163Y-31821D01*
X42163Y-31679D01*
X41510Y-31027D01*
X41595Y-30884D01*
X41952Y-30736D01*
X42356Y-30732D01*
X42731Y-30884D01*
X42816Y-31027D01*
X42163Y-31679D01*
X42163Y-31821D01*
X42816Y-32473D01*
X42731Y-32616D01*
X42374Y-32764D01*
X41970Y-32768D01*
X41970Y-33629D01*
X41993Y-33639D01*
X42112Y-33759D01*
X42177Y-33916D01*
X42177Y-34086D01*
X42111Y-34243D01*
X42039Y-34314D01*
X42039Y-34885D01*
X42461Y-35447D01*
X42461Y-35314D01*
X42388Y-35241D01*
X42323Y-35084D01*
X42323Y-34914D01*
X42389Y-34757D01*
X42509Y-34638D01*
X42666Y-34573D01*
X42836Y-34573D01*
X42886Y-34594D01*
X42886Y-32403D01*
X42234Y-31750D01*
X42886Y-31097D01*
X43029Y-31182D01*
X43177Y-31539D01*
X43181Y-31943D01*
X43029Y-32318D01*
X42886Y-32403D01*
X42886Y-34594D01*
X42993Y-34639D01*
X43112Y-34759D01*
X43177Y-34916D01*
X43177Y-35086D01*
X43111Y-35243D01*
X43039Y-35314D01*
X43039Y-35994D01*
X43064Y-35934D01*
X43134Y-35864D01*
X43225Y-35826D01*
X43324Y-35826D01*
X43388Y-35825D01*
X43450Y-35887D01*
X43450Y-36150D01*
X43450Y-36250D01*
X43527Y-36250D01*
X43527Y-30316D01*
X43384Y-30231D01*
X43236Y-29874D01*
X43232Y-29470D01*
X43384Y-29095D01*
X43527Y-29010D01*
X44179Y-29663D01*
X43527Y-30316D01*
X43527Y-36250D01*
X43550Y-36250D01*
X43550Y-36150D01*
X43550Y-35887D01*
X43612Y-35825D01*
X43676Y-35826D01*
X43775Y-35826D01*
X43866Y-35864D01*
X43936Y-35934D01*
X43974Y-36026D01*
X43975Y-36088D01*
X43913Y-36150D01*
X43550Y-36150D01*
X43550Y-36250D01*
X43913Y-36250D01*
X43975Y-36312D01*
X43974Y-36374D01*
X43936Y-36466D01*
X43901Y-36499D01*
X43936Y-36534D01*
X43974Y-36626D01*
X43974Y-36815D01*
X44026Y-36867D01*
X44026Y-36625D01*
X44064Y-36534D01*
X44097Y-36499D01*
X44064Y-36466D01*
X44026Y-36374D01*
X44025Y-36312D01*
X44087Y-36250D01*
X44087Y-36150D01*
X44025Y-36088D01*
X44026Y-36026D01*
X44064Y-35934D01*
X44134Y-35864D01*
X44225Y-35826D01*
X44324Y-35826D01*
X44388Y-35825D01*
X44450Y-35887D01*
X44450Y-36150D01*
X44087Y-36150D01*
X44087Y-36250D01*
X44450Y-36250D01*
X44550Y-36250D01*
X44550Y-36150D01*
X44550Y-35887D01*
X44588Y-35849D01*
X44588Y-35225D01*
X44526Y-35224D01*
X44434Y-35186D01*
X44364Y-35116D01*
X44326Y-35025D01*
X44326Y-34926D01*
X44325Y-34862D01*
X44387Y-34800D01*
X44387Y-34700D01*
X44325Y-34638D01*
X44326Y-34574D01*
X44326Y-34475D01*
X44364Y-34384D01*
X44434Y-34314D01*
X44526Y-34276D01*
X44588Y-34275D01*
X44650Y-34337D01*
X44650Y-34700D01*
X44387Y-34700D01*
X44387Y-34800D01*
X44650Y-34800D01*
X44650Y-35163D01*
X44588Y-35225D01*
X44588Y-35849D01*
X44612Y-35825D01*
X44676Y-35826D01*
X44775Y-35826D01*
X44866Y-35864D01*
X44936Y-35934D01*
X44974Y-36026D01*
X44975Y-36088D01*
X44913Y-36150D01*
X44550Y-36150D01*
X44550Y-36250D01*
X44913Y-36250D01*
X44975Y-36312D01*
X44974Y-36374D01*
X44936Y-36466D01*
X44901Y-36499D01*
X44936Y-36534D01*
X44974Y-36626D01*
X44974Y-36865D01*
X45026Y-36917D01*
X45026Y-36625D01*
X45064Y-36534D01*
X45097Y-36499D01*
X45064Y-36466D01*
X45026Y-36374D01*
X45025Y-36312D01*
X45087Y-36250D01*
X45087Y-36150D01*
X45025Y-36088D01*
X45026Y-36026D01*
X45064Y-35934D01*
X45134Y-35864D01*
X45225Y-35826D01*
X45324Y-35826D01*
X45388Y-35825D01*
X45450Y-35887D01*
X45450Y-36150D01*
X45087Y-36150D01*
X45087Y-36250D01*
X45450Y-36250D01*
X45550Y-36250D01*
X45550Y-36150D01*
X45550Y-35887D01*
X45612Y-35825D01*
X45676Y-35826D01*
X45775Y-35826D01*
X45866Y-35864D01*
X45936Y-35934D01*
X45974Y-36026D01*
X45975Y-36088D01*
X45913Y-36150D01*
X45550Y-36150D01*
X45550Y-36250D01*
X45913Y-36250D01*
X45975Y-36312D01*
X45974Y-36374D01*
X45936Y-36466D01*
X45901Y-36499D01*
X45936Y-36534D01*
X45974Y-36626D01*
X45974Y-36867D01*
X46026Y-36815D01*
X46026Y-36625D01*
X46064Y-36534D01*
X46097Y-36499D01*
X46064Y-36466D01*
X46026Y-36374D01*
X46026Y-36025D01*
X46064Y-35934D01*
X46134Y-35864D01*
X46211Y-35832D01*
X46211Y-35418D01*
X46134Y-35386D01*
X46087Y-35339D01*
X45800Y-35339D01*
X45689Y-35317D01*
X45642Y-35285D01*
X45595Y-35254D01*
X45538Y-35197D01*
X45474Y-35224D01*
X45125Y-35224D01*
X45034Y-35186D01*
X44999Y-35151D01*
X44966Y-35186D01*
X44874Y-35224D01*
X44812Y-35225D01*
X44750Y-35163D01*
X44750Y-34800D01*
X44750Y-34700D01*
X44750Y-34337D01*
X44812Y-34275D01*
X44874Y-34276D01*
X44966Y-34314D01*
X44999Y-34347D01*
X45034Y-34314D01*
X45126Y-34276D01*
X45475Y-34276D01*
X45566Y-34314D01*
X45636Y-34384D01*
X45674Y-34476D01*
X45674Y-34525D01*
X45704Y-34546D01*
X45919Y-34761D01*
X46086Y-34761D01*
X46097Y-34749D01*
X46064Y-34716D01*
X46026Y-34624D01*
X46026Y-34384D01*
X44046Y-32404D01*
X44005Y-32344D01*
X43885Y-32294D01*
X43705Y-32113D01*
X43607Y-31877D01*
X43607Y-31621D01*
X43706Y-31385D01*
X43887Y-31205D01*
X44057Y-31134D01*
X44057Y-30681D01*
X43682Y-30529D01*
X43597Y-30386D01*
X44250Y-29734D01*
X44903Y-30386D01*
X44818Y-30529D01*
X44461Y-30677D01*
X44057Y-30681D01*
X44057Y-31134D01*
X44123Y-31107D01*
X44379Y-31107D01*
X44615Y-31206D01*
X44795Y-31387D01*
X44893Y-31623D01*
X44893Y-31879D01*
X44794Y-32115D01*
X44683Y-32225D01*
X44973Y-32514D01*
X44973Y-30316D01*
X44321Y-29663D01*
X44973Y-29010D01*
X45116Y-29095D01*
X45264Y-29452D01*
X45268Y-29856D01*
X45116Y-30231D01*
X44973Y-30316D01*
X44973Y-32514D01*
X45614Y-33155D01*
X45614Y-32403D01*
X45471Y-32318D01*
X45323Y-31961D01*
X45319Y-31557D01*
X45471Y-31182D01*
X45614Y-31097D01*
X46266Y-31750D01*
X45614Y-32403D01*
X45614Y-33155D01*
X46144Y-33685D01*
X46144Y-32768D01*
X45769Y-32616D01*
X45684Y-32473D01*
X46337Y-31821D01*
X46337Y-31679D01*
X45684Y-31027D01*
X45769Y-30884D01*
X46126Y-30736D01*
X46530Y-30732D01*
X46905Y-30884D01*
X46990Y-31027D01*
X46337Y-31679D01*
X46337Y-31821D01*
X46990Y-32473D01*
X46905Y-32616D01*
X46548Y-32764D01*
X46144Y-32768D01*
X46144Y-33685D01*
X46534Y-34076D01*
X46775Y-34076D01*
X46866Y-34114D01*
X46936Y-34184D01*
X46974Y-34276D01*
X46974Y-34625D01*
X46936Y-34716D01*
X46901Y-34749D01*
X46936Y-34784D01*
X46974Y-34876D01*
X46974Y-35225D01*
X46936Y-35316D01*
X46866Y-35386D01*
X46789Y-35417D01*
X46789Y-35831D01*
X46866Y-35864D01*
X46936Y-35934D01*
X46974Y-36026D01*
X46974Y-36375D01*
X46936Y-36466D01*
X46901Y-36499D01*
X46936Y-36534D01*
X46974Y-36626D01*
X46974Y-36975D01*
X46936Y-37066D01*
X46866Y-37136D01*
X46774Y-37174D01*
X46484Y-37174D01*
X46289Y-37369D01*
X46289Y-37518D01*
X46319Y-37591D01*
X46319Y-38200D01*
X46821Y-38200D01*
X46773Y-38084D01*
X46773Y-37914D01*
X46826Y-37787D01*
X46826Y-37725D01*
X46864Y-37634D01*
X46934Y-37564D01*
X47026Y-37526D01*
X47060Y-37526D01*
X47060Y-32403D01*
X46408Y-31750D01*
X47060Y-31097D01*
X47203Y-31182D01*
X47351Y-31539D01*
X47355Y-31943D01*
X47203Y-32318D01*
X47060Y-32403D01*
X47060Y-37526D01*
X47375Y-37526D01*
X47466Y-37564D01*
X47500Y-37598D01*
X47534Y-37564D01*
X47626Y-37526D01*
X47688Y-37525D01*
X47750Y-37587D01*
X47750Y-37950D01*
X47750Y-38050D01*
X47850Y-38050D01*
X47850Y-37950D01*
X47850Y-37587D01*
X47912Y-37525D01*
X47974Y-37526D01*
X48066Y-37564D01*
X48136Y-37634D01*
X48174Y-37725D01*
X48174Y-37824D01*
X48175Y-37888D01*
X48113Y-37950D01*
X47850Y-37950D01*
X47850Y-38050D01*
X48113Y-38050D01*
X48175Y-38112D01*
X48174Y-38176D01*
X48174Y-38200D01*
X48414Y-38200D01*
X48414Y-36677D01*
X48257Y-36611D01*
X48138Y-36491D01*
X48073Y-36334D01*
X48073Y-36164D01*
X48139Y-36007D01*
X48211Y-35935D01*
X48211Y-33564D01*
X48138Y-33491D01*
X48073Y-33334D01*
X48073Y-33164D01*
X48139Y-33007D01*
X48259Y-32888D01*
X48416Y-32823D01*
X48586Y-32823D01*
X48743Y-32889D01*
X48862Y-33009D01*
X48927Y-33166D01*
X48927Y-33336D01*
X48861Y-33493D01*
X48789Y-33564D01*
X48789Y-35935D01*
X48862Y-36009D01*
X48927Y-36166D01*
X48927Y-36336D01*
X48861Y-36493D01*
X48741Y-36612D01*
X48584Y-36677D01*
X48414Y-36677D01*
X48414Y-38200D01*
X48961Y-38200D01*
X48961Y-35814D01*
X48888Y-35741D01*
X48823Y-35584D01*
X48823Y-35414D01*
X48889Y-35257D01*
X49009Y-35138D01*
X49166Y-35073D01*
X49336Y-35073D01*
X49493Y-35139D01*
X49612Y-35259D01*
X49677Y-35416D01*
X49677Y-35586D01*
X49611Y-35743D01*
X49539Y-35814D01*
X49539Y-38200D01*
X49700Y-38200D01*
M02*
