G04 (created by PCBNEW-RS274X (2010-00-09 BZR 23xx)-stable) date Пнд 20 Июн 2011 14:16:42*
G01*
G70*
G90*
%MOIN*%
G04 Gerber Fmt 3.4, Leading zero omitted, Abs format*
%FSLAX34Y34*%
G04 APERTURE LIST*
%ADD10C,0.006000*%
%ADD11C,0.015000*%
%ADD12R,0.045000X0.025000*%
%ADD13R,0.025000X0.045000*%
%ADD14R,0.014000X0.063000*%
G04 APERTURE END LIST*
G54D10*
G54D11*
X27000Y-48250D02*
X27000Y-48000D01*
X50000Y-48250D02*
X27000Y-48250D01*
X50000Y-28500D02*
X50000Y-48250D01*
X27000Y-28500D02*
X50000Y-28500D01*
X27000Y-48250D02*
X27000Y-28500D01*
G54D12*
X40250Y-36800D03*
X40250Y-36200D03*
X43500Y-36800D03*
X43500Y-36200D03*
G54D13*
X45300Y-34750D03*
X44700Y-34750D03*
G54D12*
X46500Y-35050D03*
X46500Y-34450D03*
X29500Y-37950D03*
X29500Y-38550D03*
X42250Y-36200D03*
X42250Y-36800D03*
X41250Y-36200D03*
X41250Y-36800D03*
X31500Y-36550D03*
X31500Y-35950D03*
G54D13*
X33300Y-34750D03*
X32700Y-34750D03*
G54D12*
X34500Y-35050D03*
X34500Y-34450D03*
X47250Y-39550D03*
X47250Y-38950D03*
X34750Y-39550D03*
X34750Y-38950D03*
G54D13*
X47800Y-38000D03*
X47200Y-38000D03*
G54D12*
X44500Y-36200D03*
X44500Y-36800D03*
X45500Y-36200D03*
X45500Y-36800D03*
X46500Y-36200D03*
X46500Y-36800D03*
X32500Y-41800D03*
X32500Y-41200D03*
G54D13*
X35300Y-38000D03*
X34700Y-38000D03*
G54D12*
X32500Y-35950D03*
X32500Y-36550D03*
X33500Y-35950D03*
X33500Y-36550D03*
X34500Y-35950D03*
X34500Y-36550D03*
X44500Y-41800D03*
X44500Y-41200D03*
G54D14*
X33750Y-37955D03*
X33500Y-37955D03*
X33250Y-37955D03*
X33000Y-37955D03*
X32750Y-37955D03*
X32500Y-37955D03*
X32250Y-37955D03*
X32000Y-37955D03*
X31750Y-37955D03*
X31500Y-37955D03*
X31250Y-37955D03*
X31000Y-37955D03*
X30750Y-37955D03*
X30500Y-37955D03*
X30500Y-40045D03*
X30750Y-40045D03*
X31000Y-40045D03*
X31250Y-40045D03*
X31500Y-40045D03*
X31750Y-40045D03*
X32000Y-40045D03*
X32250Y-40045D03*
X32500Y-40045D03*
X32750Y-40045D03*
X33000Y-40045D03*
X33250Y-40045D03*
X33500Y-40045D03*
X33750Y-40045D03*
X46000Y-37955D03*
X45750Y-37955D03*
X45500Y-37955D03*
X45250Y-37955D03*
X45000Y-37955D03*
X44750Y-37955D03*
X44500Y-37955D03*
X44250Y-37955D03*
X44000Y-37955D03*
X43750Y-37955D03*
X43500Y-37955D03*
X43250Y-37955D03*
X43000Y-37955D03*
X42750Y-37955D03*
X42750Y-40045D03*
X43000Y-40045D03*
X43250Y-40045D03*
X43500Y-40045D03*
X43750Y-40045D03*
X44000Y-40045D03*
X44250Y-40045D03*
X44500Y-40045D03*
X44750Y-40045D03*
X45000Y-40045D03*
X45250Y-40045D03*
X45500Y-40045D03*
X45750Y-40045D03*
X46000Y-40045D03*
M02*
