G04 (created by PCBNEW (2010-00-09 BZR 23xx)-stable) date Пнд 20 Июн 2011 14:17:05*
G01*
G70*
G90*
%MOIN*%
G04 Gerber Fmt 3.4, Leading zero omitted, Abs format*
%FSLAX34Y34*%
G04 APERTURE LIST*
%ADD10C,0.001000*%
%ADD11C,0.015000*%
%ADD12C,0.008000*%
G04 APERTURE END LIST*
G54D10*
G54D11*
X27000Y-48250D02*
X27000Y-48000D01*
X50000Y-48250D02*
X27000Y-48250D01*
X50000Y-28500D02*
X50000Y-48250D01*
X27000Y-28500D02*
X50000Y-28500D01*
X27000Y-48250D02*
X27000Y-28500D01*
G54D10*
X27922Y-47172D02*
X28078Y-47328D01*
X28078Y-47172D02*
X27922Y-47328D01*
X28172Y-35172D02*
X28328Y-35328D01*
X28328Y-35172D02*
X28172Y-35328D01*
X28172Y-36672D02*
X28328Y-36828D01*
X28328Y-36672D02*
X28172Y-36828D01*
X28172Y-38172D02*
X28328Y-38328D01*
X28328Y-38172D02*
X28172Y-38328D01*
X28172Y-39672D02*
X28328Y-39828D01*
X28328Y-39672D02*
X28172Y-39828D01*
X28172Y-41422D02*
X28328Y-41578D01*
X28328Y-41422D02*
X28172Y-41578D01*
X28922Y-40672D02*
X29078Y-40828D01*
X29078Y-40672D02*
X28922Y-40828D01*
X29422Y-35422D02*
X29578Y-35578D01*
X29578Y-35422D02*
X29422Y-35578D01*
X29422Y-36672D02*
X29578Y-36828D01*
X29578Y-36672D02*
X29422Y-36828D01*
X29422Y-38472D02*
X29578Y-38628D01*
X29578Y-38472D02*
X29422Y-38628D01*
X29422Y-40172D02*
X29578Y-40328D01*
X29578Y-40172D02*
X29422Y-40328D01*
X29422Y-42422D02*
X29578Y-42578D01*
X29578Y-42422D02*
X29422Y-42578D01*
X29422Y-44422D02*
X29578Y-44578D01*
X29578Y-44422D02*
X29422Y-44578D01*
X29922Y-36922D02*
X30078Y-37078D01*
X30078Y-36922D02*
X29922Y-37078D01*
X30172Y-34172D02*
X30328Y-34328D01*
X30328Y-34172D02*
X30172Y-34328D01*
X30422Y-38922D02*
X30578Y-39078D01*
X30578Y-38922D02*
X30422Y-39078D01*
X30672Y-35172D02*
X30828Y-35328D01*
X30828Y-35172D02*
X30672Y-35328D01*
X31422Y-38672D02*
X31578Y-38828D01*
X31578Y-38672D02*
X31422Y-38828D01*
X31922Y-37172D02*
X32078Y-37328D01*
X32078Y-37172D02*
X31922Y-37328D01*
X32172Y-38622D02*
X32328Y-38778D01*
X32328Y-38622D02*
X32172Y-38778D01*
X32172Y-39222D02*
X32328Y-39378D01*
X32328Y-39222D02*
X32172Y-39378D01*
X32422Y-37172D02*
X32578Y-37328D01*
X32578Y-37172D02*
X32422Y-37328D01*
X32422Y-41122D02*
X32578Y-41278D01*
X32578Y-41122D02*
X32422Y-41278D01*
X32422Y-42422D02*
X32578Y-42578D01*
X32578Y-42422D02*
X32422Y-42578D01*
X34622Y-37922D02*
X34778Y-38078D01*
X34778Y-37922D02*
X34622Y-38078D01*
X34672Y-39422D02*
X34828Y-39578D01*
X34828Y-39422D02*
X34672Y-39578D01*
X36022Y-37922D02*
X36178Y-38078D01*
X36178Y-37922D02*
X36022Y-38078D01*
X36172Y-37922D02*
X36328Y-38078D01*
X36328Y-37922D02*
X36172Y-38078D01*
X36172Y-39922D02*
X36328Y-40078D01*
X36328Y-39922D02*
X36172Y-40078D01*
X36672Y-36422D02*
X36828Y-36578D01*
X36828Y-36422D02*
X36672Y-36578D01*
X38172Y-39922D02*
X38328Y-40078D01*
X38328Y-39922D02*
X38172Y-40078D01*
X38172Y-41422D02*
X38328Y-41578D01*
X38328Y-41422D02*
X38172Y-41578D01*
X39172Y-40422D02*
X39328Y-40578D01*
X39328Y-40422D02*
X39172Y-40578D01*
X39422Y-35422D02*
X39578Y-35578D01*
X39578Y-35422D02*
X39422Y-35578D01*
X41172Y-36172D02*
X41328Y-36328D01*
X41328Y-36172D02*
X41172Y-36328D01*
X41172Y-37922D02*
X41328Y-38078D01*
X41328Y-37922D02*
X41172Y-38078D01*
X41672Y-33922D02*
X41828Y-34078D01*
X41828Y-33922D02*
X41672Y-34078D01*
X42172Y-36122D02*
X42328Y-36278D01*
X42328Y-36122D02*
X42172Y-36278D01*
X42172Y-36672D02*
X42328Y-36828D01*
X42328Y-36672D02*
X42172Y-36828D01*
X42172Y-38672D02*
X42328Y-38828D01*
X42328Y-38672D02*
X42172Y-38828D01*
X42672Y-34922D02*
X42828Y-35078D01*
X42828Y-34922D02*
X42672Y-35078D01*
X42922Y-38922D02*
X43078Y-39078D01*
X43078Y-38922D02*
X42922Y-39078D01*
X42922Y-43422D02*
X43078Y-43578D01*
X43078Y-43422D02*
X42922Y-43578D01*
X43672Y-38672D02*
X43828Y-38828D01*
X43828Y-38672D02*
X43672Y-38828D01*
X44172Y-38672D02*
X44328Y-38828D01*
X44328Y-38672D02*
X44172Y-38828D01*
X44422Y-37172D02*
X44578Y-37328D01*
X44578Y-37172D02*
X44422Y-37328D01*
X44422Y-39172D02*
X44578Y-39328D01*
X44578Y-39172D02*
X44422Y-39328D01*
X44422Y-40922D02*
X44578Y-41078D01*
X44578Y-40922D02*
X44422Y-41078D01*
X44922Y-43422D02*
X45078Y-43578D01*
X45078Y-43422D02*
X44922Y-43578D01*
X46422Y-39422D02*
X46578Y-39578D01*
X46578Y-39422D02*
X46422Y-39578D01*
X47122Y-37922D02*
X47278Y-38078D01*
X47278Y-37922D02*
X47122Y-38078D01*
X47172Y-39422D02*
X47328Y-39578D01*
X47328Y-39422D02*
X47172Y-39578D01*
X48172Y-37922D02*
X48328Y-38078D01*
X48328Y-37922D02*
X48172Y-38078D01*
X48422Y-33172D02*
X48578Y-33328D01*
X48578Y-33172D02*
X48422Y-33328D01*
X48422Y-36172D02*
X48578Y-36328D01*
X48578Y-36172D02*
X48422Y-36328D01*
X49172Y-35422D02*
X49328Y-35578D01*
X49328Y-35422D02*
X49172Y-35578D01*
X38407Y-36250D02*
X38404Y-36280D01*
X38395Y-36309D01*
X38380Y-36336D01*
X38361Y-36360D01*
X38337Y-36380D01*
X38310Y-36394D01*
X38281Y-36403D01*
X38251Y-36406D01*
X38221Y-36404D01*
X38192Y-36395D01*
X38165Y-36381D01*
X38141Y-36362D01*
X38121Y-36338D01*
X38106Y-36311D01*
X38097Y-36282D01*
X38094Y-36252D01*
X38096Y-36222D01*
X38105Y-36193D01*
X38119Y-36165D01*
X38138Y-36141D01*
X38161Y-36122D01*
X38188Y-36107D01*
X38217Y-36097D01*
X38247Y-36094D01*
X38277Y-36096D01*
X38306Y-36104D01*
X38334Y-36118D01*
X38358Y-36137D01*
X38378Y-36160D01*
X38393Y-36187D01*
X38403Y-36216D01*
X38406Y-36246D01*
X38407Y-36250D01*
X38407Y-38250D02*
X38404Y-38280D01*
X38395Y-38309D01*
X38380Y-38336D01*
X38361Y-38360D01*
X38337Y-38380D01*
X38310Y-38394D01*
X38281Y-38403D01*
X38251Y-38406D01*
X38221Y-38404D01*
X38192Y-38395D01*
X38165Y-38381D01*
X38141Y-38362D01*
X38121Y-38338D01*
X38106Y-38311D01*
X38097Y-38282D01*
X38094Y-38252D01*
X38096Y-38222D01*
X38105Y-38193D01*
X38119Y-38165D01*
X38138Y-38141D01*
X38161Y-38122D01*
X38188Y-38107D01*
X38217Y-38097D01*
X38247Y-38094D01*
X38277Y-38096D01*
X38306Y-38104D01*
X38334Y-38118D01*
X38358Y-38137D01*
X38378Y-38160D01*
X38393Y-38187D01*
X38403Y-38216D01*
X38406Y-38246D01*
X38407Y-38250D01*
X29000Y-45803D02*
X29000Y-46197D01*
X29197Y-46000D02*
X28803Y-46000D01*
X29000Y-46803D02*
X29000Y-47197D01*
X29197Y-47000D02*
X28803Y-47000D01*
X30000Y-45803D02*
X30000Y-46197D01*
X30197Y-46000D02*
X29803Y-46000D01*
X30000Y-46803D02*
X30000Y-47197D01*
X30197Y-47000D02*
X29803Y-47000D01*
X31000Y-45803D02*
X31000Y-46197D01*
X31197Y-46000D02*
X30803Y-46000D01*
X31000Y-46803D02*
X31000Y-47197D01*
X31197Y-47000D02*
X30803Y-47000D01*
X32000Y-45803D02*
X32000Y-46197D01*
X32197Y-46000D02*
X31803Y-46000D01*
X32000Y-46803D02*
X32000Y-47197D01*
X32197Y-47000D02*
X31803Y-47000D01*
X32750Y-31553D02*
X32750Y-31947D01*
X32947Y-31750D02*
X32553Y-31750D01*
X33000Y-45803D02*
X33000Y-46197D01*
X33197Y-46000D02*
X32803Y-46000D01*
X33000Y-46803D02*
X33000Y-47197D01*
X33197Y-47000D02*
X32803Y-47000D01*
X34000Y-45803D02*
X34000Y-46197D01*
X34197Y-46000D02*
X33803Y-46000D01*
X34000Y-46803D02*
X34000Y-47197D01*
X34197Y-47000D02*
X33803Y-47000D01*
X35000Y-45803D02*
X35000Y-46197D01*
X35197Y-46000D02*
X34803Y-46000D01*
X35000Y-46803D02*
X35000Y-47197D01*
X35197Y-47000D02*
X34803Y-47000D01*
X36000Y-45803D02*
X36000Y-46197D01*
X36197Y-46000D02*
X35803Y-46000D01*
X36000Y-46803D02*
X36000Y-47197D01*
X36197Y-47000D02*
X35803Y-47000D01*
X37000Y-45803D02*
X37000Y-46197D01*
X37197Y-46000D02*
X36803Y-46000D01*
X37000Y-46803D02*
X37000Y-47197D01*
X37197Y-47000D02*
X36803Y-47000D01*
X38000Y-45803D02*
X38000Y-46197D01*
X38197Y-46000D02*
X37803Y-46000D01*
X38000Y-46803D02*
X38000Y-47197D01*
X38197Y-47000D02*
X37803Y-47000D01*
X39000Y-45803D02*
X39000Y-46197D01*
X39197Y-46000D02*
X38803Y-46000D01*
X39000Y-46803D02*
X39000Y-47197D01*
X39197Y-47000D02*
X38803Y-47000D01*
X40000Y-45803D02*
X40000Y-46197D01*
X40197Y-46000D02*
X39803Y-46000D01*
X40000Y-46803D02*
X40000Y-47197D01*
X40197Y-47000D02*
X39803Y-47000D01*
X41000Y-45803D02*
X41000Y-46197D01*
X41197Y-46000D02*
X40803Y-46000D01*
X41000Y-46803D02*
X41000Y-47197D01*
X41197Y-47000D02*
X40803Y-47000D01*
X42000Y-45803D02*
X42000Y-46197D01*
X42197Y-46000D02*
X41803Y-46000D01*
X42000Y-46803D02*
X42000Y-47197D01*
X42197Y-47000D02*
X41803Y-47000D01*
X43000Y-45803D02*
X43000Y-46197D01*
X43197Y-46000D02*
X42803Y-46000D01*
X43000Y-46803D02*
X43000Y-47197D01*
X43197Y-47000D02*
X42803Y-47000D01*
X44000Y-45803D02*
X44000Y-46197D01*
X44197Y-46000D02*
X43803Y-46000D01*
X44000Y-46803D02*
X44000Y-47197D01*
X44197Y-47000D02*
X43803Y-47000D01*
X44250Y-31553D02*
X44250Y-31947D01*
X44447Y-31750D02*
X44053Y-31750D01*
X45000Y-45803D02*
X45000Y-46197D01*
X45197Y-46000D02*
X44803Y-46000D01*
X45000Y-46803D02*
X45000Y-47197D01*
X45197Y-47000D02*
X44803Y-47000D01*
X46000Y-45803D02*
X46000Y-46197D01*
X46197Y-46000D02*
X45803Y-46000D01*
X46000Y-46803D02*
X46000Y-47197D01*
X46197Y-47000D02*
X45803Y-47000D01*
X47000Y-45803D02*
X47000Y-46197D01*
X47197Y-46000D02*
X46803Y-46000D01*
X47000Y-46803D02*
X47000Y-47197D01*
X47197Y-47000D02*
X46803Y-47000D01*
X48000Y-45803D02*
X48000Y-46197D01*
X48197Y-46000D02*
X47803Y-46000D01*
X48000Y-46803D02*
X48000Y-47197D01*
X48197Y-47000D02*
X47803Y-47000D01*
X31253Y-31750D02*
X31241Y-31864D01*
X31208Y-31974D01*
X31154Y-32076D01*
X31081Y-32165D01*
X30992Y-32239D01*
X30891Y-32293D01*
X30781Y-32327D01*
X30667Y-32339D01*
X30553Y-32329D01*
X30442Y-32297D01*
X30340Y-32243D01*
X30251Y-32171D01*
X30177Y-32083D01*
X30121Y-31982D01*
X30086Y-31872D01*
X30074Y-31758D01*
X30083Y-31644D01*
X30115Y-31533D01*
X30168Y-31431D01*
X30239Y-31341D01*
X30327Y-31266D01*
X30427Y-31210D01*
X30537Y-31174D01*
X30651Y-31161D01*
X30765Y-31169D01*
X30876Y-31200D01*
X30979Y-31252D01*
X31069Y-31323D01*
X31145Y-31410D01*
X31201Y-31511D01*
X31238Y-31620D01*
X31252Y-31734D01*
X31253Y-31750D01*
X30073Y-31160D02*
X31253Y-32340D01*
X31253Y-31160D02*
X30073Y-32340D01*
X33340Y-29663D02*
X33328Y-29777D01*
X33295Y-29887D01*
X33241Y-29989D01*
X33168Y-30078D01*
X33079Y-30152D01*
X32978Y-30206D01*
X32868Y-30240D01*
X32754Y-30252D01*
X32640Y-30242D01*
X32529Y-30210D01*
X32427Y-30156D01*
X32338Y-30084D01*
X32264Y-29996D01*
X32208Y-29895D01*
X32173Y-29785D01*
X32161Y-29671D01*
X32170Y-29557D01*
X32202Y-29446D01*
X32255Y-29344D01*
X32326Y-29254D01*
X32414Y-29179D01*
X32514Y-29123D01*
X32624Y-29087D01*
X32738Y-29074D01*
X32852Y-29082D01*
X32963Y-29113D01*
X33066Y-29165D01*
X33156Y-29236D01*
X33232Y-29323D01*
X33288Y-29424D01*
X33325Y-29533D01*
X33339Y-29647D01*
X33340Y-29663D01*
X32160Y-29073D02*
X33340Y-30253D01*
X33340Y-29073D02*
X32160Y-30253D01*
X35427Y-31750D02*
X35415Y-31864D01*
X35382Y-31974D01*
X35328Y-32076D01*
X35255Y-32165D01*
X35166Y-32239D01*
X35065Y-32293D01*
X34955Y-32327D01*
X34841Y-32339D01*
X34727Y-32329D01*
X34616Y-32297D01*
X34514Y-32243D01*
X34425Y-32171D01*
X34351Y-32083D01*
X34295Y-31982D01*
X34260Y-31872D01*
X34248Y-31758D01*
X34257Y-31644D01*
X34289Y-31533D01*
X34342Y-31431D01*
X34413Y-31341D01*
X34501Y-31266D01*
X34601Y-31210D01*
X34711Y-31174D01*
X34825Y-31161D01*
X34939Y-31169D01*
X35050Y-31200D01*
X35153Y-31252D01*
X35243Y-31323D01*
X35319Y-31410D01*
X35375Y-31511D01*
X35412Y-31620D01*
X35426Y-31734D01*
X35427Y-31750D01*
X34247Y-31160D02*
X35427Y-32340D01*
X35427Y-31160D02*
X34247Y-32340D01*
X42753Y-31750D02*
X42741Y-31864D01*
X42708Y-31974D01*
X42654Y-32076D01*
X42581Y-32165D01*
X42492Y-32239D01*
X42391Y-32293D01*
X42281Y-32327D01*
X42167Y-32339D01*
X42053Y-32329D01*
X41942Y-32297D01*
X41840Y-32243D01*
X41751Y-32171D01*
X41677Y-32083D01*
X41621Y-31982D01*
X41586Y-31872D01*
X41574Y-31758D01*
X41583Y-31644D01*
X41615Y-31533D01*
X41668Y-31431D01*
X41739Y-31341D01*
X41827Y-31266D01*
X41927Y-31210D01*
X42037Y-31174D01*
X42151Y-31161D01*
X42265Y-31169D01*
X42376Y-31200D01*
X42479Y-31252D01*
X42569Y-31323D01*
X42645Y-31410D01*
X42701Y-31511D01*
X42738Y-31620D01*
X42752Y-31734D01*
X42753Y-31750D01*
X41573Y-31160D02*
X42753Y-32340D01*
X42753Y-31160D02*
X41573Y-32340D01*
X44840Y-29663D02*
X44828Y-29777D01*
X44795Y-29887D01*
X44741Y-29989D01*
X44668Y-30078D01*
X44579Y-30152D01*
X44478Y-30206D01*
X44368Y-30240D01*
X44254Y-30252D01*
X44140Y-30242D01*
X44029Y-30210D01*
X43927Y-30156D01*
X43838Y-30084D01*
X43764Y-29996D01*
X43708Y-29895D01*
X43673Y-29785D01*
X43661Y-29671D01*
X43670Y-29557D01*
X43702Y-29446D01*
X43755Y-29344D01*
X43826Y-29254D01*
X43914Y-29179D01*
X44014Y-29123D01*
X44124Y-29087D01*
X44238Y-29074D01*
X44352Y-29082D01*
X44463Y-29113D01*
X44566Y-29165D01*
X44656Y-29236D01*
X44732Y-29323D01*
X44788Y-29424D01*
X44825Y-29533D01*
X44839Y-29647D01*
X44840Y-29663D01*
X43660Y-29073D02*
X44840Y-30253D01*
X44840Y-29073D02*
X43660Y-30253D01*
X46927Y-31750D02*
X46915Y-31864D01*
X46882Y-31974D01*
X46828Y-32076D01*
X46755Y-32165D01*
X46666Y-32239D01*
X46565Y-32293D01*
X46455Y-32327D01*
X46341Y-32339D01*
X46227Y-32329D01*
X46116Y-32297D01*
X46014Y-32243D01*
X45925Y-32171D01*
X45851Y-32083D01*
X45795Y-31982D01*
X45760Y-31872D01*
X45748Y-31758D01*
X45757Y-31644D01*
X45789Y-31533D01*
X45842Y-31431D01*
X45913Y-31341D01*
X46001Y-31266D01*
X46101Y-31210D01*
X46211Y-31174D01*
X46325Y-31161D01*
X46439Y-31169D01*
X46550Y-31200D01*
X46653Y-31252D01*
X46743Y-31323D01*
X46819Y-31410D01*
X46875Y-31511D01*
X46912Y-31620D01*
X46926Y-31734D01*
X46927Y-31750D01*
X45747Y-31160D02*
X46927Y-32340D01*
X46927Y-31160D02*
X45747Y-32340D01*
G54D12*
X27251Y-50173D02*
X27251Y-49373D01*
X27442Y-49373D01*
X27556Y-49411D01*
X27632Y-49487D01*
X27671Y-49563D01*
X27709Y-49716D01*
X27709Y-49830D01*
X27671Y-49982D01*
X27632Y-50059D01*
X27556Y-50135D01*
X27442Y-50173D01*
X27251Y-50173D01*
X28051Y-50173D02*
X28051Y-49639D01*
X28051Y-49792D02*
X28090Y-49716D01*
X28128Y-49678D01*
X28204Y-49639D01*
X28280Y-49639D01*
X28546Y-50173D02*
X28546Y-49639D01*
X28546Y-49373D02*
X28508Y-49411D01*
X28546Y-49449D01*
X28585Y-49411D01*
X28546Y-49373D01*
X28546Y-49449D01*
X29042Y-50173D02*
X28966Y-50135D01*
X28927Y-50059D01*
X28927Y-49373D01*
X29461Y-50173D02*
X29385Y-50135D01*
X29346Y-50059D01*
X29346Y-49373D01*
X30375Y-50173D02*
X30375Y-49373D01*
X30642Y-49944D01*
X30909Y-49373D01*
X30909Y-50173D01*
X31632Y-50173D02*
X31632Y-49754D01*
X31594Y-49678D01*
X31518Y-49639D01*
X31366Y-49639D01*
X31289Y-49678D01*
X31632Y-50135D02*
X31556Y-50173D01*
X31366Y-50173D01*
X31289Y-50135D01*
X31251Y-50059D01*
X31251Y-49982D01*
X31289Y-49906D01*
X31366Y-49868D01*
X31556Y-49868D01*
X31632Y-49830D01*
X32013Y-49639D02*
X32013Y-50439D01*
X32013Y-49678D02*
X32090Y-49639D01*
X32242Y-49639D01*
X32318Y-49678D01*
X32356Y-49716D01*
X32394Y-49792D01*
X32394Y-50020D01*
X32356Y-50097D01*
X32318Y-50135D01*
X32242Y-50173D01*
X32090Y-50173D01*
X32013Y-50135D01*
X32737Y-50097D02*
X32776Y-50135D01*
X32737Y-50173D01*
X32699Y-50135D01*
X32737Y-50097D01*
X32737Y-50173D01*
X32737Y-49678D02*
X32776Y-49716D01*
X32737Y-49754D01*
X32699Y-49716D01*
X32737Y-49678D01*
X32737Y-49754D01*
X26704Y-51451D02*
X26860Y-51607D01*
X26860Y-51451D02*
X26704Y-51607D01*
X27404Y-51053D02*
X27480Y-51053D01*
X27556Y-51091D01*
X27594Y-51129D01*
X27632Y-51205D01*
X27671Y-51358D01*
X27671Y-51548D01*
X27632Y-51700D01*
X27594Y-51777D01*
X27556Y-51815D01*
X27480Y-51853D01*
X27404Y-51853D01*
X27328Y-51815D01*
X27290Y-51777D01*
X27251Y-51700D01*
X27213Y-51548D01*
X27213Y-51358D01*
X27251Y-51205D01*
X27290Y-51129D01*
X27328Y-51091D01*
X27404Y-51053D01*
X28013Y-51777D02*
X28052Y-51815D01*
X28013Y-51853D01*
X27975Y-51815D01*
X28013Y-51777D01*
X28013Y-51853D01*
X28547Y-51053D02*
X28623Y-51053D01*
X28699Y-51091D01*
X28737Y-51129D01*
X28775Y-51205D01*
X28814Y-51358D01*
X28814Y-51548D01*
X28775Y-51700D01*
X28737Y-51777D01*
X28699Y-51815D01*
X28623Y-51853D01*
X28547Y-51853D01*
X28471Y-51815D01*
X28433Y-51777D01*
X28394Y-51700D01*
X28356Y-51548D01*
X28356Y-51358D01*
X28394Y-51205D01*
X28433Y-51129D01*
X28471Y-51091D01*
X28547Y-51053D01*
X29576Y-51853D02*
X29118Y-51853D01*
X29347Y-51853D02*
X29347Y-51053D01*
X29271Y-51167D01*
X29195Y-51243D01*
X29118Y-51281D01*
X30261Y-51053D02*
X30109Y-51053D01*
X30033Y-51091D01*
X29995Y-51129D01*
X29918Y-51243D01*
X29880Y-51396D01*
X29880Y-51700D01*
X29918Y-51777D01*
X29957Y-51815D01*
X30033Y-51853D01*
X30185Y-51853D01*
X30261Y-51815D01*
X30299Y-51777D01*
X30338Y-51700D01*
X30338Y-51510D01*
X30299Y-51434D01*
X30261Y-51396D01*
X30185Y-51358D01*
X30033Y-51358D01*
X29957Y-51396D01*
X29918Y-51434D01*
X29880Y-51510D01*
X30642Y-51053D02*
X30642Y-51205D01*
X30947Y-51053D02*
X30947Y-51205D01*
X32472Y-51015D02*
X31786Y-52043D01*
X33501Y-51053D02*
X33577Y-51053D01*
X33653Y-51091D01*
X33691Y-51129D01*
X33729Y-51205D01*
X33768Y-51358D01*
X33768Y-51548D01*
X33729Y-51700D01*
X33691Y-51777D01*
X33653Y-51815D01*
X33577Y-51853D01*
X33501Y-51853D01*
X33425Y-51815D01*
X33387Y-51777D01*
X33348Y-51700D01*
X33310Y-51548D01*
X33310Y-51358D01*
X33348Y-51205D01*
X33387Y-51129D01*
X33425Y-51091D01*
X33501Y-51053D01*
X34110Y-51777D02*
X34149Y-51815D01*
X34110Y-51853D01*
X34072Y-51815D01*
X34110Y-51777D01*
X34110Y-51853D01*
X34834Y-51319D02*
X34834Y-51853D01*
X34644Y-51015D02*
X34453Y-51586D01*
X34949Y-51586D01*
X35406Y-51053D02*
X35482Y-51053D01*
X35558Y-51091D01*
X35596Y-51129D01*
X35634Y-51205D01*
X35673Y-51358D01*
X35673Y-51548D01*
X35634Y-51700D01*
X35596Y-51777D01*
X35558Y-51815D01*
X35482Y-51853D01*
X35406Y-51853D01*
X35330Y-51815D01*
X35292Y-51777D01*
X35253Y-51700D01*
X35215Y-51548D01*
X35215Y-51358D01*
X35253Y-51205D01*
X35292Y-51129D01*
X35330Y-51091D01*
X35406Y-51053D01*
X36015Y-51853D02*
X36015Y-51319D01*
X36015Y-51396D02*
X36054Y-51358D01*
X36130Y-51319D01*
X36244Y-51319D01*
X36320Y-51358D01*
X36358Y-51434D01*
X36358Y-51853D01*
X36358Y-51434D02*
X36396Y-51358D01*
X36473Y-51319D01*
X36587Y-51319D01*
X36663Y-51358D01*
X36701Y-51434D01*
X36701Y-51853D01*
X37082Y-51853D02*
X37082Y-51319D01*
X37082Y-51396D02*
X37121Y-51358D01*
X37197Y-51319D01*
X37311Y-51319D01*
X37387Y-51358D01*
X37425Y-51434D01*
X37425Y-51853D01*
X37425Y-51434D02*
X37463Y-51358D01*
X37540Y-51319D01*
X37654Y-51319D01*
X37730Y-51358D01*
X37768Y-51434D01*
X37768Y-51853D01*
X38988Y-52158D02*
X38950Y-52119D01*
X38874Y-52005D01*
X38836Y-51929D01*
X38798Y-51815D01*
X38759Y-51624D01*
X38759Y-51472D01*
X38798Y-51281D01*
X38836Y-51167D01*
X38874Y-51091D01*
X38950Y-50977D01*
X38988Y-50939D01*
X39673Y-51053D02*
X39292Y-51053D01*
X39254Y-51434D01*
X39292Y-51396D01*
X39369Y-51358D01*
X39559Y-51358D01*
X39635Y-51396D01*
X39673Y-51434D01*
X39712Y-51510D01*
X39712Y-51700D01*
X39673Y-51777D01*
X39635Y-51815D01*
X39559Y-51853D01*
X39369Y-51853D01*
X39292Y-51815D01*
X39254Y-51777D01*
X40397Y-51053D02*
X40245Y-51053D01*
X40169Y-51091D01*
X40131Y-51129D01*
X40054Y-51243D01*
X40016Y-51396D01*
X40016Y-51700D01*
X40054Y-51777D01*
X40093Y-51815D01*
X40169Y-51853D01*
X40321Y-51853D01*
X40397Y-51815D01*
X40435Y-51777D01*
X40474Y-51700D01*
X40474Y-51510D01*
X40435Y-51434D01*
X40397Y-51396D01*
X40321Y-51358D01*
X40169Y-51358D01*
X40093Y-51396D01*
X40054Y-51434D01*
X40016Y-51510D01*
X41426Y-51853D02*
X41426Y-51053D01*
X41769Y-51853D02*
X41769Y-51434D01*
X41731Y-51358D01*
X41655Y-51319D01*
X41541Y-51319D01*
X41465Y-51358D01*
X41426Y-51396D01*
X42265Y-51853D02*
X42189Y-51815D01*
X42150Y-51777D01*
X42112Y-51700D01*
X42112Y-51472D01*
X42150Y-51396D01*
X42189Y-51358D01*
X42265Y-51319D01*
X42379Y-51319D01*
X42455Y-51358D01*
X42493Y-51396D01*
X42531Y-51472D01*
X42531Y-51700D01*
X42493Y-51777D01*
X42455Y-51815D01*
X42379Y-51853D01*
X42265Y-51853D01*
X42989Y-51853D02*
X42913Y-51815D01*
X42874Y-51739D01*
X42874Y-51053D01*
X43598Y-51815D02*
X43522Y-51853D01*
X43370Y-51853D01*
X43293Y-51815D01*
X43255Y-51739D01*
X43255Y-51434D01*
X43293Y-51358D01*
X43370Y-51319D01*
X43522Y-51319D01*
X43598Y-51358D01*
X43636Y-51434D01*
X43636Y-51510D01*
X43255Y-51586D01*
X43941Y-51815D02*
X44018Y-51853D01*
X44170Y-51853D01*
X44246Y-51815D01*
X44284Y-51739D01*
X44284Y-51700D01*
X44246Y-51624D01*
X44170Y-51586D01*
X44056Y-51586D01*
X43979Y-51548D01*
X43941Y-51472D01*
X43941Y-51434D01*
X43979Y-51358D01*
X44056Y-51319D01*
X44170Y-51319D01*
X44246Y-51358D01*
X44551Y-52158D02*
X44589Y-52119D01*
X44666Y-52005D01*
X44704Y-51929D01*
X44742Y-51815D01*
X44780Y-51624D01*
X44780Y-51472D01*
X44742Y-51281D01*
X44704Y-51167D01*
X44666Y-51091D01*
X44589Y-50977D01*
X44551Y-50939D01*
G54D10*
X26860Y-52584D02*
X26857Y-52614D01*
X26848Y-52643D01*
X26833Y-52670D01*
X26814Y-52694D01*
X26790Y-52714D01*
X26763Y-52728D01*
X26734Y-52737D01*
X26704Y-52740D01*
X26674Y-52738D01*
X26645Y-52729D01*
X26618Y-52715D01*
X26594Y-52696D01*
X26574Y-52672D01*
X26559Y-52645D01*
X26550Y-52616D01*
X26547Y-52586D01*
X26549Y-52556D01*
X26558Y-52527D01*
X26572Y-52499D01*
X26591Y-52475D01*
X26614Y-52456D01*
X26641Y-52441D01*
X26670Y-52431D01*
X26700Y-52428D01*
X26730Y-52430D01*
X26759Y-52438D01*
X26787Y-52452D01*
X26811Y-52471D01*
X26831Y-52494D01*
X26846Y-52521D01*
X26856Y-52550D01*
X26859Y-52580D01*
X26860Y-52584D01*
G54D12*
X27404Y-52108D02*
X27480Y-52108D01*
X27556Y-52146D01*
X27594Y-52184D01*
X27632Y-52260D01*
X27671Y-52413D01*
X27671Y-52603D01*
X27632Y-52755D01*
X27594Y-52832D01*
X27556Y-52870D01*
X27480Y-52908D01*
X27404Y-52908D01*
X27328Y-52870D01*
X27290Y-52832D01*
X27251Y-52755D01*
X27213Y-52603D01*
X27213Y-52413D01*
X27251Y-52260D01*
X27290Y-52184D01*
X27328Y-52146D01*
X27404Y-52108D01*
X28013Y-52832D02*
X28052Y-52870D01*
X28013Y-52908D01*
X27975Y-52870D01*
X28013Y-52832D01*
X28013Y-52908D01*
X28547Y-52108D02*
X28623Y-52108D01*
X28699Y-52146D01*
X28737Y-52184D01*
X28775Y-52260D01*
X28814Y-52413D01*
X28814Y-52603D01*
X28775Y-52755D01*
X28737Y-52832D01*
X28699Y-52870D01*
X28623Y-52908D01*
X28547Y-52908D01*
X28471Y-52870D01*
X28433Y-52832D01*
X28394Y-52755D01*
X28356Y-52603D01*
X28356Y-52413D01*
X28394Y-52260D01*
X28433Y-52184D01*
X28471Y-52146D01*
X28547Y-52108D01*
X29080Y-52108D02*
X29576Y-52108D01*
X29309Y-52413D01*
X29423Y-52413D01*
X29499Y-52451D01*
X29537Y-52489D01*
X29576Y-52565D01*
X29576Y-52755D01*
X29537Y-52832D01*
X29499Y-52870D01*
X29423Y-52908D01*
X29195Y-52908D01*
X29118Y-52870D01*
X29080Y-52832D01*
X29880Y-52184D02*
X29918Y-52146D01*
X29995Y-52108D01*
X30185Y-52108D01*
X30261Y-52146D01*
X30299Y-52184D01*
X30338Y-52260D01*
X30338Y-52336D01*
X30299Y-52451D01*
X29842Y-52908D01*
X30338Y-52908D01*
X30642Y-52108D02*
X30642Y-52260D01*
X30947Y-52108D02*
X30947Y-52260D01*
X32472Y-52070D02*
X31786Y-53098D01*
X33501Y-52108D02*
X33577Y-52108D01*
X33653Y-52146D01*
X33691Y-52184D01*
X33729Y-52260D01*
X33768Y-52413D01*
X33768Y-52603D01*
X33729Y-52755D01*
X33691Y-52832D01*
X33653Y-52870D01*
X33577Y-52908D01*
X33501Y-52908D01*
X33425Y-52870D01*
X33387Y-52832D01*
X33348Y-52755D01*
X33310Y-52603D01*
X33310Y-52413D01*
X33348Y-52260D01*
X33387Y-52184D01*
X33425Y-52146D01*
X33501Y-52108D01*
X34110Y-52832D02*
X34149Y-52870D01*
X34110Y-52908D01*
X34072Y-52870D01*
X34110Y-52832D01*
X34110Y-52908D01*
X34606Y-52451D02*
X34530Y-52413D01*
X34491Y-52374D01*
X34453Y-52298D01*
X34453Y-52260D01*
X34491Y-52184D01*
X34530Y-52146D01*
X34606Y-52108D01*
X34758Y-52108D01*
X34834Y-52146D01*
X34872Y-52184D01*
X34911Y-52260D01*
X34911Y-52298D01*
X34872Y-52374D01*
X34834Y-52413D01*
X34758Y-52451D01*
X34606Y-52451D01*
X34530Y-52489D01*
X34491Y-52527D01*
X34453Y-52603D01*
X34453Y-52755D01*
X34491Y-52832D01*
X34530Y-52870D01*
X34606Y-52908D01*
X34758Y-52908D01*
X34834Y-52870D01*
X34872Y-52832D01*
X34911Y-52755D01*
X34911Y-52603D01*
X34872Y-52527D01*
X34834Y-52489D01*
X34758Y-52451D01*
X35406Y-52108D02*
X35482Y-52108D01*
X35558Y-52146D01*
X35596Y-52184D01*
X35634Y-52260D01*
X35673Y-52413D01*
X35673Y-52603D01*
X35634Y-52755D01*
X35596Y-52832D01*
X35558Y-52870D01*
X35482Y-52908D01*
X35406Y-52908D01*
X35330Y-52870D01*
X35292Y-52832D01*
X35253Y-52755D01*
X35215Y-52603D01*
X35215Y-52413D01*
X35253Y-52260D01*
X35292Y-52184D01*
X35330Y-52146D01*
X35406Y-52108D01*
X36015Y-52908D02*
X36015Y-52374D01*
X36015Y-52451D02*
X36054Y-52413D01*
X36130Y-52374D01*
X36244Y-52374D01*
X36320Y-52413D01*
X36358Y-52489D01*
X36358Y-52908D01*
X36358Y-52489D02*
X36396Y-52413D01*
X36473Y-52374D01*
X36587Y-52374D01*
X36663Y-52413D01*
X36701Y-52489D01*
X36701Y-52908D01*
X37082Y-52908D02*
X37082Y-52374D01*
X37082Y-52451D02*
X37121Y-52413D01*
X37197Y-52374D01*
X37311Y-52374D01*
X37387Y-52413D01*
X37425Y-52489D01*
X37425Y-52908D01*
X37425Y-52489D02*
X37463Y-52413D01*
X37540Y-52374D01*
X37654Y-52374D01*
X37730Y-52413D01*
X37768Y-52489D01*
X37768Y-52908D01*
X38988Y-53213D02*
X38950Y-53174D01*
X38874Y-53060D01*
X38836Y-52984D01*
X38798Y-52870D01*
X38759Y-52679D01*
X38759Y-52527D01*
X38798Y-52336D01*
X38836Y-52222D01*
X38874Y-52146D01*
X38950Y-52032D01*
X38988Y-51994D01*
X39254Y-52184D02*
X39292Y-52146D01*
X39369Y-52108D01*
X39559Y-52108D01*
X39635Y-52146D01*
X39673Y-52184D01*
X39712Y-52260D01*
X39712Y-52336D01*
X39673Y-52451D01*
X39216Y-52908D01*
X39712Y-52908D01*
X40664Y-52908D02*
X40664Y-52108D01*
X41007Y-52908D02*
X41007Y-52489D01*
X40969Y-52413D01*
X40893Y-52374D01*
X40779Y-52374D01*
X40703Y-52413D01*
X40664Y-52451D01*
X41503Y-52908D02*
X41427Y-52870D01*
X41388Y-52832D01*
X41350Y-52755D01*
X41350Y-52527D01*
X41388Y-52451D01*
X41427Y-52413D01*
X41503Y-52374D01*
X41617Y-52374D01*
X41693Y-52413D01*
X41731Y-52451D01*
X41769Y-52527D01*
X41769Y-52755D01*
X41731Y-52832D01*
X41693Y-52870D01*
X41617Y-52908D01*
X41503Y-52908D01*
X42227Y-52908D02*
X42151Y-52870D01*
X42112Y-52794D01*
X42112Y-52108D01*
X42836Y-52870D02*
X42760Y-52908D01*
X42608Y-52908D01*
X42531Y-52870D01*
X42493Y-52794D01*
X42493Y-52489D01*
X42531Y-52413D01*
X42608Y-52374D01*
X42760Y-52374D01*
X42836Y-52413D01*
X42874Y-52489D01*
X42874Y-52565D01*
X42493Y-52641D01*
X43179Y-52870D02*
X43256Y-52908D01*
X43408Y-52908D01*
X43484Y-52870D01*
X43522Y-52794D01*
X43522Y-52755D01*
X43484Y-52679D01*
X43408Y-52641D01*
X43294Y-52641D01*
X43217Y-52603D01*
X43179Y-52527D01*
X43179Y-52489D01*
X43217Y-52413D01*
X43294Y-52374D01*
X43408Y-52374D01*
X43484Y-52413D01*
X43789Y-53213D02*
X43827Y-53174D01*
X43904Y-53060D01*
X43942Y-52984D01*
X43980Y-52870D01*
X44018Y-52679D01*
X44018Y-52527D01*
X43980Y-52336D01*
X43942Y-52222D01*
X43904Y-52146D01*
X43827Y-52032D01*
X43789Y-51994D01*
X26664Y-53442D02*
X26664Y-53836D01*
X26861Y-53639D02*
X26467Y-53639D01*
X27404Y-53163D02*
X27480Y-53163D01*
X27556Y-53201D01*
X27594Y-53239D01*
X27632Y-53315D01*
X27671Y-53468D01*
X27671Y-53658D01*
X27632Y-53810D01*
X27594Y-53887D01*
X27556Y-53925D01*
X27480Y-53963D01*
X27404Y-53963D01*
X27328Y-53925D01*
X27290Y-53887D01*
X27251Y-53810D01*
X27213Y-53658D01*
X27213Y-53468D01*
X27251Y-53315D01*
X27290Y-53239D01*
X27328Y-53201D01*
X27404Y-53163D01*
X28013Y-53887D02*
X28052Y-53925D01*
X28013Y-53963D01*
X27975Y-53925D01*
X28013Y-53887D01*
X28013Y-53963D01*
X28547Y-53163D02*
X28623Y-53163D01*
X28699Y-53201D01*
X28737Y-53239D01*
X28775Y-53315D01*
X28814Y-53468D01*
X28814Y-53658D01*
X28775Y-53810D01*
X28737Y-53887D01*
X28699Y-53925D01*
X28623Y-53963D01*
X28547Y-53963D01*
X28471Y-53925D01*
X28433Y-53887D01*
X28394Y-53810D01*
X28356Y-53658D01*
X28356Y-53468D01*
X28394Y-53315D01*
X28433Y-53239D01*
X28471Y-53201D01*
X28547Y-53163D01*
X29080Y-53163D02*
X29576Y-53163D01*
X29309Y-53468D01*
X29423Y-53468D01*
X29499Y-53506D01*
X29537Y-53544D01*
X29576Y-53620D01*
X29576Y-53810D01*
X29537Y-53887D01*
X29499Y-53925D01*
X29423Y-53963D01*
X29195Y-53963D01*
X29118Y-53925D01*
X29080Y-53887D01*
X29957Y-53963D02*
X30109Y-53963D01*
X30185Y-53925D01*
X30223Y-53887D01*
X30299Y-53772D01*
X30338Y-53620D01*
X30338Y-53315D01*
X30299Y-53239D01*
X30261Y-53201D01*
X30185Y-53163D01*
X30033Y-53163D01*
X29957Y-53201D01*
X29918Y-53239D01*
X29880Y-53315D01*
X29880Y-53506D01*
X29918Y-53582D01*
X29957Y-53620D01*
X30033Y-53658D01*
X30185Y-53658D01*
X30261Y-53620D01*
X30299Y-53582D01*
X30338Y-53506D01*
X30642Y-53163D02*
X30642Y-53315D01*
X30947Y-53163D02*
X30947Y-53315D01*
X32472Y-53125D02*
X31786Y-54153D01*
X33768Y-53963D02*
X33310Y-53963D01*
X33539Y-53963D02*
X33539Y-53163D01*
X33463Y-53277D01*
X33387Y-53353D01*
X33310Y-53391D01*
X34110Y-53887D02*
X34149Y-53925D01*
X34110Y-53963D01*
X34072Y-53925D01*
X34110Y-53887D01*
X34110Y-53963D01*
X34644Y-53163D02*
X34720Y-53163D01*
X34796Y-53201D01*
X34834Y-53239D01*
X34872Y-53315D01*
X34911Y-53468D01*
X34911Y-53658D01*
X34872Y-53810D01*
X34834Y-53887D01*
X34796Y-53925D01*
X34720Y-53963D01*
X34644Y-53963D01*
X34568Y-53925D01*
X34530Y-53887D01*
X34491Y-53810D01*
X34453Y-53658D01*
X34453Y-53468D01*
X34491Y-53315D01*
X34530Y-53239D01*
X34568Y-53201D01*
X34644Y-53163D01*
X35406Y-53163D02*
X35482Y-53163D01*
X35558Y-53201D01*
X35596Y-53239D01*
X35634Y-53315D01*
X35673Y-53468D01*
X35673Y-53658D01*
X35634Y-53810D01*
X35596Y-53887D01*
X35558Y-53925D01*
X35482Y-53963D01*
X35406Y-53963D01*
X35330Y-53925D01*
X35292Y-53887D01*
X35253Y-53810D01*
X35215Y-53658D01*
X35215Y-53468D01*
X35253Y-53315D01*
X35292Y-53239D01*
X35330Y-53201D01*
X35406Y-53163D01*
X36015Y-53963D02*
X36015Y-53429D01*
X36015Y-53506D02*
X36054Y-53468D01*
X36130Y-53429D01*
X36244Y-53429D01*
X36320Y-53468D01*
X36358Y-53544D01*
X36358Y-53963D01*
X36358Y-53544D02*
X36396Y-53468D01*
X36473Y-53429D01*
X36587Y-53429D01*
X36663Y-53468D01*
X36701Y-53544D01*
X36701Y-53963D01*
X37082Y-53963D02*
X37082Y-53429D01*
X37082Y-53506D02*
X37121Y-53468D01*
X37197Y-53429D01*
X37311Y-53429D01*
X37387Y-53468D01*
X37425Y-53544D01*
X37425Y-53963D01*
X37425Y-53544D02*
X37463Y-53468D01*
X37540Y-53429D01*
X37654Y-53429D01*
X37730Y-53468D01*
X37768Y-53544D01*
X37768Y-53963D01*
X38988Y-54268D02*
X38950Y-54229D01*
X38874Y-54115D01*
X38836Y-54039D01*
X38798Y-53925D01*
X38759Y-53734D01*
X38759Y-53582D01*
X38798Y-53391D01*
X38836Y-53277D01*
X38874Y-53201D01*
X38950Y-53087D01*
X38988Y-53049D01*
X39635Y-53429D02*
X39635Y-53963D01*
X39445Y-53125D02*
X39254Y-53696D01*
X39750Y-53696D01*
X40016Y-53239D02*
X40054Y-53201D01*
X40131Y-53163D01*
X40321Y-53163D01*
X40397Y-53201D01*
X40435Y-53239D01*
X40474Y-53315D01*
X40474Y-53391D01*
X40435Y-53506D01*
X39978Y-53963D01*
X40474Y-53963D01*
X41426Y-53963D02*
X41426Y-53163D01*
X41769Y-53963D02*
X41769Y-53544D01*
X41731Y-53468D01*
X41655Y-53429D01*
X41541Y-53429D01*
X41465Y-53468D01*
X41426Y-53506D01*
X42265Y-53963D02*
X42189Y-53925D01*
X42150Y-53887D01*
X42112Y-53810D01*
X42112Y-53582D01*
X42150Y-53506D01*
X42189Y-53468D01*
X42265Y-53429D01*
X42379Y-53429D01*
X42455Y-53468D01*
X42493Y-53506D01*
X42531Y-53582D01*
X42531Y-53810D01*
X42493Y-53887D01*
X42455Y-53925D01*
X42379Y-53963D01*
X42265Y-53963D01*
X42989Y-53963D02*
X42913Y-53925D01*
X42874Y-53849D01*
X42874Y-53163D01*
X43598Y-53925D02*
X43522Y-53963D01*
X43370Y-53963D01*
X43293Y-53925D01*
X43255Y-53849D01*
X43255Y-53544D01*
X43293Y-53468D01*
X43370Y-53429D01*
X43522Y-53429D01*
X43598Y-53468D01*
X43636Y-53544D01*
X43636Y-53620D01*
X43255Y-53696D01*
X43941Y-53925D02*
X44018Y-53963D01*
X44170Y-53963D01*
X44246Y-53925D01*
X44284Y-53849D01*
X44284Y-53810D01*
X44246Y-53734D01*
X44170Y-53696D01*
X44056Y-53696D01*
X43979Y-53658D01*
X43941Y-53582D01*
X43941Y-53544D01*
X43979Y-53468D01*
X44056Y-53429D01*
X44170Y-53429D01*
X44246Y-53468D01*
X44551Y-54268D02*
X44589Y-54229D01*
X44666Y-54115D01*
X44704Y-54039D01*
X44742Y-53925D01*
X44780Y-53734D01*
X44780Y-53582D01*
X44742Y-53391D01*
X44704Y-53277D01*
X44666Y-53201D01*
X44589Y-53087D01*
X44551Y-53049D01*
G54D10*
X26860Y-54694D02*
X26848Y-54808D01*
X26815Y-54918D01*
X26761Y-55020D01*
X26688Y-55109D01*
X26599Y-55183D01*
X26498Y-55237D01*
X26388Y-55271D01*
X26274Y-55283D01*
X26160Y-55273D01*
X26049Y-55241D01*
X25947Y-55187D01*
X25858Y-55115D01*
X25784Y-55027D01*
X25728Y-54926D01*
X25693Y-54816D01*
X25681Y-54702D01*
X25690Y-54588D01*
X25722Y-54477D01*
X25775Y-54375D01*
X25846Y-54285D01*
X25934Y-54210D01*
X26034Y-54154D01*
X26144Y-54118D01*
X26258Y-54105D01*
X26372Y-54113D01*
X26483Y-54144D01*
X26586Y-54196D01*
X26676Y-54267D01*
X26752Y-54354D01*
X26808Y-54455D01*
X26845Y-54564D01*
X26859Y-54678D01*
X26860Y-54694D01*
X25680Y-54104D02*
X26860Y-55284D01*
X26860Y-54104D02*
X25680Y-55284D01*
G54D12*
X27404Y-54218D02*
X27480Y-54218D01*
X27556Y-54256D01*
X27594Y-54294D01*
X27632Y-54370D01*
X27671Y-54523D01*
X27671Y-54713D01*
X27632Y-54865D01*
X27594Y-54942D01*
X27556Y-54980D01*
X27480Y-55018D01*
X27404Y-55018D01*
X27328Y-54980D01*
X27290Y-54942D01*
X27251Y-54865D01*
X27213Y-54713D01*
X27213Y-54523D01*
X27251Y-54370D01*
X27290Y-54294D01*
X27328Y-54256D01*
X27404Y-54218D01*
X28013Y-54942D02*
X28052Y-54980D01*
X28013Y-55018D01*
X27975Y-54980D01*
X28013Y-54942D01*
X28013Y-55018D01*
X28814Y-55018D02*
X28356Y-55018D01*
X28585Y-55018D02*
X28585Y-54218D01*
X28509Y-54332D01*
X28433Y-54408D01*
X28356Y-54446D01*
X29576Y-55018D02*
X29118Y-55018D01*
X29347Y-55018D02*
X29347Y-54218D01*
X29271Y-54332D01*
X29195Y-54408D01*
X29118Y-54446D01*
X30033Y-54561D02*
X29957Y-54523D01*
X29918Y-54484D01*
X29880Y-54408D01*
X29880Y-54370D01*
X29918Y-54294D01*
X29957Y-54256D01*
X30033Y-54218D01*
X30185Y-54218D01*
X30261Y-54256D01*
X30299Y-54294D01*
X30338Y-54370D01*
X30338Y-54408D01*
X30299Y-54484D01*
X30261Y-54523D01*
X30185Y-54561D01*
X30033Y-54561D01*
X29957Y-54599D01*
X29918Y-54637D01*
X29880Y-54713D01*
X29880Y-54865D01*
X29918Y-54942D01*
X29957Y-54980D01*
X30033Y-55018D01*
X30185Y-55018D01*
X30261Y-54980D01*
X30299Y-54942D01*
X30338Y-54865D01*
X30338Y-54713D01*
X30299Y-54637D01*
X30261Y-54599D01*
X30185Y-54561D01*
X30642Y-54218D02*
X30642Y-54370D01*
X30947Y-54218D02*
X30947Y-54370D01*
X32472Y-54180D02*
X31786Y-55208D01*
X33272Y-54218D02*
X33768Y-54218D01*
X33501Y-54523D01*
X33615Y-54523D01*
X33691Y-54561D01*
X33729Y-54599D01*
X33768Y-54675D01*
X33768Y-54865D01*
X33729Y-54942D01*
X33691Y-54980D01*
X33615Y-55018D01*
X33387Y-55018D01*
X33310Y-54980D01*
X33272Y-54942D01*
X34110Y-54942D02*
X34149Y-54980D01*
X34110Y-55018D01*
X34072Y-54980D01*
X34110Y-54942D01*
X34110Y-55018D01*
X34644Y-54218D02*
X34720Y-54218D01*
X34796Y-54256D01*
X34834Y-54294D01*
X34872Y-54370D01*
X34911Y-54523D01*
X34911Y-54713D01*
X34872Y-54865D01*
X34834Y-54942D01*
X34796Y-54980D01*
X34720Y-55018D01*
X34644Y-55018D01*
X34568Y-54980D01*
X34530Y-54942D01*
X34491Y-54865D01*
X34453Y-54713D01*
X34453Y-54523D01*
X34491Y-54370D01*
X34530Y-54294D01*
X34568Y-54256D01*
X34644Y-54218D01*
X35406Y-54218D02*
X35482Y-54218D01*
X35558Y-54256D01*
X35596Y-54294D01*
X35634Y-54370D01*
X35673Y-54523D01*
X35673Y-54713D01*
X35634Y-54865D01*
X35596Y-54942D01*
X35558Y-54980D01*
X35482Y-55018D01*
X35406Y-55018D01*
X35330Y-54980D01*
X35292Y-54942D01*
X35253Y-54865D01*
X35215Y-54713D01*
X35215Y-54523D01*
X35253Y-54370D01*
X35292Y-54294D01*
X35330Y-54256D01*
X35406Y-54218D01*
X36015Y-55018D02*
X36015Y-54484D01*
X36015Y-54561D02*
X36054Y-54523D01*
X36130Y-54484D01*
X36244Y-54484D01*
X36320Y-54523D01*
X36358Y-54599D01*
X36358Y-55018D01*
X36358Y-54599D02*
X36396Y-54523D01*
X36473Y-54484D01*
X36587Y-54484D01*
X36663Y-54523D01*
X36701Y-54599D01*
X36701Y-55018D01*
X37082Y-55018D02*
X37082Y-54484D01*
X37082Y-54561D02*
X37121Y-54523D01*
X37197Y-54484D01*
X37311Y-54484D01*
X37387Y-54523D01*
X37425Y-54599D01*
X37425Y-55018D01*
X37425Y-54599D02*
X37463Y-54523D01*
X37540Y-54484D01*
X37654Y-54484D01*
X37730Y-54523D01*
X37768Y-54599D01*
X37768Y-55018D01*
X38988Y-55323D02*
X38950Y-55284D01*
X38874Y-55170D01*
X38836Y-55094D01*
X38798Y-54980D01*
X38759Y-54789D01*
X38759Y-54637D01*
X38798Y-54446D01*
X38836Y-54332D01*
X38874Y-54256D01*
X38950Y-54142D01*
X38988Y-54104D01*
X39635Y-54218D02*
X39483Y-54218D01*
X39407Y-54256D01*
X39369Y-54294D01*
X39292Y-54408D01*
X39254Y-54561D01*
X39254Y-54865D01*
X39292Y-54942D01*
X39331Y-54980D01*
X39407Y-55018D01*
X39559Y-55018D01*
X39635Y-54980D01*
X39673Y-54942D01*
X39712Y-54865D01*
X39712Y-54675D01*
X39673Y-54599D01*
X39635Y-54561D01*
X39559Y-54523D01*
X39407Y-54523D01*
X39331Y-54561D01*
X39292Y-54599D01*
X39254Y-54675D01*
X40664Y-55018D02*
X40664Y-54218D01*
X41007Y-55018D02*
X41007Y-54599D01*
X40969Y-54523D01*
X40893Y-54484D01*
X40779Y-54484D01*
X40703Y-54523D01*
X40664Y-54561D01*
X41503Y-55018D02*
X41427Y-54980D01*
X41388Y-54942D01*
X41350Y-54865D01*
X41350Y-54637D01*
X41388Y-54561D01*
X41427Y-54523D01*
X41503Y-54484D01*
X41617Y-54484D01*
X41693Y-54523D01*
X41731Y-54561D01*
X41769Y-54637D01*
X41769Y-54865D01*
X41731Y-54942D01*
X41693Y-54980D01*
X41617Y-55018D01*
X41503Y-55018D01*
X42227Y-55018D02*
X42151Y-54980D01*
X42112Y-54904D01*
X42112Y-54218D01*
X42836Y-54980D02*
X42760Y-55018D01*
X42608Y-55018D01*
X42531Y-54980D01*
X42493Y-54904D01*
X42493Y-54599D01*
X42531Y-54523D01*
X42608Y-54484D01*
X42760Y-54484D01*
X42836Y-54523D01*
X42874Y-54599D01*
X42874Y-54675D01*
X42493Y-54751D01*
X43179Y-54980D02*
X43256Y-55018D01*
X43408Y-55018D01*
X43484Y-54980D01*
X43522Y-54904D01*
X43522Y-54865D01*
X43484Y-54789D01*
X43408Y-54751D01*
X43294Y-54751D01*
X43217Y-54713D01*
X43179Y-54637D01*
X43179Y-54599D01*
X43217Y-54523D01*
X43294Y-54484D01*
X43408Y-54484D01*
X43484Y-54523D01*
X43789Y-55323D02*
X43827Y-55284D01*
X43904Y-55170D01*
X43942Y-55094D01*
X43980Y-54980D01*
X44018Y-54789D01*
X44018Y-54637D01*
X43980Y-54446D01*
X43942Y-54332D01*
X43904Y-54256D01*
X43827Y-54142D01*
X43789Y-54104D01*
M02*
