G04 (created by PCBNEW-RS274X (2010-00-09 BZR 23xx)-stable) date Пнд 20 Июн 2011 14:16:42*
G01*
G70*
G90*
%MOIN*%
G04 Gerber Fmt 3.4, Leading zero omitted, Abs format*
%FSLAX34Y34*%
G04 APERTURE LIST*
%ADD10C,0.006000*%
%ADD11C,0.015000*%
%ADD12R,0.060000X0.060000*%
%ADD13C,0.060000*%
%ADD14R,0.076800X0.098400*%
%ADD15C,0.078700*%
%ADD16R,0.026000X0.016000*%
%ADD17R,0.045000X0.025000*%
%ADD18R,0.025000X0.045000*%
%ADD19C,0.157500*%
%ADD20C,0.035400*%
%ADD21C,0.007900*%
%ADD22C,0.023600*%
%ADD23C,0.010000*%
G04 APERTURE END LIST*
G54D10*
G54D11*
X27000Y-48250D02*
X27000Y-48000D01*
X50000Y-48250D02*
X27000Y-48250D01*
X50000Y-28500D02*
X50000Y-48250D01*
X27000Y-28500D02*
X50000Y-28500D01*
X27000Y-48250D02*
X27000Y-28500D01*
G54D12*
X29000Y-47000D03*
G54D13*
X29000Y-46000D03*
X30000Y-47000D03*
X30000Y-46000D03*
X31000Y-47000D03*
X31000Y-46000D03*
X32000Y-47000D03*
X32000Y-46000D03*
X33000Y-47000D03*
X33000Y-46000D03*
X34000Y-47000D03*
X34000Y-46000D03*
X35000Y-47000D03*
X35000Y-46000D03*
X36000Y-47000D03*
X36000Y-46000D03*
X37000Y-47000D03*
X37000Y-46000D03*
X38000Y-47000D03*
X38000Y-46000D03*
X39000Y-47000D03*
X39000Y-46000D03*
X40000Y-47000D03*
X40000Y-46000D03*
X41000Y-47000D03*
X41000Y-46000D03*
X42000Y-47000D03*
X42000Y-46000D03*
X43000Y-47000D03*
X43000Y-46000D03*
X44000Y-47000D03*
X44000Y-46000D03*
X45000Y-47000D03*
X45000Y-46000D03*
X46000Y-47000D03*
X46000Y-46000D03*
X47000Y-47000D03*
X47000Y-46000D03*
X48000Y-47000D03*
X48000Y-46000D03*
G54D14*
X30900Y-41500D03*
X32100Y-41500D03*
X34900Y-40000D03*
X36100Y-40000D03*
X48350Y-38000D03*
X47150Y-38000D03*
X47150Y-40000D03*
X48350Y-40000D03*
X43150Y-41500D03*
X44350Y-41500D03*
X36100Y-38000D03*
X34900Y-38000D03*
G54D15*
X38250Y-36250D03*
X38250Y-38250D03*
G54D16*
X45850Y-41760D03*
X45850Y-41240D03*
X45850Y-41500D03*
X46650Y-41240D03*
X46650Y-41760D03*
G54D17*
X39750Y-36950D03*
X39750Y-37550D03*
G54D18*
X44200Y-40250D03*
X44800Y-40250D03*
G54D17*
X43500Y-39300D03*
X43500Y-38700D03*
X44500Y-38700D03*
X44500Y-39300D03*
G54D18*
X36550Y-35750D03*
X35950Y-35750D03*
G54D17*
X38250Y-39450D03*
X38250Y-40050D03*
G54D18*
X31700Y-40250D03*
X32300Y-40250D03*
G54D17*
X32250Y-38700D03*
X32250Y-39300D03*
X31250Y-39300D03*
X31250Y-38700D03*
G54D16*
X33600Y-41760D03*
X33600Y-41240D03*
X33600Y-41500D03*
X34400Y-41240D03*
X34400Y-41760D03*
G54D19*
X32750Y-29663D03*
X34837Y-31750D03*
X30663Y-31750D03*
G54D15*
X32750Y-31750D03*
G54D19*
X44250Y-29663D03*
X46337Y-31750D03*
X42163Y-31750D03*
G54D15*
X44250Y-31750D03*
G54D20*
X39250Y-40500D03*
X41250Y-38000D03*
X42250Y-36200D03*
X41250Y-36250D03*
X29500Y-38550D03*
X44500Y-41000D03*
X32500Y-41200D03*
X34750Y-39500D03*
X32250Y-39300D03*
X31500Y-38750D03*
X29000Y-40750D03*
X48500Y-33250D03*
X48500Y-36250D03*
X44500Y-37250D03*
X41750Y-34000D03*
X30250Y-34250D03*
X42750Y-35000D03*
X30750Y-35250D03*
X42250Y-36750D03*
X42250Y-38750D03*
X28000Y-47250D03*
X39500Y-35500D03*
X49250Y-35500D03*
X30000Y-37000D03*
X29500Y-36750D03*
X29500Y-35500D03*
X28250Y-35250D03*
X28250Y-36750D03*
X28250Y-38250D03*
X28250Y-39750D03*
X28250Y-41500D03*
X29500Y-42500D03*
X29500Y-44500D03*
X29500Y-40250D03*
X46500Y-39500D03*
X32500Y-42500D03*
X38250Y-41500D03*
X38250Y-40000D03*
X43000Y-39000D03*
X44250Y-38750D03*
X45000Y-43500D03*
X43000Y-43500D03*
X48250Y-38000D03*
X36250Y-40000D03*
X36750Y-36500D03*
X36250Y-38000D03*
X36100Y-38000D03*
X32250Y-38700D03*
X30500Y-39000D03*
X47200Y-38000D03*
X34700Y-38000D03*
X32500Y-37250D03*
X32000Y-37250D03*
X47250Y-39500D03*
X44500Y-39250D03*
X43750Y-38750D03*
G54D21*
X41250Y-36250D02*
X41250Y-38000D01*
G54D11*
X33750Y-42250D02*
X35500Y-42250D01*
X33600Y-42100D02*
X33750Y-42250D01*
X33600Y-42100D02*
X33600Y-41760D01*
X37250Y-40500D02*
X39250Y-40500D01*
X35500Y-42250D02*
X37250Y-40500D01*
X42500Y-40500D02*
X42750Y-40500D01*
X42750Y-40500D02*
X43500Y-40500D01*
X43500Y-40500D02*
X44350Y-41350D01*
X44350Y-41500D02*
X44350Y-41350D01*
X39250Y-40500D02*
X42500Y-40500D01*
G54D21*
X45850Y-41760D02*
X46240Y-41760D01*
X46240Y-41240D02*
X45850Y-41240D01*
X46250Y-41250D02*
X46240Y-41240D01*
X46250Y-41750D02*
X46250Y-41250D01*
X46240Y-41760D02*
X46250Y-41750D01*
G54D11*
X44350Y-41500D02*
X44350Y-42350D01*
X43750Y-47750D02*
X44500Y-47750D01*
X44500Y-47750D02*
X44500Y-42750D01*
X44500Y-42750D02*
X44350Y-42600D01*
X44350Y-42600D02*
X44350Y-42350D01*
X43750Y-47750D02*
X43000Y-47000D01*
G54D21*
X42200Y-36250D02*
X41250Y-36250D01*
X42200Y-36250D02*
X42250Y-36200D01*
X32300Y-40250D02*
X32300Y-39800D01*
X32250Y-39750D02*
X32300Y-39800D01*
X29500Y-39750D02*
X32250Y-39750D01*
X29500Y-39750D02*
X29500Y-38550D01*
X44800Y-40250D02*
X44800Y-40700D01*
X44800Y-40700D02*
X44500Y-41000D01*
X44350Y-41500D02*
X44350Y-41150D01*
X44350Y-41150D02*
X44500Y-41000D01*
G54D11*
X44350Y-41500D02*
X44500Y-41500D01*
X44500Y-41500D02*
X44760Y-41240D01*
X44760Y-41240D02*
X45850Y-41240D01*
X33600Y-41760D02*
X33990Y-41760D01*
X33990Y-41240D02*
X33600Y-41240D01*
X34000Y-41250D02*
X33990Y-41240D01*
X34000Y-41750D02*
X34000Y-41250D01*
X33990Y-41760D02*
X34000Y-41750D01*
X32500Y-41200D02*
X33560Y-41200D01*
X33560Y-41200D02*
X33600Y-41240D01*
G54D21*
X32300Y-40250D02*
X32300Y-41000D01*
X32300Y-41000D02*
X32500Y-41200D01*
X32200Y-41500D02*
X32100Y-41500D01*
X32500Y-41200D02*
X32200Y-41500D01*
X34900Y-40000D02*
X34900Y-39650D01*
X34900Y-39650D02*
X34750Y-39500D01*
G54D11*
X34900Y-40000D02*
X32950Y-40000D01*
X32950Y-40000D02*
X32250Y-39300D01*
X34400Y-41760D02*
X34740Y-41760D01*
X34740Y-41760D02*
X34900Y-41600D01*
X34900Y-41600D02*
X34900Y-40000D01*
G54D21*
X31450Y-38700D02*
X31250Y-38700D01*
X31500Y-38750D02*
X31450Y-38700D01*
X29000Y-33250D02*
X29000Y-40750D01*
X48500Y-33250D02*
X29000Y-33250D01*
X45500Y-36250D02*
X48500Y-36250D01*
X44500Y-37250D02*
X45500Y-36250D01*
X30500Y-34000D02*
X41750Y-34000D01*
X30250Y-34250D02*
X30500Y-34000D01*
X31000Y-35000D02*
X42750Y-35000D01*
X30750Y-35250D02*
X31000Y-35000D01*
X42250Y-38750D02*
X42250Y-36750D01*
X36000Y-47000D02*
X36000Y-47250D01*
X28500Y-47750D02*
X28000Y-47250D01*
X35500Y-47750D02*
X28500Y-47750D01*
X36000Y-47250D02*
X35500Y-47750D01*
X49250Y-35500D02*
X39500Y-35500D01*
G54D22*
X34000Y-46000D02*
X34000Y-45250D01*
X34000Y-45250D02*
X33250Y-44500D01*
X29500Y-35500D02*
X29500Y-36750D01*
X28250Y-36750D02*
X28250Y-35250D01*
X28250Y-39750D02*
X28250Y-38250D01*
X28500Y-41500D02*
X28250Y-41500D01*
X29500Y-42500D02*
X28500Y-41500D01*
X33250Y-44500D02*
X29500Y-44500D01*
X48350Y-38000D02*
X48350Y-40000D01*
G54D21*
X31700Y-40250D02*
X29500Y-40250D01*
X45700Y-38700D02*
X44500Y-38700D01*
X46500Y-39500D02*
X45700Y-38700D01*
G54D22*
X45000Y-43500D02*
X46250Y-43500D01*
X48350Y-41400D02*
X48350Y-40000D01*
X46250Y-43500D02*
X48350Y-41400D01*
X34000Y-45250D02*
X43000Y-45250D01*
X32500Y-42500D02*
X32500Y-43750D01*
G54D21*
X33600Y-41500D02*
X33000Y-41500D01*
X33000Y-41500D02*
X33250Y-41500D01*
X33250Y-41500D02*
X33250Y-42500D01*
X33250Y-42500D02*
X32500Y-42500D01*
G54D22*
X43150Y-41500D02*
X38250Y-41500D01*
X38250Y-40000D02*
X38250Y-40050D01*
X44200Y-40250D02*
X44200Y-40000D01*
X44200Y-40000D02*
X43500Y-39300D01*
G54D21*
X43300Y-39300D02*
X43500Y-39300D01*
X43000Y-39000D02*
X43300Y-39300D01*
X44300Y-38700D02*
X44500Y-38700D01*
X44250Y-38750D02*
X44300Y-38700D01*
X45850Y-41500D02*
X45500Y-41500D01*
X45500Y-41500D02*
X45250Y-41750D01*
X45250Y-41750D02*
X45250Y-43250D01*
X45250Y-43250D02*
X45000Y-43500D01*
G54D22*
X38250Y-40050D02*
X42750Y-40050D01*
X42750Y-40050D02*
X43500Y-39300D01*
G54D21*
X48250Y-38000D02*
X48350Y-38000D01*
G54D22*
X36100Y-40000D02*
X36100Y-38000D01*
G54D21*
X35950Y-35750D02*
X35950Y-36200D01*
X36250Y-40000D02*
X36100Y-40000D01*
X36250Y-36500D02*
X36750Y-36500D01*
X35950Y-36200D02*
X36250Y-36500D01*
X36250Y-38000D02*
X36100Y-38000D01*
X31250Y-39300D02*
X30550Y-39300D01*
X30550Y-39300D02*
X30500Y-39250D01*
X30500Y-39250D02*
X30500Y-39000D01*
X30900Y-41500D02*
X30900Y-41050D01*
X30900Y-41050D02*
X31700Y-40250D01*
G54D22*
X34000Y-45250D02*
X32500Y-43750D01*
X30900Y-42850D02*
X30900Y-41500D01*
X31000Y-43000D02*
X30900Y-42850D01*
X31750Y-43000D02*
X31000Y-43000D01*
X32500Y-43750D02*
X31750Y-43000D01*
G54D21*
X43000Y-46000D02*
X43000Y-45250D01*
G54D22*
X43000Y-45250D02*
X43000Y-43500D01*
X43000Y-43500D02*
X43000Y-41650D01*
X43000Y-41650D02*
X43150Y-41500D01*
X36100Y-40000D02*
X38200Y-40000D01*
X38200Y-40000D02*
X38250Y-40050D01*
G54D21*
X47200Y-38000D02*
X47150Y-38000D01*
X34700Y-38000D02*
X34900Y-38000D01*
X37500Y-37000D02*
X38250Y-36250D01*
X32750Y-37000D02*
X37500Y-37000D01*
X32500Y-37250D02*
X32750Y-37000D01*
X36550Y-35750D02*
X37750Y-35750D01*
X37750Y-35750D02*
X38250Y-36250D01*
X39750Y-36950D02*
X38950Y-36950D01*
X38950Y-36950D02*
X38250Y-36250D01*
X38250Y-38000D02*
X38250Y-38250D01*
X37500Y-37250D02*
X38250Y-38000D01*
X34250Y-37250D02*
X37500Y-37250D01*
X34000Y-37500D02*
X34250Y-37250D01*
X33750Y-37750D02*
X34000Y-37500D01*
X32500Y-37750D02*
X33750Y-37750D01*
X32000Y-37250D02*
X32500Y-37750D01*
X38250Y-38250D02*
X39050Y-38250D01*
X39050Y-38250D02*
X39750Y-37550D01*
X38250Y-39450D02*
X38250Y-38250D01*
X47150Y-40000D02*
X45500Y-40000D01*
X44800Y-39300D02*
X44500Y-39300D01*
X45500Y-40000D02*
X44800Y-39300D01*
X47150Y-40000D02*
X47150Y-39600D01*
X47150Y-39600D02*
X47250Y-39500D01*
X43500Y-38700D02*
X43700Y-38700D01*
X43700Y-38700D02*
X44000Y-39000D01*
X44000Y-39000D02*
X44000Y-39250D01*
X44000Y-39250D02*
X44050Y-39300D01*
X44050Y-39300D02*
X44500Y-39300D01*
X44500Y-39250D02*
X44500Y-39300D01*
X46650Y-41760D02*
X47240Y-41760D01*
X47240Y-41760D02*
X47250Y-41750D01*
X47250Y-41750D02*
X47250Y-40100D01*
X47250Y-40100D02*
X47150Y-40000D01*
X43750Y-38750D02*
X43500Y-38700D01*
G54D10*
G36*
X49700Y-38450D02*
X49700Y-28800D01*
X44819Y-28800D01*
X44903Y-28940D01*
X44250Y-29592D01*
X43597Y-28940D01*
X43680Y-28800D01*
X40800Y-28800D01*
X40800Y-32961D01*
X41440Y-32961D01*
X41440Y-32403D01*
X41297Y-32318D01*
X41149Y-31961D01*
X41145Y-31557D01*
X41297Y-31182D01*
X41440Y-31097D01*
X42092Y-31750D01*
X41440Y-32403D01*
X41440Y-32961D01*
X41970Y-32961D01*
X41970Y-32768D01*
X41595Y-32616D01*
X41510Y-32473D01*
X42163Y-31821D01*
X42163Y-31679D01*
X41510Y-31027D01*
X41595Y-30884D01*
X41952Y-30736D01*
X42356Y-30732D01*
X42731Y-30884D01*
X42816Y-31027D01*
X42163Y-31679D01*
X42163Y-31821D01*
X42816Y-32473D01*
X42731Y-32616D01*
X42374Y-32764D01*
X41970Y-32768D01*
X41970Y-32961D01*
X42886Y-32961D01*
X42886Y-32403D01*
X42234Y-31750D01*
X42886Y-31097D01*
X43029Y-31182D01*
X43177Y-31539D01*
X43181Y-31943D01*
X43029Y-32318D01*
X42886Y-32403D01*
X42886Y-32961D01*
X43527Y-32961D01*
X43527Y-30316D01*
X43384Y-30231D01*
X43236Y-29874D01*
X43232Y-29470D01*
X43384Y-29095D01*
X43527Y-29010D01*
X44179Y-29663D01*
X43527Y-30316D01*
X43527Y-32961D01*
X44121Y-32961D01*
X44121Y-32393D01*
X43885Y-32294D01*
X43705Y-32113D01*
X43607Y-31877D01*
X43607Y-31621D01*
X43706Y-31385D01*
X43887Y-31205D01*
X44057Y-31134D01*
X44057Y-30681D01*
X43682Y-30529D01*
X43597Y-30386D01*
X44250Y-29734D01*
X44903Y-30386D01*
X44818Y-30529D01*
X44461Y-30677D01*
X44057Y-30681D01*
X44057Y-31134D01*
X44123Y-31107D01*
X44379Y-31107D01*
X44615Y-31206D01*
X44795Y-31387D01*
X44893Y-31623D01*
X44893Y-31879D01*
X44794Y-32115D01*
X44613Y-32295D01*
X44377Y-32393D01*
X44121Y-32393D01*
X44121Y-32961D01*
X44973Y-32961D01*
X44973Y-30316D01*
X44321Y-29663D01*
X44973Y-29010D01*
X45116Y-29095D01*
X45264Y-29452D01*
X45268Y-29856D01*
X45116Y-30231D01*
X44973Y-30316D01*
X44973Y-32961D01*
X45614Y-32961D01*
X45614Y-32403D01*
X45471Y-32318D01*
X45323Y-31961D01*
X45319Y-31557D01*
X45471Y-31182D01*
X45614Y-31097D01*
X46266Y-31750D01*
X45614Y-32403D01*
X45614Y-32961D01*
X46144Y-32961D01*
X46144Y-32768D01*
X45769Y-32616D01*
X45684Y-32473D01*
X46337Y-31821D01*
X46337Y-31679D01*
X45684Y-31027D01*
X45769Y-30884D01*
X46126Y-30736D01*
X46530Y-30732D01*
X46905Y-30884D01*
X46990Y-31027D01*
X46337Y-31679D01*
X46337Y-31821D01*
X46990Y-32473D01*
X46905Y-32616D01*
X46548Y-32764D01*
X46144Y-32768D01*
X46144Y-32961D01*
X47060Y-32961D01*
X47060Y-32403D01*
X46408Y-31750D01*
X47060Y-31097D01*
X47203Y-31182D01*
X47351Y-31539D01*
X47355Y-31943D01*
X47203Y-32318D01*
X47060Y-32403D01*
X47060Y-32961D01*
X48185Y-32961D01*
X48259Y-32888D01*
X48416Y-32823D01*
X48586Y-32823D01*
X48743Y-32889D01*
X48862Y-33009D01*
X48927Y-33166D01*
X48927Y-33336D01*
X48861Y-33493D01*
X48741Y-33612D01*
X48584Y-33677D01*
X48414Y-33677D01*
X48257Y-33611D01*
X48185Y-33539D01*
X42292Y-33539D01*
X44050Y-34215D01*
X44050Y-35211D01*
X48935Y-35211D01*
X49009Y-35138D01*
X49166Y-35073D01*
X49336Y-35073D01*
X49493Y-35139D01*
X49612Y-35259D01*
X49677Y-35416D01*
X49677Y-35586D01*
X49611Y-35743D01*
X49491Y-35862D01*
X49334Y-35927D01*
X49164Y-35927D01*
X49007Y-35861D01*
X48935Y-35789D01*
X44050Y-35789D01*
X44050Y-37450D01*
X44121Y-37450D01*
X44073Y-37334D01*
X44073Y-37164D01*
X44139Y-37007D01*
X44259Y-36888D01*
X44416Y-36823D01*
X44518Y-36823D01*
X45295Y-36046D01*
X45342Y-36014D01*
X45389Y-35983D01*
X45500Y-35961D01*
X48185Y-35961D01*
X48259Y-35888D01*
X48416Y-35823D01*
X48586Y-35823D01*
X48743Y-35889D01*
X48862Y-36009D01*
X48927Y-36166D01*
X48927Y-36336D01*
X48861Y-36493D01*
X48741Y-36612D01*
X48584Y-36677D01*
X48414Y-36677D01*
X48257Y-36611D01*
X48185Y-36539D01*
X45619Y-36539D01*
X44927Y-37231D01*
X44927Y-37336D01*
X44879Y-37450D01*
X45050Y-37450D01*
X45050Y-38450D01*
X46517Y-38450D01*
X46517Y-37458D01*
X46555Y-37367D01*
X46625Y-37297D01*
X46717Y-37259D01*
X47584Y-37259D01*
X47675Y-37297D01*
X47745Y-37367D01*
X47749Y-37379D01*
X47755Y-37367D01*
X47825Y-37297D01*
X47917Y-37259D01*
X48238Y-37258D01*
X48300Y-37320D01*
X48300Y-37950D01*
X48300Y-38050D01*
X48400Y-38050D01*
X48400Y-37950D01*
X48400Y-37320D01*
X48462Y-37258D01*
X48783Y-37259D01*
X48875Y-37297D01*
X48945Y-37367D01*
X48983Y-37458D01*
X48983Y-37557D01*
X48984Y-37888D01*
X48922Y-37950D01*
X48400Y-37950D01*
X48400Y-38050D01*
X48922Y-38050D01*
X48984Y-38112D01*
X48983Y-38443D01*
X48983Y-38450D01*
X49700Y-38450D01*
X49700Y-38450D01*
G37*
G54D23*
X49700Y-38450D02*
X49700Y-28800D01*
X44819Y-28800D01*
X44903Y-28940D01*
X44250Y-29592D01*
X43597Y-28940D01*
X43680Y-28800D01*
X40800Y-28800D01*
X40800Y-32961D01*
X41440Y-32961D01*
X41440Y-32403D01*
X41297Y-32318D01*
X41149Y-31961D01*
X41145Y-31557D01*
X41297Y-31182D01*
X41440Y-31097D01*
X42092Y-31750D01*
X41440Y-32403D01*
X41440Y-32961D01*
X41970Y-32961D01*
X41970Y-32768D01*
X41595Y-32616D01*
X41510Y-32473D01*
X42163Y-31821D01*
X42163Y-31679D01*
X41510Y-31027D01*
X41595Y-30884D01*
X41952Y-30736D01*
X42356Y-30732D01*
X42731Y-30884D01*
X42816Y-31027D01*
X42163Y-31679D01*
X42163Y-31821D01*
X42816Y-32473D01*
X42731Y-32616D01*
X42374Y-32764D01*
X41970Y-32768D01*
X41970Y-32961D01*
X42886Y-32961D01*
X42886Y-32403D01*
X42234Y-31750D01*
X42886Y-31097D01*
X43029Y-31182D01*
X43177Y-31539D01*
X43181Y-31943D01*
X43029Y-32318D01*
X42886Y-32403D01*
X42886Y-32961D01*
X43527Y-32961D01*
X43527Y-30316D01*
X43384Y-30231D01*
X43236Y-29874D01*
X43232Y-29470D01*
X43384Y-29095D01*
X43527Y-29010D01*
X44179Y-29663D01*
X43527Y-30316D01*
X43527Y-32961D01*
X44121Y-32961D01*
X44121Y-32393D01*
X43885Y-32294D01*
X43705Y-32113D01*
X43607Y-31877D01*
X43607Y-31621D01*
X43706Y-31385D01*
X43887Y-31205D01*
X44057Y-31134D01*
X44057Y-30681D01*
X43682Y-30529D01*
X43597Y-30386D01*
X44250Y-29734D01*
X44903Y-30386D01*
X44818Y-30529D01*
X44461Y-30677D01*
X44057Y-30681D01*
X44057Y-31134D01*
X44123Y-31107D01*
X44379Y-31107D01*
X44615Y-31206D01*
X44795Y-31387D01*
X44893Y-31623D01*
X44893Y-31879D01*
X44794Y-32115D01*
X44613Y-32295D01*
X44377Y-32393D01*
X44121Y-32393D01*
X44121Y-32961D01*
X44973Y-32961D01*
X44973Y-30316D01*
X44321Y-29663D01*
X44973Y-29010D01*
X45116Y-29095D01*
X45264Y-29452D01*
X45268Y-29856D01*
X45116Y-30231D01*
X44973Y-30316D01*
X44973Y-32961D01*
X45614Y-32961D01*
X45614Y-32403D01*
X45471Y-32318D01*
X45323Y-31961D01*
X45319Y-31557D01*
X45471Y-31182D01*
X45614Y-31097D01*
X46266Y-31750D01*
X45614Y-32403D01*
X45614Y-32961D01*
X46144Y-32961D01*
X46144Y-32768D01*
X45769Y-32616D01*
X45684Y-32473D01*
X46337Y-31821D01*
X46337Y-31679D01*
X45684Y-31027D01*
X45769Y-30884D01*
X46126Y-30736D01*
X46530Y-30732D01*
X46905Y-30884D01*
X46990Y-31027D01*
X46337Y-31679D01*
X46337Y-31821D01*
X46990Y-32473D01*
X46905Y-32616D01*
X46548Y-32764D01*
X46144Y-32768D01*
X46144Y-32961D01*
X47060Y-32961D01*
X47060Y-32403D01*
X46408Y-31750D01*
X47060Y-31097D01*
X47203Y-31182D01*
X47351Y-31539D01*
X47355Y-31943D01*
X47203Y-32318D01*
X47060Y-32403D01*
X47060Y-32961D01*
X48185Y-32961D01*
X48259Y-32888D01*
X48416Y-32823D01*
X48586Y-32823D01*
X48743Y-32889D01*
X48862Y-33009D01*
X48927Y-33166D01*
X48927Y-33336D01*
X48861Y-33493D01*
X48741Y-33612D01*
X48584Y-33677D01*
X48414Y-33677D01*
X48257Y-33611D01*
X48185Y-33539D01*
X42292Y-33539D01*
X44050Y-34215D01*
X44050Y-35211D01*
X48935Y-35211D01*
X49009Y-35138D01*
X49166Y-35073D01*
X49336Y-35073D01*
X49493Y-35139D01*
X49612Y-35259D01*
X49677Y-35416D01*
X49677Y-35586D01*
X49611Y-35743D01*
X49491Y-35862D01*
X49334Y-35927D01*
X49164Y-35927D01*
X49007Y-35861D01*
X48935Y-35789D01*
X44050Y-35789D01*
X44050Y-37450D01*
X44121Y-37450D01*
X44073Y-37334D01*
X44073Y-37164D01*
X44139Y-37007D01*
X44259Y-36888D01*
X44416Y-36823D01*
X44518Y-36823D01*
X45295Y-36046D01*
X45342Y-36014D01*
X45389Y-35983D01*
X45500Y-35961D01*
X48185Y-35961D01*
X48259Y-35888D01*
X48416Y-35823D01*
X48586Y-35823D01*
X48743Y-35889D01*
X48862Y-36009D01*
X48927Y-36166D01*
X48927Y-36336D01*
X48861Y-36493D01*
X48741Y-36612D01*
X48584Y-36677D01*
X48414Y-36677D01*
X48257Y-36611D01*
X48185Y-36539D01*
X45619Y-36539D01*
X44927Y-37231D01*
X44927Y-37336D01*
X44879Y-37450D01*
X45050Y-37450D01*
X45050Y-38450D01*
X46517Y-38450D01*
X46517Y-37458D01*
X46555Y-37367D01*
X46625Y-37297D01*
X46717Y-37259D01*
X47584Y-37259D01*
X47675Y-37297D01*
X47745Y-37367D01*
X47749Y-37379D01*
X47755Y-37367D01*
X47825Y-37297D01*
X47917Y-37259D01*
X48238Y-37258D01*
X48300Y-37320D01*
X48300Y-37950D01*
X48300Y-38050D01*
X48400Y-38050D01*
X48400Y-37950D01*
X48400Y-37320D01*
X48462Y-37258D01*
X48783Y-37259D01*
X48875Y-37297D01*
X48945Y-37367D01*
X48983Y-37458D01*
X48983Y-37557D01*
X48984Y-37888D01*
X48922Y-37950D01*
X48400Y-37950D01*
X48400Y-38050D01*
X48922Y-38050D01*
X48984Y-38112D01*
X48983Y-38443D01*
X48983Y-38450D01*
X49700Y-38450D01*
G54D10*
G36*
X36950Y-38950D02*
X36950Y-37539D01*
X36733Y-37539D01*
X36733Y-37557D01*
X36734Y-37888D01*
X36672Y-37950D01*
X36150Y-37950D01*
X36150Y-37539D01*
X36050Y-37539D01*
X36050Y-37950D01*
X35533Y-37950D01*
X35533Y-38050D01*
X36050Y-38050D01*
X36050Y-38680D01*
X35988Y-38742D01*
X35667Y-38741D01*
X35575Y-38703D01*
X35505Y-38633D01*
X35500Y-38621D01*
X35495Y-38633D01*
X35425Y-38703D01*
X35333Y-38741D01*
X34466Y-38741D01*
X34375Y-38703D01*
X34305Y-38633D01*
X34267Y-38541D01*
X34267Y-37641D01*
X34206Y-37701D01*
X34204Y-37705D01*
X33954Y-37954D01*
X33861Y-38017D01*
X33750Y-38039D01*
X32653Y-38039D01*
X33033Y-38950D01*
X36212Y-38950D01*
X36212Y-38742D01*
X36150Y-38680D01*
X36150Y-38050D01*
X36672Y-38050D01*
X36734Y-38112D01*
X36733Y-38443D01*
X36733Y-38542D01*
X36695Y-38633D01*
X36625Y-38703D01*
X36533Y-38741D01*
X36212Y-38742D01*
X36212Y-38950D01*
X36950Y-38950D01*
X36950Y-38950D01*
G37*
G54D23*
X36950Y-38950D02*
X36950Y-37539D01*
X36733Y-37539D01*
X36733Y-37557D01*
X36734Y-37888D01*
X36672Y-37950D01*
X36150Y-37950D01*
X36150Y-37539D01*
X36050Y-37539D01*
X36050Y-37950D01*
X35533Y-37950D01*
X35533Y-38050D01*
X36050Y-38050D01*
X36050Y-38680D01*
X35988Y-38742D01*
X35667Y-38741D01*
X35575Y-38703D01*
X35505Y-38633D01*
X35500Y-38621D01*
X35495Y-38633D01*
X35425Y-38703D01*
X35333Y-38741D01*
X34466Y-38741D01*
X34375Y-38703D01*
X34305Y-38633D01*
X34267Y-38541D01*
X34267Y-37641D01*
X34206Y-37701D01*
X34204Y-37705D01*
X33954Y-37954D01*
X33861Y-38017D01*
X33750Y-38039D01*
X32653Y-38039D01*
X33033Y-38950D01*
X36212Y-38950D01*
X36212Y-38742D01*
X36150Y-38680D01*
X36150Y-38050D01*
X36672Y-38050D01*
X36734Y-38112D01*
X36733Y-38443D01*
X36733Y-38542D01*
X36695Y-38633D01*
X36625Y-38703D01*
X36533Y-38741D01*
X36212Y-38742D01*
X36212Y-38950D01*
X36950Y-38950D01*
G54D10*
G36*
X32250Y-36896D02*
X32259Y-36888D01*
X32416Y-36823D01*
X32518Y-36823D01*
X32545Y-36796D01*
X32639Y-36733D01*
X32750Y-36711D01*
X35838Y-36711D01*
X35838Y-36225D01*
X35776Y-36224D01*
X35684Y-36186D01*
X35614Y-36116D01*
X35576Y-36025D01*
X35576Y-35926D01*
X35575Y-35862D01*
X35637Y-35800D01*
X35900Y-35800D01*
X35900Y-36163D01*
X35838Y-36225D01*
X35838Y-36711D01*
X36950Y-36711D01*
X36950Y-36039D01*
X36918Y-36039D01*
X36886Y-36116D01*
X36816Y-36186D01*
X36724Y-36224D01*
X36375Y-36224D01*
X36284Y-36186D01*
X36249Y-36151D01*
X36216Y-36186D01*
X36124Y-36224D01*
X36062Y-36225D01*
X36000Y-36163D01*
X36000Y-35800D01*
X36000Y-35700D01*
X36000Y-35337D01*
X36048Y-35288D01*
X35851Y-35288D01*
X35900Y-35337D01*
X35900Y-35700D01*
X35637Y-35700D01*
X35575Y-35638D01*
X35576Y-35574D01*
X35576Y-35475D01*
X35614Y-35384D01*
X35684Y-35314D01*
X35746Y-35288D01*
X31507Y-35289D01*
X32159Y-36853D01*
X32243Y-36889D01*
X32250Y-36896D01*
X32250Y-36896D01*
G37*
G54D23*
X32250Y-36896D02*
X32259Y-36888D01*
X32416Y-36823D01*
X32518Y-36823D01*
X32545Y-36796D01*
X32639Y-36733D01*
X32750Y-36711D01*
X35838Y-36711D01*
X35838Y-36225D01*
X35776Y-36224D01*
X35684Y-36186D01*
X35614Y-36116D01*
X35576Y-36025D01*
X35576Y-35926D01*
X35575Y-35862D01*
X35637Y-35800D01*
X35900Y-35800D01*
X35900Y-36163D01*
X35838Y-36225D01*
X35838Y-36711D01*
X36950Y-36711D01*
X36950Y-36039D01*
X36918Y-36039D01*
X36886Y-36116D01*
X36816Y-36186D01*
X36724Y-36224D01*
X36375Y-36224D01*
X36284Y-36186D01*
X36249Y-36151D01*
X36216Y-36186D01*
X36124Y-36224D01*
X36062Y-36225D01*
X36000Y-36163D01*
X36000Y-35800D01*
X36000Y-35700D01*
X36000Y-35337D01*
X36048Y-35288D01*
X35851Y-35288D01*
X35900Y-35337D01*
X35900Y-35700D01*
X35637Y-35700D01*
X35575Y-35638D01*
X35576Y-35574D01*
X35576Y-35475D01*
X35614Y-35384D01*
X35684Y-35314D01*
X35746Y-35288D01*
X31507Y-35289D01*
X32159Y-36853D01*
X32243Y-36889D01*
X32250Y-36896D01*
G54D10*
G36*
X36450Y-32961D02*
X36450Y-28800D01*
X33319Y-28800D01*
X33403Y-28940D01*
X32750Y-29592D01*
X32097Y-28940D01*
X32180Y-28800D01*
X29300Y-28800D01*
X29300Y-32950D01*
X29940Y-32950D01*
X29940Y-32403D01*
X29797Y-32318D01*
X29649Y-31961D01*
X29645Y-31557D01*
X29797Y-31182D01*
X29940Y-31097D01*
X30592Y-31750D01*
X29940Y-32403D01*
X29940Y-32950D01*
X30470Y-32950D01*
X30470Y-32768D01*
X30095Y-32616D01*
X30010Y-32473D01*
X30663Y-31821D01*
X30663Y-31679D01*
X30010Y-31027D01*
X30095Y-30884D01*
X30452Y-30736D01*
X30856Y-30732D01*
X31231Y-30884D01*
X31316Y-31027D01*
X30663Y-31679D01*
X30663Y-31821D01*
X31316Y-32473D01*
X31231Y-32616D01*
X30874Y-32764D01*
X30470Y-32768D01*
X30470Y-32950D01*
X30533Y-32950D01*
X30537Y-32961D01*
X31386Y-32961D01*
X31386Y-32403D01*
X30734Y-31750D01*
X31386Y-31097D01*
X31529Y-31182D01*
X31677Y-31539D01*
X31681Y-31943D01*
X31529Y-32318D01*
X31386Y-32403D01*
X31386Y-32961D01*
X32027Y-32961D01*
X32027Y-30316D01*
X31884Y-30231D01*
X31736Y-29874D01*
X31732Y-29470D01*
X31884Y-29095D01*
X32027Y-29010D01*
X32679Y-29663D01*
X32027Y-30316D01*
X32027Y-32961D01*
X32621Y-32961D01*
X32621Y-32393D01*
X32385Y-32294D01*
X32205Y-32113D01*
X32107Y-31877D01*
X32107Y-31621D01*
X32206Y-31385D01*
X32387Y-31205D01*
X32557Y-31134D01*
X32557Y-30681D01*
X32182Y-30529D01*
X32097Y-30386D01*
X32750Y-29734D01*
X33403Y-30386D01*
X33318Y-30529D01*
X32961Y-30677D01*
X32557Y-30681D01*
X32557Y-31134D01*
X32623Y-31107D01*
X32879Y-31107D01*
X33115Y-31206D01*
X33295Y-31387D01*
X33393Y-31623D01*
X33393Y-31879D01*
X33294Y-32115D01*
X33113Y-32295D01*
X32877Y-32393D01*
X32621Y-32393D01*
X32621Y-32961D01*
X33473Y-32961D01*
X33473Y-30316D01*
X32821Y-29663D01*
X33473Y-29010D01*
X33616Y-29095D01*
X33764Y-29452D01*
X33768Y-29856D01*
X33616Y-30231D01*
X33473Y-30316D01*
X33473Y-32961D01*
X34114Y-32961D01*
X34114Y-32403D01*
X33971Y-32318D01*
X33823Y-31961D01*
X33819Y-31557D01*
X33971Y-31182D01*
X34114Y-31097D01*
X34766Y-31750D01*
X34114Y-32403D01*
X34114Y-32961D01*
X34644Y-32961D01*
X34644Y-32768D01*
X34269Y-32616D01*
X34184Y-32473D01*
X34837Y-31821D01*
X34837Y-31679D01*
X34184Y-31027D01*
X34269Y-30884D01*
X34626Y-30736D01*
X35030Y-30732D01*
X35405Y-30884D01*
X35490Y-31027D01*
X34837Y-31679D01*
X34837Y-31821D01*
X35490Y-32473D01*
X35405Y-32616D01*
X35048Y-32764D01*
X34644Y-32768D01*
X34644Y-32961D01*
X35560Y-32961D01*
X35560Y-32403D01*
X34908Y-31750D01*
X35560Y-31097D01*
X35703Y-31182D01*
X35851Y-31539D01*
X35855Y-31943D01*
X35703Y-32318D01*
X35560Y-32403D01*
X35560Y-32961D01*
X36450Y-32961D01*
X36450Y-32961D01*
G37*
G54D23*
X36450Y-32961D02*
X36450Y-28800D01*
X33319Y-28800D01*
X33403Y-28940D01*
X32750Y-29592D01*
X32097Y-28940D01*
X32180Y-28800D01*
X29300Y-28800D01*
X29300Y-32950D01*
X29940Y-32950D01*
X29940Y-32403D01*
X29797Y-32318D01*
X29649Y-31961D01*
X29645Y-31557D01*
X29797Y-31182D01*
X29940Y-31097D01*
X30592Y-31750D01*
X29940Y-32403D01*
X29940Y-32950D01*
X30470Y-32950D01*
X30470Y-32768D01*
X30095Y-32616D01*
X30010Y-32473D01*
X30663Y-31821D01*
X30663Y-31679D01*
X30010Y-31027D01*
X30095Y-30884D01*
X30452Y-30736D01*
X30856Y-30732D01*
X31231Y-30884D01*
X31316Y-31027D01*
X30663Y-31679D01*
X30663Y-31821D01*
X31316Y-32473D01*
X31231Y-32616D01*
X30874Y-32764D01*
X30470Y-32768D01*
X30470Y-32950D01*
X30533Y-32950D01*
X30537Y-32961D01*
X31386Y-32961D01*
X31386Y-32403D01*
X30734Y-31750D01*
X31386Y-31097D01*
X31529Y-31182D01*
X31677Y-31539D01*
X31681Y-31943D01*
X31529Y-32318D01*
X31386Y-32403D01*
X31386Y-32961D01*
X32027Y-32961D01*
X32027Y-30316D01*
X31884Y-30231D01*
X31736Y-29874D01*
X31732Y-29470D01*
X31884Y-29095D01*
X32027Y-29010D01*
X32679Y-29663D01*
X32027Y-30316D01*
X32027Y-32961D01*
X32621Y-32961D01*
X32621Y-32393D01*
X32385Y-32294D01*
X32205Y-32113D01*
X32107Y-31877D01*
X32107Y-31621D01*
X32206Y-31385D01*
X32387Y-31205D01*
X32557Y-31134D01*
X32557Y-30681D01*
X32182Y-30529D01*
X32097Y-30386D01*
X32750Y-29734D01*
X33403Y-30386D01*
X33318Y-30529D01*
X32961Y-30677D01*
X32557Y-30681D01*
X32557Y-31134D01*
X32623Y-31107D01*
X32879Y-31107D01*
X33115Y-31206D01*
X33295Y-31387D01*
X33393Y-31623D01*
X33393Y-31879D01*
X33294Y-32115D01*
X33113Y-32295D01*
X32877Y-32393D01*
X32621Y-32393D01*
X32621Y-32961D01*
X33473Y-32961D01*
X33473Y-30316D01*
X32821Y-29663D01*
X33473Y-29010D01*
X33616Y-29095D01*
X33764Y-29452D01*
X33768Y-29856D01*
X33616Y-30231D01*
X33473Y-30316D01*
X33473Y-32961D01*
X34114Y-32961D01*
X34114Y-32403D01*
X33971Y-32318D01*
X33823Y-31961D01*
X33819Y-31557D01*
X33971Y-31182D01*
X34114Y-31097D01*
X34766Y-31750D01*
X34114Y-32403D01*
X34114Y-32961D01*
X34644Y-32961D01*
X34644Y-32768D01*
X34269Y-32616D01*
X34184Y-32473D01*
X34837Y-31821D01*
X34837Y-31679D01*
X34184Y-31027D01*
X34269Y-30884D01*
X34626Y-30736D01*
X35030Y-30732D01*
X35405Y-30884D01*
X35490Y-31027D01*
X34837Y-31679D01*
X34837Y-31821D01*
X35490Y-32473D01*
X35405Y-32616D01*
X35048Y-32764D01*
X34644Y-32768D01*
X34644Y-32961D01*
X35560Y-32961D01*
X35560Y-32403D01*
X34908Y-31750D01*
X35560Y-31097D01*
X35703Y-31182D01*
X35851Y-31539D01*
X35855Y-31943D01*
X35703Y-32318D01*
X35560Y-32403D01*
X35560Y-32961D01*
X36450Y-32961D01*
G54D10*
G36*
X49700Y-47950D02*
X49700Y-38800D01*
X44963Y-38800D01*
X44975Y-38812D01*
X44974Y-38874D01*
X44936Y-38966D01*
X44901Y-38999D01*
X44936Y-39034D01*
X44945Y-39056D01*
X45004Y-39096D01*
X45619Y-39711D01*
X46517Y-39711D01*
X46517Y-39458D01*
X46555Y-39367D01*
X46625Y-39297D01*
X46717Y-39259D01*
X46888Y-39259D01*
X46889Y-39257D01*
X47009Y-39138D01*
X47166Y-39073D01*
X47336Y-39073D01*
X47493Y-39139D01*
X47612Y-39259D01*
X47617Y-39273D01*
X47675Y-39297D01*
X47745Y-39367D01*
X47749Y-39379D01*
X47755Y-39367D01*
X47825Y-39297D01*
X47917Y-39259D01*
X48238Y-39258D01*
X48300Y-39320D01*
X48300Y-39950D01*
X48300Y-40050D01*
X48300Y-40680D01*
X48238Y-40742D01*
X47917Y-40741D01*
X47825Y-40703D01*
X47755Y-40633D01*
X47750Y-40621D01*
X47745Y-40633D01*
X47675Y-40703D01*
X47583Y-40741D01*
X47539Y-40741D01*
X47539Y-41750D01*
X47517Y-41861D01*
X47453Y-41954D01*
X47444Y-41964D01*
X47351Y-42027D01*
X47240Y-42049D01*
X46923Y-42049D01*
X46921Y-42051D01*
X46829Y-42089D01*
X46470Y-42089D01*
X46379Y-42051D01*
X46353Y-42025D01*
X46351Y-42027D01*
X46240Y-42049D01*
X46123Y-42049D01*
X46121Y-42051D01*
X46029Y-42089D01*
X45670Y-42089D01*
X45579Y-42051D01*
X45509Y-41981D01*
X45471Y-41889D01*
X45471Y-41629D01*
X45470Y-41602D01*
X45491Y-41580D01*
X45498Y-41565D01*
X44983Y-41565D01*
X44983Y-42042D01*
X44945Y-42133D01*
X44875Y-42203D01*
X44783Y-42241D01*
X44675Y-42241D01*
X44675Y-42465D01*
X44730Y-42520D01*
X44800Y-42625D01*
X44825Y-42750D01*
X44825Y-45478D01*
X44891Y-45451D01*
X45109Y-45451D01*
X45311Y-45535D01*
X45465Y-45689D01*
X45500Y-45773D01*
X45535Y-45689D01*
X45689Y-45535D01*
X45891Y-45451D01*
X46109Y-45451D01*
X46311Y-45535D01*
X46465Y-45689D01*
X46500Y-45773D01*
X46535Y-45689D01*
X46689Y-45535D01*
X46891Y-45451D01*
X47109Y-45451D01*
X47311Y-45535D01*
X47465Y-45689D01*
X47500Y-45773D01*
X47535Y-45689D01*
X47689Y-45535D01*
X47891Y-45451D01*
X48109Y-45451D01*
X48311Y-45535D01*
X48462Y-45685D01*
X48462Y-40742D01*
X48400Y-40680D01*
X48400Y-40050D01*
X48400Y-39950D01*
X48400Y-39320D01*
X48462Y-39258D01*
X48783Y-39259D01*
X48875Y-39297D01*
X48945Y-39367D01*
X48983Y-39458D01*
X48983Y-39557D01*
X48984Y-39888D01*
X48922Y-39950D01*
X48400Y-39950D01*
X48400Y-40050D01*
X48922Y-40050D01*
X48984Y-40112D01*
X48983Y-40443D01*
X48983Y-40542D01*
X48945Y-40633D01*
X48875Y-40703D01*
X48783Y-40741D01*
X48462Y-40742D01*
X48462Y-45685D01*
X48465Y-45689D01*
X48549Y-45891D01*
X48549Y-46109D01*
X48465Y-46311D01*
X48311Y-46465D01*
X48226Y-46499D01*
X48311Y-46535D01*
X48465Y-46689D01*
X48549Y-46891D01*
X48549Y-47109D01*
X48465Y-47311D01*
X48311Y-47465D01*
X48109Y-47549D01*
X47891Y-47549D01*
X47689Y-47465D01*
X47535Y-47311D01*
X47500Y-47226D01*
X47465Y-47311D01*
X47311Y-47465D01*
X47109Y-47549D01*
X46891Y-47549D01*
X46689Y-47465D01*
X46535Y-47311D01*
X46499Y-47226D01*
X46465Y-47311D01*
X46311Y-47465D01*
X46109Y-47549D01*
X45891Y-47549D01*
X45689Y-47465D01*
X45535Y-47311D01*
X45500Y-47226D01*
X45465Y-47311D01*
X45311Y-47465D01*
X45109Y-47549D01*
X44891Y-47549D01*
X44825Y-47521D01*
X44825Y-47750D01*
X44800Y-47874D01*
X44749Y-47949D01*
X49700Y-47950D01*
X49700Y-47950D01*
G37*
G54D23*
X49700Y-47950D02*
X49700Y-38800D01*
X44963Y-38800D01*
X44975Y-38812D01*
X44974Y-38874D01*
X44936Y-38966D01*
X44901Y-38999D01*
X44936Y-39034D01*
X44945Y-39056D01*
X45004Y-39096D01*
X45619Y-39711D01*
X46517Y-39711D01*
X46517Y-39458D01*
X46555Y-39367D01*
X46625Y-39297D01*
X46717Y-39259D01*
X46888Y-39259D01*
X46889Y-39257D01*
X47009Y-39138D01*
X47166Y-39073D01*
X47336Y-39073D01*
X47493Y-39139D01*
X47612Y-39259D01*
X47617Y-39273D01*
X47675Y-39297D01*
X47745Y-39367D01*
X47749Y-39379D01*
X47755Y-39367D01*
X47825Y-39297D01*
X47917Y-39259D01*
X48238Y-39258D01*
X48300Y-39320D01*
X48300Y-39950D01*
X48300Y-40050D01*
X48300Y-40680D01*
X48238Y-40742D01*
X47917Y-40741D01*
X47825Y-40703D01*
X47755Y-40633D01*
X47750Y-40621D01*
X47745Y-40633D01*
X47675Y-40703D01*
X47583Y-40741D01*
X47539Y-40741D01*
X47539Y-41750D01*
X47517Y-41861D01*
X47453Y-41954D01*
X47444Y-41964D01*
X47351Y-42027D01*
X47240Y-42049D01*
X46923Y-42049D01*
X46921Y-42051D01*
X46829Y-42089D01*
X46470Y-42089D01*
X46379Y-42051D01*
X46353Y-42025D01*
X46351Y-42027D01*
X46240Y-42049D01*
X46123Y-42049D01*
X46121Y-42051D01*
X46029Y-42089D01*
X45670Y-42089D01*
X45579Y-42051D01*
X45509Y-41981D01*
X45471Y-41889D01*
X45471Y-41629D01*
X45470Y-41602D01*
X45491Y-41580D01*
X45498Y-41565D01*
X44983Y-41565D01*
X44983Y-42042D01*
X44945Y-42133D01*
X44875Y-42203D01*
X44783Y-42241D01*
X44675Y-42241D01*
X44675Y-42465D01*
X44730Y-42520D01*
X44800Y-42625D01*
X44825Y-42750D01*
X44825Y-45478D01*
X44891Y-45451D01*
X45109Y-45451D01*
X45311Y-45535D01*
X45465Y-45689D01*
X45500Y-45773D01*
X45535Y-45689D01*
X45689Y-45535D01*
X45891Y-45451D01*
X46109Y-45451D01*
X46311Y-45535D01*
X46465Y-45689D01*
X46500Y-45773D01*
X46535Y-45689D01*
X46689Y-45535D01*
X46891Y-45451D01*
X47109Y-45451D01*
X47311Y-45535D01*
X47465Y-45689D01*
X47500Y-45773D01*
X47535Y-45689D01*
X47689Y-45535D01*
X47891Y-45451D01*
X48109Y-45451D01*
X48311Y-45535D01*
X48462Y-45685D01*
X48462Y-40742D01*
X48400Y-40680D01*
X48400Y-40050D01*
X48400Y-39950D01*
X48400Y-39320D01*
X48462Y-39258D01*
X48783Y-39259D01*
X48875Y-39297D01*
X48945Y-39367D01*
X48983Y-39458D01*
X48983Y-39557D01*
X48984Y-39888D01*
X48922Y-39950D01*
X48400Y-39950D01*
X48400Y-40050D01*
X48922Y-40050D01*
X48984Y-40112D01*
X48983Y-40443D01*
X48983Y-40542D01*
X48945Y-40633D01*
X48875Y-40703D01*
X48783Y-40741D01*
X48462Y-40742D01*
X48462Y-45685D01*
X48465Y-45689D01*
X48549Y-45891D01*
X48549Y-46109D01*
X48465Y-46311D01*
X48311Y-46465D01*
X48226Y-46499D01*
X48311Y-46535D01*
X48465Y-46689D01*
X48549Y-46891D01*
X48549Y-47109D01*
X48465Y-47311D01*
X48311Y-47465D01*
X48109Y-47549D01*
X47891Y-47549D01*
X47689Y-47465D01*
X47535Y-47311D01*
X47500Y-47226D01*
X47465Y-47311D01*
X47311Y-47465D01*
X47109Y-47549D01*
X46891Y-47549D01*
X46689Y-47465D01*
X46535Y-47311D01*
X46499Y-47226D01*
X46465Y-47311D01*
X46311Y-47465D01*
X46109Y-47549D01*
X45891Y-47549D01*
X45689Y-47465D01*
X45535Y-47311D01*
X45500Y-47226D01*
X45465Y-47311D01*
X45311Y-47465D01*
X45109Y-47549D01*
X44891Y-47549D01*
X44825Y-47521D01*
X44825Y-47750D01*
X44800Y-47874D01*
X44749Y-47949D01*
X49700Y-47950D01*
G54D10*
G36*
X28291Y-47950D02*
X28018Y-47677D01*
X27914Y-47677D01*
X27757Y-47611D01*
X27638Y-47491D01*
X27573Y-47334D01*
X27573Y-47164D01*
X27639Y-47007D01*
X27759Y-46888D01*
X27916Y-46823D01*
X28086Y-46823D01*
X28243Y-46889D01*
X28362Y-47009D01*
X28427Y-47166D01*
X28427Y-47269D01*
X28451Y-47293D01*
X28451Y-46650D01*
X28489Y-46559D01*
X28559Y-46489D01*
X28651Y-46451D01*
X28675Y-46451D01*
X28535Y-46311D01*
X28451Y-46109D01*
X28451Y-45891D01*
X28535Y-45689D01*
X28689Y-45535D01*
X28891Y-45451D01*
X29109Y-45451D01*
X29311Y-45535D01*
X29465Y-45689D01*
X29500Y-45773D01*
X29535Y-45689D01*
X29689Y-45535D01*
X29891Y-45451D01*
X30109Y-45451D01*
X30311Y-45535D01*
X30465Y-45689D01*
X30499Y-45773D01*
X30535Y-45689D01*
X30689Y-45535D01*
X30788Y-45493D01*
X30788Y-42242D01*
X30467Y-42241D01*
X30375Y-42203D01*
X30305Y-42133D01*
X30267Y-42042D01*
X30267Y-41943D01*
X30266Y-41612D01*
X30328Y-41550D01*
X30328Y-41450D01*
X30266Y-41388D01*
X30267Y-41057D01*
X30267Y-40958D01*
X30305Y-40867D01*
X30375Y-40797D01*
X30467Y-40759D01*
X30788Y-40758D01*
X30850Y-40820D01*
X30850Y-41450D01*
X30328Y-41450D01*
X30328Y-41550D01*
X30850Y-41550D01*
X30850Y-42180D01*
X30788Y-42242D01*
X30788Y-45493D01*
X30891Y-45451D01*
X31109Y-45451D01*
X31311Y-45535D01*
X31465Y-45689D01*
X31500Y-45773D01*
X31535Y-45689D01*
X31689Y-45535D01*
X31891Y-45451D01*
X32109Y-45451D01*
X32311Y-45535D01*
X32465Y-45689D01*
X32500Y-45773D01*
X32535Y-45689D01*
X32689Y-45535D01*
X32891Y-45451D01*
X33109Y-45451D01*
X33311Y-45535D01*
X33465Y-45689D01*
X33504Y-45784D01*
X33528Y-45719D01*
X33622Y-45692D01*
X33929Y-46000D01*
X33622Y-46308D01*
X33528Y-46281D01*
X33502Y-46219D01*
X33465Y-46311D01*
X33311Y-46465D01*
X33226Y-46500D01*
X33311Y-46535D01*
X33465Y-46689D01*
X33500Y-46773D01*
X33535Y-46689D01*
X33689Y-46535D01*
X33784Y-46495D01*
X33719Y-46472D01*
X33692Y-46378D01*
X34000Y-46071D01*
X34000Y-45929D01*
X33692Y-45622D01*
X33719Y-45528D01*
X33866Y-45468D01*
X34079Y-45457D01*
X34281Y-45528D01*
X34308Y-45622D01*
X34000Y-45929D01*
X34000Y-46071D01*
X34308Y-46378D01*
X34281Y-46472D01*
X34219Y-46497D01*
X34311Y-46535D01*
X34465Y-46689D01*
X34500Y-46773D01*
X34535Y-46689D01*
X34689Y-46535D01*
X34773Y-46500D01*
X34689Y-46465D01*
X34535Y-46311D01*
X34495Y-46215D01*
X34472Y-46281D01*
X34378Y-46308D01*
X34071Y-46000D01*
X34378Y-45692D01*
X34472Y-45719D01*
X34497Y-45780D01*
X34535Y-45689D01*
X34689Y-45535D01*
X34891Y-45451D01*
X35109Y-45451D01*
X35311Y-45535D01*
X35465Y-45689D01*
X35500Y-45773D01*
X35535Y-45689D01*
X35689Y-45535D01*
X35891Y-45451D01*
X36109Y-45451D01*
X36311Y-45535D01*
X36465Y-45689D01*
X36500Y-45773D01*
X36535Y-45689D01*
X36689Y-45535D01*
X36891Y-45451D01*
X37109Y-45451D01*
X37311Y-45535D01*
X37465Y-45689D01*
X37500Y-45773D01*
X37535Y-45689D01*
X37689Y-45535D01*
X37891Y-45451D01*
X38109Y-45451D01*
X38311Y-45535D01*
X38465Y-45689D01*
X38500Y-45773D01*
X38535Y-45689D01*
X38689Y-45535D01*
X38891Y-45451D01*
X39109Y-45451D01*
X39311Y-45535D01*
X39465Y-45689D01*
X39500Y-45773D01*
X39535Y-45689D01*
X39689Y-45535D01*
X39891Y-45451D01*
X40109Y-45451D01*
X40311Y-45535D01*
X40465Y-45689D01*
X40500Y-45773D01*
X40535Y-45689D01*
X40689Y-45535D01*
X40891Y-45451D01*
X41109Y-45451D01*
X41311Y-45535D01*
X41465Y-45689D01*
X41500Y-45773D01*
X41535Y-45689D01*
X41689Y-45535D01*
X41891Y-45451D01*
X42109Y-45451D01*
X42311Y-45535D01*
X42465Y-45689D01*
X42504Y-45784D01*
X42528Y-45719D01*
X42622Y-45692D01*
X42929Y-46000D01*
X42622Y-46308D01*
X42528Y-46281D01*
X42502Y-46219D01*
X42465Y-46311D01*
X42311Y-46465D01*
X42226Y-46500D01*
X42311Y-46535D01*
X42465Y-46689D01*
X42500Y-46773D01*
X42535Y-46689D01*
X42689Y-46535D01*
X42784Y-46495D01*
X42719Y-46472D01*
X42692Y-46378D01*
X43000Y-46071D01*
X43000Y-45929D01*
X42692Y-45622D01*
X42719Y-45528D01*
X42866Y-45468D01*
X43038Y-45459D01*
X43038Y-42242D01*
X42717Y-42241D01*
X42625Y-42203D01*
X42555Y-42133D01*
X42517Y-42042D01*
X42517Y-41943D01*
X42516Y-41612D01*
X42578Y-41550D01*
X43100Y-41550D01*
X43100Y-42180D01*
X43038Y-42242D01*
X43038Y-45459D01*
X43079Y-45457D01*
X43281Y-45528D01*
X43308Y-45622D01*
X43000Y-45929D01*
X43000Y-46071D01*
X43308Y-46378D01*
X43281Y-46472D01*
X43219Y-46497D01*
X43311Y-46535D01*
X43465Y-46689D01*
X43499Y-46773D01*
X43535Y-46689D01*
X43689Y-46535D01*
X43773Y-46500D01*
X43689Y-46465D01*
X43535Y-46311D01*
X43495Y-46215D01*
X43472Y-46281D01*
X43378Y-46308D01*
X43071Y-46000D01*
X43378Y-45692D01*
X43472Y-45719D01*
X43497Y-45780D01*
X43535Y-45689D01*
X43689Y-45535D01*
X43891Y-45451D01*
X44109Y-45451D01*
X44175Y-45478D01*
X44175Y-42885D01*
X44120Y-42830D01*
X44050Y-42724D01*
X44025Y-42600D01*
X44025Y-42241D01*
X43916Y-42241D01*
X43825Y-42203D01*
X43755Y-42133D01*
X43750Y-42120D01*
X43745Y-42133D01*
X43675Y-42203D01*
X43583Y-42241D01*
X43262Y-42242D01*
X43200Y-42180D01*
X43200Y-41550D01*
X43200Y-41450D01*
X43100Y-41450D01*
X42578Y-41450D01*
X42516Y-41388D01*
X42517Y-41057D01*
X42517Y-40958D01*
X42555Y-40867D01*
X42597Y-40825D01*
X39528Y-40825D01*
X39491Y-40862D01*
X39334Y-40927D01*
X39164Y-40927D01*
X39007Y-40861D01*
X38971Y-40825D01*
X37384Y-40825D01*
X35730Y-42480D01*
X35624Y-42550D01*
X35500Y-42575D01*
X33750Y-42575D01*
X33625Y-42550D01*
X33519Y-42479D01*
X33370Y-42330D01*
X33300Y-42224D01*
X33275Y-42100D01*
X33275Y-41997D01*
X33259Y-41981D01*
X33221Y-41889D01*
X33221Y-41629D01*
X33220Y-41602D01*
X33241Y-41580D01*
X33259Y-41539D01*
X33270Y-41527D01*
X33270Y-41525D01*
X32778Y-41525D01*
X32741Y-41562D01*
X32733Y-41565D01*
X32733Y-42042D01*
X32695Y-42133D01*
X32625Y-42203D01*
X32533Y-42241D01*
X31666Y-42241D01*
X31575Y-42203D01*
X31505Y-42133D01*
X31500Y-42120D01*
X31495Y-42133D01*
X31425Y-42203D01*
X31333Y-42241D01*
X31012Y-42242D01*
X30950Y-42180D01*
X30950Y-41550D01*
X30950Y-41450D01*
X30950Y-40820D01*
X31012Y-40758D01*
X31333Y-40759D01*
X31425Y-40797D01*
X31495Y-40867D01*
X31500Y-40878D01*
X31505Y-40867D01*
X31575Y-40797D01*
X31588Y-40791D01*
X31588Y-40725D01*
X31526Y-40724D01*
X31434Y-40686D01*
X31364Y-40616D01*
X31326Y-40525D01*
X31326Y-40426D01*
X31325Y-40362D01*
X31387Y-40300D01*
X31650Y-40300D01*
X31650Y-40663D01*
X31588Y-40725D01*
X31588Y-40791D01*
X31667Y-40759D01*
X32011Y-40759D01*
X32011Y-40663D01*
X31999Y-40651D01*
X31966Y-40686D01*
X31874Y-40724D01*
X31812Y-40725D01*
X31750Y-40663D01*
X31750Y-40300D01*
X31750Y-40200D01*
X31650Y-40200D01*
X31387Y-40200D01*
X31325Y-40138D01*
X31326Y-40074D01*
X31326Y-40039D01*
X29500Y-40039D01*
X29389Y-40017D01*
X29296Y-39954D01*
X29289Y-39943D01*
X29289Y-40435D01*
X29362Y-40509D01*
X29427Y-40666D01*
X29427Y-40836D01*
X29361Y-40993D01*
X29241Y-41112D01*
X29084Y-41177D01*
X28914Y-41177D01*
X28757Y-41111D01*
X28638Y-40991D01*
X28573Y-40834D01*
X28573Y-40664D01*
X28639Y-40507D01*
X28711Y-40435D01*
X28711Y-33531D01*
X28700Y-33513D01*
X28700Y-28800D01*
X27300Y-28800D01*
X27300Y-47950D01*
X28291Y-47950D01*
X28291Y-47950D01*
G37*
G54D23*
X28291Y-47950D02*
X28018Y-47677D01*
X27914Y-47677D01*
X27757Y-47611D01*
X27638Y-47491D01*
X27573Y-47334D01*
X27573Y-47164D01*
X27639Y-47007D01*
X27759Y-46888D01*
X27916Y-46823D01*
X28086Y-46823D01*
X28243Y-46889D01*
X28362Y-47009D01*
X28427Y-47166D01*
X28427Y-47269D01*
X28451Y-47293D01*
X28451Y-46650D01*
X28489Y-46559D01*
X28559Y-46489D01*
X28651Y-46451D01*
X28675Y-46451D01*
X28535Y-46311D01*
X28451Y-46109D01*
X28451Y-45891D01*
X28535Y-45689D01*
X28689Y-45535D01*
X28891Y-45451D01*
X29109Y-45451D01*
X29311Y-45535D01*
X29465Y-45689D01*
X29500Y-45773D01*
X29535Y-45689D01*
X29689Y-45535D01*
X29891Y-45451D01*
X30109Y-45451D01*
X30311Y-45535D01*
X30465Y-45689D01*
X30499Y-45773D01*
X30535Y-45689D01*
X30689Y-45535D01*
X30788Y-45493D01*
X30788Y-42242D01*
X30467Y-42241D01*
X30375Y-42203D01*
X30305Y-42133D01*
X30267Y-42042D01*
X30267Y-41943D01*
X30266Y-41612D01*
X30328Y-41550D01*
X30328Y-41450D01*
X30266Y-41388D01*
X30267Y-41057D01*
X30267Y-40958D01*
X30305Y-40867D01*
X30375Y-40797D01*
X30467Y-40759D01*
X30788Y-40758D01*
X30850Y-40820D01*
X30850Y-41450D01*
X30328Y-41450D01*
X30328Y-41550D01*
X30850Y-41550D01*
X30850Y-42180D01*
X30788Y-42242D01*
X30788Y-45493D01*
X30891Y-45451D01*
X31109Y-45451D01*
X31311Y-45535D01*
X31465Y-45689D01*
X31500Y-45773D01*
X31535Y-45689D01*
X31689Y-45535D01*
X31891Y-45451D01*
X32109Y-45451D01*
X32311Y-45535D01*
X32465Y-45689D01*
X32500Y-45773D01*
X32535Y-45689D01*
X32689Y-45535D01*
X32891Y-45451D01*
X33109Y-45451D01*
X33311Y-45535D01*
X33465Y-45689D01*
X33504Y-45784D01*
X33528Y-45719D01*
X33622Y-45692D01*
X33929Y-46000D01*
X33622Y-46308D01*
X33528Y-46281D01*
X33502Y-46219D01*
X33465Y-46311D01*
X33311Y-46465D01*
X33226Y-46500D01*
X33311Y-46535D01*
X33465Y-46689D01*
X33500Y-46773D01*
X33535Y-46689D01*
X33689Y-46535D01*
X33784Y-46495D01*
X33719Y-46472D01*
X33692Y-46378D01*
X34000Y-46071D01*
X34000Y-45929D01*
X33692Y-45622D01*
X33719Y-45528D01*
X33866Y-45468D01*
X34079Y-45457D01*
X34281Y-45528D01*
X34308Y-45622D01*
X34000Y-45929D01*
X34000Y-46071D01*
X34308Y-46378D01*
X34281Y-46472D01*
X34219Y-46497D01*
X34311Y-46535D01*
X34465Y-46689D01*
X34500Y-46773D01*
X34535Y-46689D01*
X34689Y-46535D01*
X34773Y-46500D01*
X34689Y-46465D01*
X34535Y-46311D01*
X34495Y-46215D01*
X34472Y-46281D01*
X34378Y-46308D01*
X34071Y-46000D01*
X34378Y-45692D01*
X34472Y-45719D01*
X34497Y-45780D01*
X34535Y-45689D01*
X34689Y-45535D01*
X34891Y-45451D01*
X35109Y-45451D01*
X35311Y-45535D01*
X35465Y-45689D01*
X35500Y-45773D01*
X35535Y-45689D01*
X35689Y-45535D01*
X35891Y-45451D01*
X36109Y-45451D01*
X36311Y-45535D01*
X36465Y-45689D01*
X36500Y-45773D01*
X36535Y-45689D01*
X36689Y-45535D01*
X36891Y-45451D01*
X37109Y-45451D01*
X37311Y-45535D01*
X37465Y-45689D01*
X37500Y-45773D01*
X37535Y-45689D01*
X37689Y-45535D01*
X37891Y-45451D01*
X38109Y-45451D01*
X38311Y-45535D01*
X38465Y-45689D01*
X38500Y-45773D01*
X38535Y-45689D01*
X38689Y-45535D01*
X38891Y-45451D01*
X39109Y-45451D01*
X39311Y-45535D01*
X39465Y-45689D01*
X39500Y-45773D01*
X39535Y-45689D01*
X39689Y-45535D01*
X39891Y-45451D01*
X40109Y-45451D01*
X40311Y-45535D01*
X40465Y-45689D01*
X40500Y-45773D01*
X40535Y-45689D01*
X40689Y-45535D01*
X40891Y-45451D01*
X41109Y-45451D01*
X41311Y-45535D01*
X41465Y-45689D01*
X41500Y-45773D01*
X41535Y-45689D01*
X41689Y-45535D01*
X41891Y-45451D01*
X42109Y-45451D01*
X42311Y-45535D01*
X42465Y-45689D01*
X42504Y-45784D01*
X42528Y-45719D01*
X42622Y-45692D01*
X42929Y-46000D01*
X42622Y-46308D01*
X42528Y-46281D01*
X42502Y-46219D01*
X42465Y-46311D01*
X42311Y-46465D01*
X42226Y-46500D01*
X42311Y-46535D01*
X42465Y-46689D01*
X42500Y-46773D01*
X42535Y-46689D01*
X42689Y-46535D01*
X42784Y-46495D01*
X42719Y-46472D01*
X42692Y-46378D01*
X43000Y-46071D01*
X43000Y-45929D01*
X42692Y-45622D01*
X42719Y-45528D01*
X42866Y-45468D01*
X43038Y-45459D01*
X43038Y-42242D01*
X42717Y-42241D01*
X42625Y-42203D01*
X42555Y-42133D01*
X42517Y-42042D01*
X42517Y-41943D01*
X42516Y-41612D01*
X42578Y-41550D01*
X43100Y-41550D01*
X43100Y-42180D01*
X43038Y-42242D01*
X43038Y-45459D01*
X43079Y-45457D01*
X43281Y-45528D01*
X43308Y-45622D01*
X43000Y-45929D01*
X43000Y-46071D01*
X43308Y-46378D01*
X43281Y-46472D01*
X43219Y-46497D01*
X43311Y-46535D01*
X43465Y-46689D01*
X43499Y-46773D01*
X43535Y-46689D01*
X43689Y-46535D01*
X43773Y-46500D01*
X43689Y-46465D01*
X43535Y-46311D01*
X43495Y-46215D01*
X43472Y-46281D01*
X43378Y-46308D01*
X43071Y-46000D01*
X43378Y-45692D01*
X43472Y-45719D01*
X43497Y-45780D01*
X43535Y-45689D01*
X43689Y-45535D01*
X43891Y-45451D01*
X44109Y-45451D01*
X44175Y-45478D01*
X44175Y-42885D01*
X44120Y-42830D01*
X44050Y-42724D01*
X44025Y-42600D01*
X44025Y-42241D01*
X43916Y-42241D01*
X43825Y-42203D01*
X43755Y-42133D01*
X43750Y-42120D01*
X43745Y-42133D01*
X43675Y-42203D01*
X43583Y-42241D01*
X43262Y-42242D01*
X43200Y-42180D01*
X43200Y-41550D01*
X43200Y-41450D01*
X43100Y-41450D01*
X42578Y-41450D01*
X42516Y-41388D01*
X42517Y-41057D01*
X42517Y-40958D01*
X42555Y-40867D01*
X42597Y-40825D01*
X39528Y-40825D01*
X39491Y-40862D01*
X39334Y-40927D01*
X39164Y-40927D01*
X39007Y-40861D01*
X38971Y-40825D01*
X37384Y-40825D01*
X35730Y-42480D01*
X35624Y-42550D01*
X35500Y-42575D01*
X33750Y-42575D01*
X33625Y-42550D01*
X33519Y-42479D01*
X33370Y-42330D01*
X33300Y-42224D01*
X33275Y-42100D01*
X33275Y-41997D01*
X33259Y-41981D01*
X33221Y-41889D01*
X33221Y-41629D01*
X33220Y-41602D01*
X33241Y-41580D01*
X33259Y-41539D01*
X33270Y-41527D01*
X33270Y-41525D01*
X32778Y-41525D01*
X32741Y-41562D01*
X32733Y-41565D01*
X32733Y-42042D01*
X32695Y-42133D01*
X32625Y-42203D01*
X32533Y-42241D01*
X31666Y-42241D01*
X31575Y-42203D01*
X31505Y-42133D01*
X31500Y-42120D01*
X31495Y-42133D01*
X31425Y-42203D01*
X31333Y-42241D01*
X31012Y-42242D01*
X30950Y-42180D01*
X30950Y-41550D01*
X30950Y-41450D01*
X30950Y-40820D01*
X31012Y-40758D01*
X31333Y-40759D01*
X31425Y-40797D01*
X31495Y-40867D01*
X31500Y-40878D01*
X31505Y-40867D01*
X31575Y-40797D01*
X31588Y-40791D01*
X31588Y-40725D01*
X31526Y-40724D01*
X31434Y-40686D01*
X31364Y-40616D01*
X31326Y-40525D01*
X31326Y-40426D01*
X31325Y-40362D01*
X31387Y-40300D01*
X31650Y-40300D01*
X31650Y-40663D01*
X31588Y-40725D01*
X31588Y-40791D01*
X31667Y-40759D01*
X32011Y-40759D01*
X32011Y-40663D01*
X31999Y-40651D01*
X31966Y-40686D01*
X31874Y-40724D01*
X31812Y-40725D01*
X31750Y-40663D01*
X31750Y-40300D01*
X31750Y-40200D01*
X31650Y-40200D01*
X31387Y-40200D01*
X31325Y-40138D01*
X31326Y-40074D01*
X31326Y-40039D01*
X29500Y-40039D01*
X29389Y-40017D01*
X29296Y-39954D01*
X29289Y-39943D01*
X29289Y-40435D01*
X29362Y-40509D01*
X29427Y-40666D01*
X29427Y-40836D01*
X29361Y-40993D01*
X29241Y-41112D01*
X29084Y-41177D01*
X28914Y-41177D01*
X28757Y-41111D01*
X28638Y-40991D01*
X28573Y-40834D01*
X28573Y-40664D01*
X28639Y-40507D01*
X28711Y-40435D01*
X28711Y-33531D01*
X28700Y-33513D01*
X28700Y-28800D01*
X27300Y-28800D01*
X27300Y-47950D01*
X28291Y-47950D01*
G54D10*
G36*
X35365Y-41925D02*
X36560Y-40729D01*
X36533Y-40741D01*
X36212Y-40742D01*
X36150Y-40680D01*
X36150Y-40050D01*
X36672Y-40050D01*
X36734Y-40112D01*
X36733Y-40443D01*
X36733Y-40542D01*
X36722Y-40567D01*
X37020Y-40270D01*
X37126Y-40200D01*
X37223Y-40180D01*
X37249Y-40175D01*
X37775Y-40175D01*
X37775Y-40162D01*
X37837Y-40100D01*
X38200Y-40100D01*
X38300Y-40100D01*
X38663Y-40100D01*
X38725Y-40162D01*
X38724Y-40175D01*
X38971Y-40175D01*
X39009Y-40138D01*
X39166Y-40073D01*
X39336Y-40073D01*
X39493Y-40139D01*
X39528Y-40175D01*
X43388Y-40175D01*
X43388Y-39675D01*
X43324Y-39674D01*
X43225Y-39674D01*
X43134Y-39636D01*
X43064Y-39566D01*
X43026Y-39474D01*
X43025Y-39412D01*
X43087Y-39350D01*
X43450Y-39350D01*
X43450Y-39613D01*
X43388Y-39675D01*
X43388Y-40175D01*
X43500Y-40175D01*
X43624Y-40200D01*
X43730Y-40270D01*
X43825Y-40365D01*
X43825Y-40362D01*
X43887Y-40300D01*
X43887Y-40200D01*
X43825Y-40138D01*
X43826Y-40074D01*
X43826Y-39975D01*
X43864Y-39884D01*
X43934Y-39814D01*
X44026Y-39776D01*
X44088Y-39775D01*
X44150Y-39837D01*
X44150Y-40200D01*
X43887Y-40200D01*
X43887Y-40300D01*
X44150Y-40300D01*
X44250Y-40300D01*
X44250Y-40200D01*
X44250Y-39837D01*
X44312Y-39775D01*
X44374Y-39776D01*
X44466Y-39814D01*
X44499Y-39848D01*
X44534Y-39814D01*
X44626Y-39776D01*
X44867Y-39776D01*
X44765Y-39674D01*
X44591Y-39674D01*
X44584Y-39677D01*
X44414Y-39677D01*
X44406Y-39674D01*
X44225Y-39674D01*
X44134Y-39636D01*
X44086Y-39588D01*
X44050Y-39589D01*
X43939Y-39567D01*
X43936Y-39565D01*
X43936Y-39566D01*
X43866Y-39636D01*
X43775Y-39674D01*
X43676Y-39674D01*
X43612Y-39675D01*
X43550Y-39613D01*
X43550Y-39350D01*
X43550Y-39250D01*
X43450Y-39250D01*
X43087Y-39250D01*
X43025Y-39188D01*
X43026Y-39126D01*
X43064Y-39034D01*
X43097Y-38999D01*
X43064Y-38966D01*
X43026Y-38874D01*
X43026Y-38525D01*
X43064Y-38434D01*
X43134Y-38364D01*
X43226Y-38326D01*
X43450Y-38326D01*
X43450Y-35789D01*
X42374Y-35789D01*
X42493Y-35839D01*
X42612Y-35959D01*
X42677Y-36116D01*
X42677Y-36286D01*
X42611Y-36443D01*
X42578Y-36475D01*
X42612Y-36509D01*
X42677Y-36666D01*
X42677Y-36836D01*
X42611Y-36993D01*
X42539Y-37064D01*
X42539Y-38435D01*
X42612Y-38509D01*
X42677Y-38666D01*
X42677Y-38836D01*
X42611Y-38993D01*
X42491Y-39112D01*
X42334Y-39177D01*
X42164Y-39177D01*
X42007Y-39111D01*
X41888Y-38991D01*
X41823Y-38834D01*
X41823Y-38664D01*
X41889Y-38507D01*
X41961Y-38435D01*
X41961Y-37064D01*
X41888Y-36991D01*
X41823Y-36834D01*
X41823Y-36664D01*
X41875Y-36539D01*
X41564Y-36539D01*
X41539Y-36564D01*
X41539Y-37685D01*
X41612Y-37759D01*
X41677Y-37916D01*
X41677Y-38086D01*
X41611Y-38243D01*
X41491Y-38362D01*
X41334Y-38427D01*
X41164Y-38427D01*
X41007Y-38361D01*
X40888Y-38241D01*
X40823Y-38084D01*
X40823Y-37914D01*
X40889Y-37757D01*
X40961Y-37685D01*
X40961Y-36564D01*
X40888Y-36491D01*
X40823Y-36334D01*
X40823Y-36164D01*
X40889Y-36007D01*
X41009Y-35888D01*
X41166Y-35823D01*
X41336Y-35823D01*
X41493Y-35889D01*
X41564Y-35961D01*
X41887Y-35961D01*
X41889Y-35957D01*
X42009Y-35838D01*
X42127Y-35789D01*
X39814Y-35789D01*
X39741Y-35862D01*
X39584Y-35927D01*
X39414Y-35927D01*
X39257Y-35861D01*
X39138Y-35741D01*
X39073Y-35584D01*
X39073Y-35414D01*
X39125Y-35289D01*
X37300Y-35289D01*
X37300Y-35461D01*
X37750Y-35461D01*
X37861Y-35483D01*
X37954Y-35546D01*
X38046Y-35638D01*
X38123Y-35607D01*
X38379Y-35607D01*
X38615Y-35706D01*
X38795Y-35887D01*
X38893Y-36123D01*
X38893Y-36379D01*
X38861Y-36453D01*
X39069Y-36661D01*
X39337Y-36661D01*
X39384Y-36614D01*
X39476Y-36576D01*
X40025Y-36576D01*
X40116Y-36614D01*
X40186Y-36684D01*
X40224Y-36776D01*
X40224Y-37125D01*
X40186Y-37216D01*
X40151Y-37249D01*
X40186Y-37284D01*
X40224Y-37376D01*
X40224Y-37725D01*
X40186Y-37816D01*
X40116Y-37886D01*
X40024Y-37924D01*
X39784Y-37924D01*
X39254Y-38454D01*
X39161Y-38517D01*
X39050Y-38539D01*
X38825Y-38539D01*
X38794Y-38615D01*
X38613Y-38795D01*
X38539Y-38825D01*
X38539Y-39081D01*
X38616Y-39114D01*
X38686Y-39184D01*
X38724Y-39276D01*
X38724Y-39625D01*
X38686Y-39716D01*
X38651Y-39749D01*
X38686Y-39784D01*
X38724Y-39876D01*
X38725Y-39938D01*
X38663Y-40000D01*
X38300Y-40000D01*
X38200Y-40000D01*
X37837Y-40000D01*
X37775Y-39938D01*
X37776Y-39876D01*
X37814Y-39784D01*
X37847Y-39749D01*
X37814Y-39716D01*
X37776Y-39624D01*
X37776Y-39275D01*
X37814Y-39184D01*
X37884Y-39114D01*
X37961Y-39082D01*
X37961Y-38825D01*
X37885Y-38794D01*
X37705Y-38613D01*
X37607Y-38377D01*
X37607Y-38121D01*
X37706Y-37885D01*
X37716Y-37874D01*
X37380Y-37539D01*
X37300Y-37539D01*
X37300Y-39550D01*
X36733Y-39550D01*
X36733Y-39557D01*
X36734Y-39888D01*
X36672Y-39950D01*
X36150Y-39950D01*
X36050Y-39950D01*
X36050Y-40050D01*
X36050Y-40680D01*
X35988Y-40742D01*
X35667Y-40741D01*
X35575Y-40703D01*
X35505Y-40633D01*
X35500Y-40621D01*
X35495Y-40633D01*
X35425Y-40703D01*
X35333Y-40741D01*
X35225Y-40741D01*
X35225Y-41600D01*
X35200Y-41725D01*
X35130Y-41830D01*
X35034Y-41924D01*
X35365Y-41925D01*
X35365Y-41925D01*
G37*
G54D23*
X35365Y-41925D02*
X36560Y-40729D01*
X36533Y-40741D01*
X36212Y-40742D01*
X36150Y-40680D01*
X36150Y-40050D01*
X36672Y-40050D01*
X36734Y-40112D01*
X36733Y-40443D01*
X36733Y-40542D01*
X36722Y-40567D01*
X37020Y-40270D01*
X37126Y-40200D01*
X37223Y-40180D01*
X37249Y-40175D01*
X37775Y-40175D01*
X37775Y-40162D01*
X37837Y-40100D01*
X38200Y-40100D01*
X38300Y-40100D01*
X38663Y-40100D01*
X38725Y-40162D01*
X38724Y-40175D01*
X38971Y-40175D01*
X39009Y-40138D01*
X39166Y-40073D01*
X39336Y-40073D01*
X39493Y-40139D01*
X39528Y-40175D01*
X43388Y-40175D01*
X43388Y-39675D01*
X43324Y-39674D01*
X43225Y-39674D01*
X43134Y-39636D01*
X43064Y-39566D01*
X43026Y-39474D01*
X43025Y-39412D01*
X43087Y-39350D01*
X43450Y-39350D01*
X43450Y-39613D01*
X43388Y-39675D01*
X43388Y-40175D01*
X43500Y-40175D01*
X43624Y-40200D01*
X43730Y-40270D01*
X43825Y-40365D01*
X43825Y-40362D01*
X43887Y-40300D01*
X43887Y-40200D01*
X43825Y-40138D01*
X43826Y-40074D01*
X43826Y-39975D01*
X43864Y-39884D01*
X43934Y-39814D01*
X44026Y-39776D01*
X44088Y-39775D01*
X44150Y-39837D01*
X44150Y-40200D01*
X43887Y-40200D01*
X43887Y-40300D01*
X44150Y-40300D01*
X44250Y-40300D01*
X44250Y-40200D01*
X44250Y-39837D01*
X44312Y-39775D01*
X44374Y-39776D01*
X44466Y-39814D01*
X44499Y-39848D01*
X44534Y-39814D01*
X44626Y-39776D01*
X44867Y-39776D01*
X44765Y-39674D01*
X44591Y-39674D01*
X44584Y-39677D01*
X44414Y-39677D01*
X44406Y-39674D01*
X44225Y-39674D01*
X44134Y-39636D01*
X44086Y-39588D01*
X44050Y-39589D01*
X43939Y-39567D01*
X43936Y-39565D01*
X43936Y-39566D01*
X43866Y-39636D01*
X43775Y-39674D01*
X43676Y-39674D01*
X43612Y-39675D01*
X43550Y-39613D01*
X43550Y-39350D01*
X43550Y-39250D01*
X43450Y-39250D01*
X43087Y-39250D01*
X43025Y-39188D01*
X43026Y-39126D01*
X43064Y-39034D01*
X43097Y-38999D01*
X43064Y-38966D01*
X43026Y-38874D01*
X43026Y-38525D01*
X43064Y-38434D01*
X43134Y-38364D01*
X43226Y-38326D01*
X43450Y-38326D01*
X43450Y-35789D01*
X42374Y-35789D01*
X42493Y-35839D01*
X42612Y-35959D01*
X42677Y-36116D01*
X42677Y-36286D01*
X42611Y-36443D01*
X42578Y-36475D01*
X42612Y-36509D01*
X42677Y-36666D01*
X42677Y-36836D01*
X42611Y-36993D01*
X42539Y-37064D01*
X42539Y-38435D01*
X42612Y-38509D01*
X42677Y-38666D01*
X42677Y-38836D01*
X42611Y-38993D01*
X42491Y-39112D01*
X42334Y-39177D01*
X42164Y-39177D01*
X42007Y-39111D01*
X41888Y-38991D01*
X41823Y-38834D01*
X41823Y-38664D01*
X41889Y-38507D01*
X41961Y-38435D01*
X41961Y-37064D01*
X41888Y-36991D01*
X41823Y-36834D01*
X41823Y-36664D01*
X41875Y-36539D01*
X41564Y-36539D01*
X41539Y-36564D01*
X41539Y-37685D01*
X41612Y-37759D01*
X41677Y-37916D01*
X41677Y-38086D01*
X41611Y-38243D01*
X41491Y-38362D01*
X41334Y-38427D01*
X41164Y-38427D01*
X41007Y-38361D01*
X40888Y-38241D01*
X40823Y-38084D01*
X40823Y-37914D01*
X40889Y-37757D01*
X40961Y-37685D01*
X40961Y-36564D01*
X40888Y-36491D01*
X40823Y-36334D01*
X40823Y-36164D01*
X40889Y-36007D01*
X41009Y-35888D01*
X41166Y-35823D01*
X41336Y-35823D01*
X41493Y-35889D01*
X41564Y-35961D01*
X41887Y-35961D01*
X41889Y-35957D01*
X42009Y-35838D01*
X42127Y-35789D01*
X39814Y-35789D01*
X39741Y-35862D01*
X39584Y-35927D01*
X39414Y-35927D01*
X39257Y-35861D01*
X39138Y-35741D01*
X39073Y-35584D01*
X39073Y-35414D01*
X39125Y-35289D01*
X37300Y-35289D01*
X37300Y-35461D01*
X37750Y-35461D01*
X37861Y-35483D01*
X37954Y-35546D01*
X38046Y-35638D01*
X38123Y-35607D01*
X38379Y-35607D01*
X38615Y-35706D01*
X38795Y-35887D01*
X38893Y-36123D01*
X38893Y-36379D01*
X38861Y-36453D01*
X39069Y-36661D01*
X39337Y-36661D01*
X39384Y-36614D01*
X39476Y-36576D01*
X40025Y-36576D01*
X40116Y-36614D01*
X40186Y-36684D01*
X40224Y-36776D01*
X40224Y-37125D01*
X40186Y-37216D01*
X40151Y-37249D01*
X40186Y-37284D01*
X40224Y-37376D01*
X40224Y-37725D01*
X40186Y-37816D01*
X40116Y-37886D01*
X40024Y-37924D01*
X39784Y-37924D01*
X39254Y-38454D01*
X39161Y-38517D01*
X39050Y-38539D01*
X38825Y-38539D01*
X38794Y-38615D01*
X38613Y-38795D01*
X38539Y-38825D01*
X38539Y-39081D01*
X38616Y-39114D01*
X38686Y-39184D01*
X38724Y-39276D01*
X38724Y-39625D01*
X38686Y-39716D01*
X38651Y-39749D01*
X38686Y-39784D01*
X38724Y-39876D01*
X38725Y-39938D01*
X38663Y-40000D01*
X38300Y-40000D01*
X38200Y-40000D01*
X37837Y-40000D01*
X37775Y-39938D01*
X37776Y-39876D01*
X37814Y-39784D01*
X37847Y-39749D01*
X37814Y-39716D01*
X37776Y-39624D01*
X37776Y-39275D01*
X37814Y-39184D01*
X37884Y-39114D01*
X37961Y-39082D01*
X37961Y-38825D01*
X37885Y-38794D01*
X37705Y-38613D01*
X37607Y-38377D01*
X37607Y-38121D01*
X37706Y-37885D01*
X37716Y-37874D01*
X37380Y-37539D01*
X37300Y-37539D01*
X37300Y-39550D01*
X36733Y-39550D01*
X36733Y-39557D01*
X36734Y-39888D01*
X36672Y-39950D01*
X36150Y-39950D01*
X36050Y-39950D01*
X36050Y-40050D01*
X36050Y-40680D01*
X35988Y-40742D01*
X35667Y-40741D01*
X35575Y-40703D01*
X35505Y-40633D01*
X35500Y-40621D01*
X35495Y-40633D01*
X35425Y-40703D01*
X35333Y-40741D01*
X35225Y-40741D01*
X35225Y-41600D01*
X35200Y-41725D01*
X35130Y-41830D01*
X35034Y-41924D01*
X35365Y-41925D01*
G54D10*
G36*
X31776Y-39461D02*
X31776Y-39125D01*
X31810Y-39043D01*
X31741Y-39112D01*
X31721Y-39120D01*
X31724Y-39126D01*
X31725Y-39188D01*
X31663Y-39250D01*
X31300Y-39250D01*
X31200Y-39250D01*
X30837Y-39250D01*
X30775Y-39188D01*
X30776Y-39126D01*
X30814Y-39034D01*
X30847Y-38999D01*
X30814Y-38966D01*
X30776Y-38874D01*
X30776Y-38525D01*
X30814Y-38434D01*
X30884Y-38364D01*
X30976Y-38326D01*
X31408Y-38326D01*
X31416Y-38323D01*
X31505Y-38323D01*
X29289Y-34522D01*
X29289Y-38175D01*
X29416Y-38123D01*
X29586Y-38123D01*
X29743Y-38189D01*
X29862Y-38309D01*
X29927Y-38466D01*
X29927Y-38636D01*
X29861Y-38793D01*
X29789Y-38864D01*
X29789Y-39461D01*
X30775Y-39461D01*
X30775Y-39412D01*
X30837Y-39350D01*
X31200Y-39350D01*
X31300Y-39350D01*
X31663Y-39350D01*
X31725Y-39412D01*
X31724Y-39461D01*
X31776Y-39461D01*
X31776Y-39461D01*
G37*
G54D23*
X31776Y-39461D02*
X31776Y-39125D01*
X31810Y-39043D01*
X31741Y-39112D01*
X31721Y-39120D01*
X31724Y-39126D01*
X31725Y-39188D01*
X31663Y-39250D01*
X31300Y-39250D01*
X31200Y-39250D01*
X30837Y-39250D01*
X30775Y-39188D01*
X30776Y-39126D01*
X30814Y-39034D01*
X30847Y-38999D01*
X30814Y-38966D01*
X30776Y-38874D01*
X30776Y-38525D01*
X30814Y-38434D01*
X30884Y-38364D01*
X30976Y-38326D01*
X31408Y-38326D01*
X31416Y-38323D01*
X31505Y-38323D01*
X29289Y-34522D01*
X29289Y-38175D01*
X29416Y-38123D01*
X29586Y-38123D01*
X29743Y-38189D01*
X29862Y-38309D01*
X29927Y-38466D01*
X29927Y-38636D01*
X29861Y-38793D01*
X29789Y-38864D01*
X29789Y-39461D01*
X30775Y-39461D01*
X30775Y-39412D01*
X30837Y-39350D01*
X31200Y-39350D01*
X31300Y-39350D01*
X31663Y-39350D01*
X31725Y-39412D01*
X31724Y-39461D01*
X31776Y-39461D01*
M02*
