G04 (created by PCBNEW-RS274X (2010-00-09 BZR 23xx)-stable) date Пнд 20 Июн 2011 14:16:42*
G01*
G70*
G90*
%MOIN*%
G04 Gerber Fmt 3.4, Leading zero omitted, Abs format*
%FSLAX34Y34*%
G04 APERTURE LIST*
%ADD10C,0.006000*%
%ADD11C,0.015000*%
%ADD12R,0.076800X0.098400*%
%ADD13R,0.026000X0.016000*%
%ADD14R,0.045000X0.025000*%
%ADD15R,0.025000X0.045000*%
G04 APERTURE END LIST*
G54D10*
G54D11*
X27000Y-48250D02*
X27000Y-48000D01*
X50000Y-48250D02*
X27000Y-48250D01*
X50000Y-28500D02*
X50000Y-48250D01*
X27000Y-28500D02*
X50000Y-28500D01*
X27000Y-48250D02*
X27000Y-28500D01*
G54D12*
X30900Y-41500D03*
X32100Y-41500D03*
X34900Y-40000D03*
X36100Y-40000D03*
X48350Y-38000D03*
X47150Y-38000D03*
X47150Y-40000D03*
X48350Y-40000D03*
X43150Y-41500D03*
X44350Y-41500D03*
X36100Y-38000D03*
X34900Y-38000D03*
G54D13*
X45850Y-41760D03*
X45850Y-41240D03*
X45850Y-41500D03*
X46650Y-41240D03*
X46650Y-41760D03*
G54D14*
X39750Y-36950D03*
X39750Y-37550D03*
G54D15*
X44200Y-40250D03*
X44800Y-40250D03*
G54D14*
X43500Y-39300D03*
X43500Y-38700D03*
X44500Y-38700D03*
X44500Y-39300D03*
G54D15*
X36550Y-35750D03*
X35950Y-35750D03*
G54D14*
X38250Y-39450D03*
X38250Y-40050D03*
G54D15*
X31700Y-40250D03*
X32300Y-40250D03*
G54D14*
X32250Y-38700D03*
X32250Y-39300D03*
X31250Y-39300D03*
X31250Y-38700D03*
G54D13*
X33600Y-41760D03*
X33600Y-41240D03*
X33600Y-41500D03*
X34400Y-41240D03*
X34400Y-41760D03*
M02*
